<ttFont>
    <TTGlyph name=".notdef" xMin="50" yMin="0" xMax="450" yMax="696">
      <contour>
        <pt x="50" y="696" on="1"/>
        <pt x="450" y="696" on="1"/>
        <pt x="450" y="0" on="1"/>
        <pt x="50" y="0" on="1"/>
      </contour>
      <contour>
        <pt x="399" y="46" on="1"/>
        <pt x="399" y="650" on="1"/>
        <pt x="101" y="650" on="1"/>
        <pt x="101" y="46" on="1"/>
      </contour>
    </TTGlyph>
    <TTGlyph name="A" xMin="-17" yMin="0" xMax="610" yMax="694">
      <contour>
        <pt x="391" y="145" on="1"/>
        <pt x="199" y="145" on="1"/>
        <pt x="167" y="0" on="1"/>
        <pt x="-17" y="0" on="1"/>
        <pt x="191" y="694" on="1"/>
        <pt x="404" y="694" on="1"/>
        <pt x="610" y="0" on="1"/>
        <pt x="424" y="0" on="1"/>
      </contour>
      <contour>
        <pt x="362" y="271" on="1"/>
        <pt x="295" y="567" on="1"/>
        <pt x="228" y="271" on="1"/>
      </contour>
    </TTGlyph>
    <TTGlyph name="AE" xMin="-25" yMin="0" xMax="822" yMax="694">
      <contour>
        <pt x="822" y="126" on="1"/>
        <pt x="822" y="0" on="1"/>
        <pt x="442" y="0" on="1"/>
        <pt x="418" y="145" on="1"/>
        <pt x="213" y="145" on="1"/>
        <pt x="165" y="0" on="1"/>
        <pt x="-25" y="0" on="1"/>
        <pt x="247" y="694" on="1"/>
        <pt x="785" y="694" on="1"/>
        <pt x="767" y="569" on="1"/>
        <pt x="503" y="569" on="1"/>
        <pt x="534" y="412" on="1"/>
        <pt x="776" y="412" on="1"/>
        <pt x="776" y="290" on="1"/>
        <pt x="558" y="290" on="1"/>
        <pt x="590" y="126" on="1"/>
      </contour>
      <contour>
        <pt x="398" y="271" on="1"/>
        <pt x="350" y="566" on="1"/>
        <pt x="254" y="271" on="1"/>
      </contour>
    </TTGlyph>
    <TTGlyph name="AEacute" xMin="-25" yMin="0" xMax="822" yMax="965">
      <component glyphName="AE" x="0" y="0" flags="0x0"/>
      <component glyphName="acutecomb.case" x="664" y="0" flags="0x0"/>
    </TTGlyph>
    <TTGlyph name="Aacute" xMin="-17" yMin="0" xMax="610" yMax="965">
      <component glyphName="A" x="0" y="0" flags="0x0"/>
      <component glyphName="acutecomb.case" x="477" y="0" flags="0x0"/>
    </TTGlyph>
    <TTGlyph name="Abreve" xMin="-17" yMin="0" xMax="610" yMax="934">
      <component glyphName="A" x="0" y="0" flags="0x0"/>
      <component glyphName="uni0306.case" x="503" y="0" flags="0x0"/>
    </TTGlyph>
    <TTGlyph name="Acircumflex" xMin="-17" yMin="0" xMax="610" yMax="955">
      <component glyphName="A" x="0" y="0" flags="0x0"/>
      <component glyphName="uni0302.case" x="521" y="0" flags="0x0"/>
    </TTGlyph>
    <TTGlyph name="Adieresis" xMin="-17" yMin="0" xMax="610" yMax="931">
      <component glyphName="A" x="0" y="0" flags="0x0"/>
      <component glyphName="uni0308.case" x="531" y="0" flags="0x0"/>
    </TTGlyph>
    <TTGlyph name="Agrave" xMin="-17" yMin="0" xMax="610" yMax="965">
      <component glyphName="A" x="0" y="0" flags="0x0"/>
      <component glyphName="gravecomb.case" x="474" y="0" flags="0x0"/>
    </TTGlyph>
    <TTGlyph name="Alpha" xMin="-17" yMin="0" xMax="610" yMax="694">
      <contour>
        <pt x="391" y="145" on="1"/>
        <pt x="199" y="145" on="1"/>
        <pt x="167" y="0" on="1"/>
        <pt x="-17" y="0" on="1"/>
        <pt x="191" y="694" on="1"/>
        <pt x="404" y="694" on="1"/>
        <pt x="610" y="0" on="1"/>
        <pt x="424" y="0" on="1"/>
      </contour>
      <contour>
        <pt x="362" y="271" on="1"/>
        <pt x="295" y="567" on="1"/>
        <pt x="228" y="271" on="1"/>
      </contour>
    </TTGlyph>
    <TTGlyph name="Alphatonos" xMin="52" yMin="0" xMax="742" yMax="728">
      <component glyphName="tonos.case" x="0" y="0" flags="0x0"/>
      <component glyphName="A" x="132" y="0" flags="0x0"/>
    </TTGlyph>
    <TTGlyph name="Amacron" xMin="-17" yMin="0" xMax="610" yMax="896">
      <component glyphName="A" x="0" y="0" flags="0x0"/>
      <component glyphName="uni0304.case" x="482" y="0" flags="0x0"/>
    </TTGlyph>
    <TTGlyph name="Aogonek" xMin="-17" yMin="-248" xMax="610" yMax="694">
      <contour>
        <pt x="402" y="-42" on="0"/>
        <pt x="402" y="-100" on="1"/>
        <pt x="402" y="-145" on="0"/>
        <pt x="454" y="-145" on="1"/>
        <pt x="480" y="-145" on="0"/>
        <pt x="515" y="-137" on="1"/>
        <pt x="504" y="-240" on="1"/>
        <pt x="470" y="-248" on="0"/>
        <pt x="433" y="-248" on="1"/>
        <pt x="366" y="-248" on="0"/>
        <pt x="282" y="-184" on="0"/>
        <pt x="282" y="-129" on="1"/>
        <pt x="282" y="-27" on="0"/>
        <pt x="417" y="29" on="1"/>
        <pt x="391" y="145" on="1"/>
        <pt x="199" y="145" on="1"/>
        <pt x="167" y="0" on="1"/>
        <pt x="-17" y="0" on="1"/>
        <pt x="191" y="694" on="1"/>
        <pt x="404" y="694" on="1"/>
        <pt x="610" y="0" on="1"/>
        <pt x="519" y="0" on="1"/>
      </contour>
      <contour>
        <pt x="362" y="271" on="1"/>
        <pt x="295" y="567" on="1"/>
        <pt x="228" y="271" on="1"/>
      </contour>
    </TTGlyph>
    <TTGlyph name="Aring" xMin="-17" yMin="0" xMax="610" yMax="999">
      <component glyphName="A" x="0" y="0" flags="0x0"/>
      <component glyphName="uni030A.case" x="471" y="0" flags="0x0"/>
    </TTGlyph>
    <TTGlyph name="Aringacute" xMin="-17" yMin="0" xMax="610" yMax="1208">
      <contour>
        <pt x="199" y="994" on="1"/>
        <pt x="156" y="1079" on="1"/>
        <pt x="379" y="1208" on="1"/>
        <pt x="443" y="1081" on="1"/>
      </contour>
      <contour>
        <pt x="232" y="718" on="0"/>
        <pt x="154" y="797" on="0"/>
        <pt x="154" y="854" on="1"/>
        <pt x="154" y="911" on="0"/>
        <pt x="232" y="990" on="0"/>
        <pt x="297" y="990" on="1"/>
        <pt x="362" y="990" on="0"/>
        <pt x="441" y="911" on="0"/>
        <pt x="441" y="854" on="1"/>
        <pt x="441" y="797" on="0"/>
        <pt x="362" y="718" on="0"/>
        <pt x="297" y="718" on="1"/>
      </contour>
      <contour>
        <pt x="278" y="903" on="0"/>
        <pt x="254" y="878" on="0"/>
        <pt x="254" y="854" on="1"/>
        <pt x="254" y="831" on="0"/>
        <pt x="278" y="806" on="0"/>
        <pt x="297" y="806" on="1"/>
        <pt x="317" y="806" on="0"/>
        <pt x="341" y="831" on="0"/>
        <pt x="341" y="854" on="1"/>
        <pt x="341" y="878" on="0"/>
        <pt x="317" y="903" on="0"/>
        <pt x="297" y="903" on="1"/>
      </contour>
      <contour>
        <pt x="391" y="145" on="1"/>
        <pt x="199" y="145" on="1"/>
        <pt x="167" y="0" on="1"/>
        <pt x="-17" y="0" on="1"/>
        <pt x="191" y="694" on="1"/>
        <pt x="404" y="694" on="1"/>
        <pt x="610" y="0" on="1"/>
        <pt x="424" y="0" on="1"/>
      </contour>
      <contour>
        <pt x="362" y="271" on="1"/>
        <pt x="295" y="567" on="1"/>
        <pt x="228" y="271" on="1"/>
      </contour>
    </TTGlyph>
    <TTGlyph name="Atilde" xMin="-17" yMin="0" xMax="610" yMax="921">
      <component glyphName="A" x="0" y="0" flags="0x0"/>
      <component glyphName="tildecomb.case" x="518" y="0" flags="0x0"/>
    </TTGlyph>
    <TTGlyph name="B" xMin="58" yMin="0" xMax="595" yMax="694">
      <contour>
        <pt x="508" y="354" on="0"/>
        <pt x="595" y="279" on="0"/>
        <pt x="595" y="203" on="1"/>
        <pt x="595" y="91" on="0"/>
        <pt x="434" y="0" on="0"/>
        <pt x="288" y="0" on="1"/>
        <pt x="58" y="0" on="1"/>
        <pt x="58" y="694" on="1"/>
        <pt x="261" y="694" on="1"/>
        <pt x="410" y="694" on="0"/>
        <pt x="566" y="611" on="0"/>
        <pt x="566" y="516" on="1"/>
        <pt x="566" y="454" on="0"/>
        <pt x="493" y="381" on="0"/>
        <pt x="439" y="368" on="1"/>
      </contour>
      <contour>
        <pt x="235" y="571" on="1"/>
        <pt x="235" y="419" on="1"/>
        <pt x="288" y="419" on="1"/>
        <pt x="339" y="419" on="0"/>
        <pt x="387" y="457" on="0"/>
        <pt x="387" y="498" on="1"/>
        <pt x="387" y="537" on="0"/>
        <pt x="335" y="571" on="0"/>
        <pt x="277" y="571" on="1"/>
      </contour>
      <contour>
        <pt x="350" y="127" on="0"/>
        <pt x="413" y="164" on="0"/>
        <pt x="413" y="214" on="1"/>
        <pt x="413" y="304" on="0"/>
        <pt x="300" y="304" on="1"/>
        <pt x="235" y="304" on="1"/>
        <pt x="235" y="127" on="1"/>
        <pt x="289" y="127" on="1"/>
      </contour>
    </TTGlyph>
    <TTGlyph name="Beta" xMin="58" yMin="0" xMax="595" yMax="694">
      <component glyphName="B" x="0" y="0" flags="0x0"/>
    </TTGlyph>
    <TTGlyph name="C" xMin="29" yMin="-18" xMax="572" yMax="712">
      <contour>
        <pt x="414" y="712" on="0"/>
        <pt x="518" y="673" on="0"/>
        <pt x="564" y="634" on="1"/>
        <pt x="479" y="533" on="1"/>
        <pt x="450" y="558" on="0"/>
        <pt x="391" y="583" on="0"/>
        <pt x="357" y="583" on="1"/>
        <pt x="290" y="583" on="0"/>
        <pt x="213" y="467" on="0"/>
        <pt x="213" y="349" on="1"/>
        <pt x="213" y="232" on="0"/>
        <pt x="291" y="117" on="0"/>
        <pt x="361" y="117" on="1"/>
        <pt x="397" y="117" on="0"/>
        <pt x="456" y="146" on="0"/>
        <pt x="493" y="175" on="1"/>
        <pt x="572" y="74" on="1"/>
        <pt x="533" y="34" on="0"/>
        <pt x="419" y="-18" on="0"/>
        <pt x="351" y="-18" on="1"/>
        <pt x="254" y="-18" on="0"/>
        <pt x="109" y="67" on="0"/>
        <pt x="29" y="232" on="0"/>
        <pt x="29" y="349" on="1"/>
        <pt x="29" y="462" on="0"/>
        <pt x="111" y="626" on="0"/>
        <pt x="254" y="712" on="0"/>
        <pt x="346" y="712" on="1"/>
      </contour>
    </TTGlyph>
    <TTGlyph name="Cacute" xMin="29" yMin="-18" xMax="572" yMax="965">
      <component glyphName="C" x="0" y="0" flags="0x0"/>
      <component glyphName="acutecomb.case" x="535" y="0" flags="0x0"/>
    </TTGlyph>
    <TTGlyph name="Cacute.loclPLK" xMin="29" yMin="-18" xMax="572" yMax="972">
      <component glyphName="C" x="0" y="0" flags="0x0"/>
      <component glyphName="acute.case.loclPLK" x="181" y="0" flags="0x0"/>
    </TTGlyph>
    <TTGlyph name="Ccaron" xMin="29" yMin="-18" xMax="572" yMax="950">
      <component glyphName="C" x="0" y="0" flags="0x0"/>
      <component glyphName="uni030C.case" x="579" y="0" flags="0x0"/>
    </TTGlyph>
    <TTGlyph name="Ccedilla" xMin="29" yMin="-266" xMax="572" yMax="712">
      <contour>
        <pt x="538" y="40" on="0"/>
        <pt x="442" y="-10" on="0"/>
        <pt x="385" y="-16" on="1"/>
        <pt x="385" y="-46" on="1"/>
        <pt x="438" y="-53" on="0"/>
        <pt x="490" y="-105" on="0"/>
        <pt x="490" y="-148" on="1"/>
        <pt x="490" y="-201" on="0"/>
        <pt x="407" y="-266" on="0"/>
        <pt x="337" y="-266" on="1"/>
        <pt x="303" y="-266" on="0"/>
        <pt x="242" y="-249" on="0"/>
        <pt x="221" y="-235" on="1"/>
        <pt x="259" y="-158" on="1"/>
        <pt x="293" y="-175" on="0"/>
        <pt x="323" y="-175" on="1"/>
        <pt x="369" y="-175" on="0"/>
        <pt x="369" y="-147" on="1"/>
        <pt x="369" y="-130" on="0"/>
        <pt x="325" y="-114" on="0"/>
        <pt x="277" y="-114" on="1"/>
        <pt x="289" y="-13" on="1"/>
        <pt x="168" y="6" on="0"/>
        <pt x="29" y="192" on="0"/>
        <pt x="29" y="349" on="1"/>
        <pt x="29" y="462" on="0"/>
        <pt x="111" y="626" on="0"/>
        <pt x="254" y="712" on="0"/>
        <pt x="346" y="712" on="1"/>
        <pt x="414" y="712" on="0"/>
        <pt x="518" y="673" on="0"/>
        <pt x="564" y="634" on="1"/>
        <pt x="479" y="533" on="1"/>
        <pt x="450" y="558" on="0"/>
        <pt x="391" y="583" on="0"/>
        <pt x="357" y="583" on="1"/>
        <pt x="290" y="583" on="0"/>
        <pt x="213" y="467" on="0"/>
        <pt x="213" y="349" on="1"/>
        <pt x="213" y="232" on="0"/>
        <pt x="291" y="117" on="0"/>
        <pt x="361" y="117" on="1"/>
        <pt x="397" y="117" on="0"/>
        <pt x="456" y="146" on="0"/>
        <pt x="493" y="175" on="1"/>
        <pt x="572" y="74" on="1"/>
      </contour>
    </TTGlyph>
    <TTGlyph name="Ccircumflex" xMin="29" yMin="-18" xMax="572" yMax="955">
      <component glyphName="C" x="0" y="0" flags="0x0"/>
      <component glyphName="uni0302.case" x="579" y="0" flags="0x0"/>
    </TTGlyph>
    <TTGlyph name="Cdotaccent" xMin="29" yMin="-18" xMax="572" yMax="942">
      <component glyphName="C" x="0" y="0" flags="0x0"/>
      <component glyphName="uni0307.case" x="483" y="0" flags="0x0"/>
    </TTGlyph>
    <TTGlyph name="Chi" xMin="-6" yMin="0" xMax="595" yMax="694">
      <component glyphName="X" x="0" y="0" flags="0x0"/>
    </TTGlyph>
    <TTGlyph name="D" xMin="58" yMin="0" xMax="624" yMax="694">
      <contour>
        <pt x="425" y="694" on="0"/>
        <pt x="624" y="546" on="0"/>
        <pt x="624" y="350" on="1"/>
        <pt x="624" y="0" on="0"/>
        <pt x="275" y="0" on="1"/>
        <pt x="58" y="0" on="1"/>
        <pt x="58" y="694" on="1"/>
        <pt x="260" y="694" on="1"/>
      </contour>
      <contour>
        <pt x="235" y="567" on="1"/>
        <pt x="235" y="127" on="1"/>
        <pt x="285" y="127" on="1"/>
        <pt x="363" y="127" on="0"/>
        <pt x="441" y="225" on="0"/>
        <pt x="441" y="350" on="1"/>
        <pt x="441" y="436" on="0"/>
        <pt x="403" y="531" on="0"/>
        <pt x="335" y="567" on="0"/>
        <pt x="284" y="567" on="1"/>
      </contour>
    </TTGlyph>
    <TTGlyph name="Dcaron" xMin="58" yMin="0" xMax="624" yMax="950">
      <component glyphName="D" x="0" y="0" flags="0x0"/>
      <component glyphName="uni030C.case" x="518" y="0" flags="0x0"/>
    </TTGlyph>
    <TTGlyph name="Dcroat" xMin="13" yMin="0" xMax="638" yMax="694">
      <component glyphName="Eth" x="0" y="0" flags="0x0"/>
    </TTGlyph>
    <TTGlyph name="Delta" xMin="-17" yMin="0" xMax="619" yMax="694">
      <contour>
        <pt x="619" y="0" on="1"/>
        <pt x="-17" y="0" on="1"/>
        <pt x="195" y="694" on="1"/>
        <pt x="408" y="694" on="1"/>
      </contour>
      <contour>
        <pt x="195" y="128" on="1"/>
        <pt x="403" y="128" on="1"/>
        <pt x="300" y="565" on="1"/>
      </contour>
    </TTGlyph>
    <TTGlyph name="E" xMin="58" yMin="0" xMax="493" yMax="694">
      <contour>
        <pt x="475" y="569" on="1"/>
        <pt x="235" y="569" on="1"/>
        <pt x="235" y="414" on="1"/>
        <pt x="445" y="414" on="1"/>
        <pt x="445" y="291" on="1"/>
        <pt x="235" y="291" on="1"/>
        <pt x="235" y="126" on="1"/>
        <pt x="491" y="126" on="1"/>
        <pt x="491" y="0" on="1"/>
        <pt x="58" y="0" on="1"/>
        <pt x="58" y="694" on="1"/>
        <pt x="493" y="694" on="1"/>
      </contour>
    </TTGlyph>
    <TTGlyph name="Eacute" xMin="58" yMin="0" xMax="493" yMax="965">
      <component glyphName="E" x="0" y="0" flags="0x0"/>
      <component glyphName="acutecomb.case" x="456" y="0" flags="0x0"/>
    </TTGlyph>
    <TTGlyph name="Ebreve" xMin="58" yMin="0" xMax="493" yMax="934">
      <component glyphName="E" x="0" y="0" flags="0x0"/>
      <component glyphName="uni0306.case" x="482" y="0" flags="0x0"/>
    </TTGlyph>
    <TTGlyph name="Ecaron" xMin="58" yMin="0" xMax="493" yMax="950">
      <component glyphName="E" x="0" y="0" flags="0x0"/>
      <component glyphName="uni030C.case" x="501" y="0" flags="0x0"/>
    </TTGlyph>
    <TTGlyph name="Ecircumflex" xMin="58" yMin="0" xMax="493" yMax="955">
      <component glyphName="E" x="0" y="0" flags="0x0"/>
      <component glyphName="uni0302.case" x="501" y="0" flags="0x0"/>
    </TTGlyph>
    <TTGlyph name="Edieresis" xMin="58" yMin="0" xMax="493" yMax="931">
      <component glyphName="E" x="0" y="0" flags="0x0"/>
      <component glyphName="uni0308.case" x="511" y="0" flags="0x0"/>
    </TTGlyph>
    <TTGlyph name="Edotaccent" xMin="58" yMin="0" xMax="493" yMax="942">
      <component glyphName="E" x="0" y="0" flags="0x0"/>
      <component glyphName="uni0307.case" x="405" y="0" flags="0x0"/>
    </TTGlyph>
    <TTGlyph name="Egrave" xMin="58" yMin="0" xMax="493" yMax="965">
      <component glyphName="E" x="0" y="0" flags="0x0"/>
      <component glyphName="gravecomb.case" x="454" y="0" flags="0x0"/>
    </TTGlyph>
    <TTGlyph name="Emacron" xMin="58" yMin="0" xMax="493" yMax="896">
      <component glyphName="E" x="0" y="0" flags="0x0"/>
      <component glyphName="uni0304.case" x="462" y="0" flags="0x0"/>
    </TTGlyph>
    <TTGlyph name="Eng" xMin="58" yMin="-223" xMax="601" yMax="694">
      <contour>
        <pt x="601" y="-27" on="1"/>
        <pt x="601" y="-123" on="0"/>
        <pt x="489" y="-223" on="0"/>
        <pt x="392" y="-223" on="1"/>
        <pt x="305" y="-223" on="0"/>
        <pt x="246" y="-180" on="1"/>
        <pt x="302" y="-76" on="1"/>
        <pt x="326" y="-88" on="0"/>
        <pt x="352" y="-97" on="0"/>
        <pt x="372" y="-97" on="1"/>
        <pt x="397" y="-97" on="0"/>
        <pt x="425" y="-67" on="0"/>
        <pt x="425" y="-38" on="1"/>
        <pt x="425" y="0" on="1"/>
        <pt x="378" y="0" on="1"/>
        <pt x="192" y="528" on="1"/>
        <pt x="203" y="451" on="0"/>
        <pt x="215" y="326" on="0"/>
        <pt x="215" y="242" on="1"/>
        <pt x="215" y="0" on="1"/>
        <pt x="58" y="0" on="1"/>
        <pt x="58" y="694" on="1"/>
        <pt x="277" y="694" on="1"/>
        <pt x="468" y="164" on="1"/>
        <pt x="457" y="235" on="0"/>
        <pt x="444" y="355" on="0"/>
        <pt x="444" y="431" on="1"/>
        <pt x="444" y="694" on="1"/>
        <pt x="601" y="694" on="1"/>
      </contour>
    </TTGlyph>
    <TTGlyph name="Eng.ss01" xMin="58" yMin="-223" xMax="598" yMax="712">
      <contour>
        <pt x="598" y="-27" on="1"/>
        <pt x="598" y="-123" on="0"/>
        <pt x="485" y="-223" on="0"/>
        <pt x="388" y="-223" on="1"/>
        <pt x="301" y="-223" on="0"/>
        <pt x="242" y="-180" on="1"/>
        <pt x="299" y="-76" on="1"/>
        <pt x="323" y="-88" on="0"/>
        <pt x="349" y="-97" on="0"/>
        <pt x="369" y="-97" on="1"/>
        <pt x="394" y="-97" on="0"/>
        <pt x="421" y="-67" on="0"/>
        <pt x="421" y="-38" on="1"/>
        <pt x="421" y="501" on="1"/>
        <pt x="421" y="542" on="0"/>
        <pt x="391" y="582" on="0"/>
        <pt x="356" y="582" on="1"/>
        <pt x="320" y="582" on="0"/>
        <pt x="266" y="552" on="0"/>
        <pt x="235" y="518" on="1"/>
        <pt x="235" y="0" on="1"/>
        <pt x="58" y="0" on="1"/>
        <pt x="58" y="694" on="1"/>
        <pt x="213" y="694" on="1"/>
        <pt x="226" y="630" on="1"/>
        <pt x="270" y="673" on="0"/>
        <pt x="359" y="712" on="0"/>
        <pt x="419" y="712" on="1"/>
        <pt x="506" y="712" on="0"/>
        <pt x="598" y="610" on="0"/>
        <pt x="598" y="528" on="1"/>
      </contour>
    </TTGlyph>
    <TTGlyph name="Eogonek" xMin="58" yMin="-248" xMax="493" yMax="694">
      <contour>
        <pt x="235" y="126" on="1"/>
        <pt x="491" y="126" on="1"/>
        <pt x="491" y="0" on="1"/>
        <pt x="451" y="0" on="1"/>
        <pt x="334" y="-42" on="0"/>
        <pt x="334" y="-100" on="1"/>
        <pt x="334" y="-145" on="0"/>
        <pt x="386" y="-145" on="1"/>
        <pt x="412" y="-145" on="0"/>
        <pt x="447" y="-137" on="1"/>
        <pt x="436" y="-240" on="1"/>
        <pt x="402" y="-248" on="0"/>
        <pt x="365" y="-248" on="1"/>
        <pt x="298" y="-248" on="0"/>
        <pt x="214" y="-184" on="0"/>
        <pt x="214" y="-129" on="1"/>
        <pt x="214" y="-52" on="0"/>
        <pt x="293" y="0" on="1"/>
        <pt x="58" y="0" on="1"/>
        <pt x="58" y="694" on="1"/>
        <pt x="493" y="694" on="1"/>
        <pt x="475" y="569" on="1"/>
        <pt x="235" y="569" on="1"/>
        <pt x="235" y="414" on="1"/>
        <pt x="445" y="414" on="1"/>
        <pt x="445" y="291" on="1"/>
        <pt x="235" y="291" on="1"/>
      </contour>
    </TTGlyph>
    <TTGlyph name="Epsilon" xMin="58" yMin="0" xMax="493" yMax="694">
      <contour>
        <pt x="475" y="569" on="1"/>
        <pt x="235" y="569" on="1"/>
        <pt x="235" y="414" on="1"/>
        <pt x="445" y="414" on="1"/>
        <pt x="445" y="291" on="1"/>
        <pt x="235" y="291" on="1"/>
        <pt x="235" y="126" on="1"/>
        <pt x="491" y="126" on="1"/>
        <pt x="491" y="0" on="1"/>
        <pt x="58" y="0" on="1"/>
        <pt x="58" y="694" on="1"/>
        <pt x="493" y="694" on="1"/>
      </contour>
    </TTGlyph>
    <TTGlyph name="Epsilontonos" xMin="52" yMin="0" xMax="709" yMax="728">
      <component glyphName="tonos.case" x="0" y="0" flags="0x0"/>
      <component glyphName="E" x="216" y="0" flags="0x0"/>
    </TTGlyph>
    <TTGlyph name="Eta" xMin="58" yMin="0" xMax="605" yMax="694">
      <contour>
        <pt x="428" y="292" on="1"/>
        <pt x="235" y="292" on="1"/>
        <pt x="235" y="0" on="1"/>
        <pt x="58" y="0" on="1"/>
        <pt x="58" y="694" on="1"/>
        <pt x="235" y="694" on="1"/>
        <pt x="235" y="429" on="1"/>
        <pt x="428" y="429" on="1"/>
        <pt x="428" y="694" on="1"/>
        <pt x="605" y="694" on="1"/>
        <pt x="605" y="0" on="1"/>
        <pt x="428" y="0" on="1"/>
      </contour>
    </TTGlyph>
    <TTGlyph name="Etatonos" xMin="52" yMin="0" xMax="821" yMax="728">
      <component glyphName="tonos.case" x="0" y="0" flags="0x0"/>
      <component glyphName="H" x="216" y="0" flags="0x0"/>
    </TTGlyph>
    <TTGlyph name="Eth" xMin="13" yMin="0" xMax="638" yMax="694">
      <contour>
        <pt x="439" y="694" on="0"/>
        <pt x="638" y="546" on="0"/>
        <pt x="638" y="350" on="1"/>
        <pt x="638" y="0" on="0"/>
        <pt x="289" y="0" on="1"/>
        <pt x="72" y="0" on="1"/>
        <pt x="72" y="301" on="1"/>
        <pt x="13" y="301" on="1"/>
        <pt x="13" y="405" on="1"/>
        <pt x="72" y="405" on="1"/>
        <pt x="72" y="694" on="1"/>
        <pt x="274" y="694" on="1"/>
      </contour>
      <contour>
        <pt x="377" y="127" on="0"/>
        <pt x="455" y="225" on="0"/>
        <pt x="455" y="350" on="1"/>
        <pt x="455" y="436" on="0"/>
        <pt x="417" y="531" on="0"/>
        <pt x="349" y="567" on="0"/>
        <pt x="298" y="567" on="1"/>
        <pt x="249" y="567" on="1"/>
        <pt x="249" y="405" on="1"/>
        <pt x="379" y="405" on="1"/>
        <pt x="379" y="301" on="1"/>
        <pt x="249" y="301" on="1"/>
        <pt x="249" y="127" on="1"/>
        <pt x="299" y="127" on="1"/>
      </contour>
    </TTGlyph>
    <TTGlyph name="Euro" xMin="5" yMin="-18" xMax="570" yMax="712">
      <contour>
        <pt x="273" y="162" on="0"/>
        <pt x="337" y="104" on="0"/>
        <pt x="392" y="104" on="1"/>
        <pt x="461" y="104" on="0"/>
        <pt x="535" y="147" on="1"/>
        <pt x="535" y="19" on="1"/>
        <pt x="494" y="0" on="0"/>
        <pt x="417" y="-18" on="0"/>
        <pt x="373" y="-18" on="1"/>
        <pt x="259" y="-18" on="0"/>
        <pt x="114" y="109" on="0"/>
        <pt x="90" y="228" on="1"/>
        <pt x="5" y="228" on="1"/>
        <pt x="27" y="314" on="1"/>
        <pt x="86" y="314" on="1"/>
        <pt x="86" y="382" on="1"/>
        <pt x="5" y="382" on="1"/>
        <pt x="27" y="468" on="1"/>
        <pt x="91" y="468" on="1"/>
        <pt x="121" y="583" on="0"/>
        <pt x="274" y="712" on="0"/>
        <pt x="379" y="712" on="1"/>
        <pt x="484" y="712" on="0"/>
        <pt x="570" y="655" on="1"/>
        <pt x="518" y="553" on="1"/>
        <pt x="485" y="573" on="0"/>
        <pt x="424" y="591" on="0"/>
        <pt x="388" y="591" on="1"/>
        <pt x="339" y="591" on="0"/>
        <pt x="278" y="532" on="0"/>
        <pt x="262" y="468" on="1"/>
        <pt x="503" y="468" on="1"/>
        <pt x="481" y="382" on="1"/>
        <pt x="256" y="382" on="1"/>
        <pt x="256" y="314" on="1"/>
        <pt x="466" y="314" on="1"/>
        <pt x="444" y="228" on="1"/>
        <pt x="260" y="228" on="1"/>
      </contour>
    </TTGlyph>
    <TTGlyph name="Euro.lf" xMin="7" yMin="-18" xMax="587" yMax="692">
      <contour>
        <pt x="293" y="104" on="0"/>
        <pt x="405" y="104" on="1"/>
        <pt x="478" y="104" on="0"/>
        <pt x="552" y="147" on="1"/>
        <pt x="552" y="19" on="1"/>
        <pt x="511" y="0" on="0"/>
        <pt x="434" y="-18" on="0"/>
        <pt x="390" y="-18" on="1"/>
        <pt x="272" y="-18" on="0"/>
        <pt x="118" y="106" on="0"/>
        <pt x="92" y="218" on="1"/>
        <pt x="7" y="218" on="1"/>
        <pt x="29" y="304" on="1"/>
        <pt x="88" y="304" on="1"/>
        <pt x="88" y="372" on="1"/>
        <pt x="7" y="372" on="1"/>
        <pt x="29" y="458" on="1"/>
        <pt x="94" y="458" on="1"/>
        <pt x="124" y="566" on="0"/>
        <pt x="287" y="692" on="0"/>
        <pt x="395" y="692" on="1"/>
        <pt x="454" y="692" on="0"/>
        <pt x="546" y="661" on="0"/>
        <pt x="587" y="634" on="1"/>
        <pt x="528" y="532" on="1"/>
        <pt x="497" y="552" on="0"/>
        <pt x="437" y="571" on="0"/>
        <pt x="402" y="571" on="1"/>
        <pt x="353" y="571" on="0"/>
        <pt x="283" y="514" on="0"/>
        <pt x="266" y="458" on="1"/>
        <pt x="505" y="458" on="1"/>
        <pt x="483" y="372" on="1"/>
        <pt x="258" y="372" on="1"/>
        <pt x="258" y="304" on="1"/>
        <pt x="468" y="304" on="1"/>
        <pt x="446" y="218" on="1"/>
        <pt x="263" y="218" on="1"/>
      </contour>
    </TTGlyph>
    <TTGlyph name="Euro.osf" xMin="7" yMin="-18" xMax="587" yMax="692">
      <component glyphName="Euro.lf" x="0" y="0" flags="0x0"/>
    </TTGlyph>
    <TTGlyph name="Euro.tosf" xMin="22" yMin="-18" xMax="585" yMax="692">
      <contour>
        <pt x="306" y="104" on="0"/>
        <pt x="412" y="104" on="1"/>
        <pt x="475" y="104" on="0"/>
        <pt x="551" y="147" on="1"/>
        <pt x="551" y="19" on="1"/>
        <pt x="508" y="0" on="0"/>
        <pt x="438" y="-18" on="0"/>
        <pt x="397" y="-18" on="1"/>
        <pt x="282" y="-18" on="0"/>
        <pt x="133" y="106" on="0"/>
        <pt x="108" y="218" on="1"/>
        <pt x="22" y="218" on="1"/>
        <pt x="44" y="304" on="1"/>
        <pt x="103" y="304" on="1"/>
        <pt x="103" y="372" on="1"/>
        <pt x="22" y="372" on="1"/>
        <pt x="44" y="458" on="1"/>
        <pt x="109" y="458" on="1"/>
        <pt x="139" y="566" on="0"/>
        <pt x="296" y="692" on="0"/>
        <pt x="402" y="692" on="1"/>
        <pt x="458" y="692" on="0"/>
        <pt x="545" y="661" on="0"/>
        <pt x="585" y="634" on="1"/>
        <pt x="526" y="532" on="1"/>
        <pt x="496" y="552" on="0"/>
        <pt x="440" y="571" on="0"/>
        <pt x="409" y="571" on="1"/>
        <pt x="364" y="571" on="0"/>
        <pt x="298" y="515" on="0"/>
        <pt x="281" y="458" on="1"/>
        <pt x="504" y="458" on="1"/>
        <pt x="482" y="372" on="1"/>
        <pt x="274" y="372" on="1"/>
        <pt x="274" y="304" on="1"/>
        <pt x="467" y="304" on="1"/>
        <pt x="445" y="218" on="1"/>
        <pt x="279" y="218" on="1"/>
      </contour>
    </TTGlyph>
    <TTGlyph name="F" xMin="58" yMin="0" xMax="480" yMax="694">
      <contour>
        <pt x="462" y="569" on="1"/>
        <pt x="235" y="569" on="1"/>
        <pt x="235" y="395" on="1"/>
        <pt x="433" y="395" on="1"/>
        <pt x="433" y="270" on="1"/>
        <pt x="235" y="270" on="1"/>
        <pt x="235" y="0" on="1"/>
        <pt x="58" y="0" on="1"/>
        <pt x="58" y="694" on="1"/>
        <pt x="480" y="694" on="1"/>
      </contour>
    </TTGlyph>
    <TTGlyph name="G" xMin="29" yMin="-18" xMax="605" yMax="712">
      <contour>
        <pt x="504" y="712" on="0"/>
        <pt x="603" y="625" on="1"/>
        <pt x="512" y="531" on="1"/>
        <pt x="478" y="560" on="0"/>
        <pt x="416" y="585" on="0"/>
        <pt x="375" y="585" on="1"/>
        <pt x="300" y="585" on="0"/>
        <pt x="212" y="467" on="0"/>
        <pt x="212" y="347" on="1"/>
        <pt x="212" y="258" on="0"/>
        <pt x="241" y="155" on="0"/>
        <pt x="301" y="110" on="0"/>
        <pt x="348" y="110" on="1"/>
        <pt x="395" y="110" on="0"/>
        <pt x="435" y="131" on="1"/>
        <pt x="435" y="279" on="1"/>
        <pt x="351" y="279" on="1"/>
        <pt x="334" y="402" on="1"/>
        <pt x="605" y="402" on="1"/>
        <pt x="605" y="57" on="1"/>
        <pt x="551" y="22" on="0"/>
        <pt x="417" y="-18" on="0"/>
        <pt x="350" y="-18" on="1"/>
        <pt x="190" y="-18" on="0"/>
        <pt x="29" y="169" on="0"/>
        <pt x="29" y="348" on="1"/>
        <pt x="29" y="462" on="0"/>
        <pt x="117" y="627" on="0"/>
        <pt x="270" y="712" on="0"/>
        <pt x="366" y="712" on="1"/>
      </contour>
    </TTGlyph>
    <TTGlyph name="Gamma" xMin="58" yMin="0" xMax="511" yMax="694">
      <component glyphName="uni0413" x="0" y="0" flags="0x0"/>
    </TTGlyph>
    <TTGlyph name="Gbreve" xMin="29" yMin="-18" xMax="605" yMax="934">
      <component glyphName="G" x="0" y="0" flags="0x0"/>
      <component glyphName="uni0306.case" x="557" y="0" flags="0x0"/>
    </TTGlyph>
    <TTGlyph name="Gcaron" xMin="29" yMin="-18" xMax="605" yMax="950">
      <component glyphName="G" x="0" y="0" flags="0x0"/>
      <component glyphName="uni030C.case" x="575" y="0" flags="0x0"/>
    </TTGlyph>
    <TTGlyph name="Gcircumflex" xMin="29" yMin="-18" xMax="605" yMax="955">
      <component glyphName="G" x="0" y="0" flags="0x0"/>
      <component glyphName="uni0302.case" x="575" y="0" flags="0x0"/>
    </TTGlyph>
    <TTGlyph name="Gcommaaccent" xMin="29" yMin="-330" xMax="605" yMax="712">
      <component glyphName="G" x="0" y="0" flags="0x0"/>
      <component glyphName="uni0326.case" x="462" y="0" flags="0x0"/>
    </TTGlyph>
    <TTGlyph name="Gdotaccent" xMin="29" yMin="-18" xMax="605" yMax="942">
      <component glyphName="G" x="0" y="0" flags="0x0"/>
      <component glyphName="uni0307.case" x="479" y="0" flags="0x0"/>
    </TTGlyph>
    <TTGlyph name="H" xMin="58" yMin="0" xMax="605" yMax="694">
      <contour>
        <pt x="428" y="292" on="1"/>
        <pt x="235" y="292" on="1"/>
        <pt x="235" y="0" on="1"/>
        <pt x="58" y="0" on="1"/>
        <pt x="58" y="694" on="1"/>
        <pt x="235" y="694" on="1"/>
        <pt x="235" y="429" on="1"/>
        <pt x="428" y="429" on="1"/>
        <pt x="428" y="694" on="1"/>
        <pt x="605" y="694" on="1"/>
        <pt x="605" y="0" on="1"/>
        <pt x="428" y="0" on="1"/>
      </contour>
    </TTGlyph>
    <TTGlyph name="Hbar" xMin="9" yMin="0" xMax="666" yMax="694">
      <contour>
        <pt x="666" y="498" on="1"/>
        <pt x="611" y="498" on="1"/>
        <pt x="611" y="0" on="1"/>
        <pt x="435" y="0" on="1"/>
        <pt x="435" y="292" on="1"/>
        <pt x="241" y="292" on="1"/>
        <pt x="241" y="0" on="1"/>
        <pt x="64" y="0" on="1"/>
        <pt x="64" y="498" on="1"/>
        <pt x="9" y="498" on="1"/>
        <pt x="9" y="595" on="1"/>
        <pt x="64" y="595" on="1"/>
        <pt x="64" y="694" on="1"/>
        <pt x="241" y="694" on="1"/>
        <pt x="241" y="595" on="1"/>
        <pt x="435" y="595" on="1"/>
        <pt x="435" y="694" on="1"/>
        <pt x="611" y="694" on="1"/>
        <pt x="611" y="595" on="1"/>
        <pt x="666" y="595" on="1"/>
      </contour>
      <contour>
        <pt x="435" y="498" on="1"/>
        <pt x="241" y="498" on="1"/>
        <pt x="241" y="429" on="1"/>
        <pt x="435" y="429" on="1"/>
      </contour>
    </TTGlyph>
    <TTGlyph name="Hcircumflex" xMin="58" yMin="0" xMax="605" yMax="955">
      <component glyphName="H" x="0" y="0" flags="0x0"/>
      <component glyphName="uni0302.case" x="556" y="0" flags="0x0"/>
    </TTGlyph>
    <TTGlyph name="I" xMin="58" yMin="0" xMax="235" yMax="694">
      <contour>
        <pt x="235" y="0" on="1"/>
        <pt x="58" y="0" on="1"/>
        <pt x="58" y="694" on="1"/>
        <pt x="235" y="694" on="1"/>
      </contour>
    </TTGlyph>
    <TTGlyph name="IJ" xMin="58" yMin="-175" xMax="557" yMax="694">
      <component glyphName="I" x="0" y="0" flags="0x0"/>
      <component glyphName="J" x="293" y="0" flags="0x0"/>
    </TTGlyph>
    <TTGlyph name="Iacute" xMin="3" yMin="0" xMax="290" yMax="965">
      <component glyphName="I" x="0" y="0" flags="0x0"/>
      <component glyphName="acutecomb.case" x="326" y="0" flags="0x0"/>
    </TTGlyph>
    <TTGlyph name="Ibreve" xMin="-30" yMin="0" xMax="322" yMax="934">
      <component glyphName="I" x="0" y="0" flags="0x0"/>
      <component glyphName="uni0306.case" x="352" y="0" flags="0x0"/>
    </TTGlyph>
    <TTGlyph name="Icircumflex" xMin="-48" yMin="0" xMax="340" yMax="955">
      <component glyphName="I" x="0" y="0" flags="0x0"/>
      <component glyphName="uni0302.case" x="370" y="0" flags="0x0"/>
    </TTGlyph>
    <TTGlyph name="Idieresis" xMin="-58" yMin="0" xMax="348" yMax="931">
      <component glyphName="I" x="0" y="0" flags="0x0"/>
      <component glyphName="uni0308.case" x="380" y="0" flags="0x0"/>
    </TTGlyph>
    <TTGlyph name="Idotaccent" xMin="47" yMin="0" xMax="244" yMax="942">
      <component glyphName="I" x="0" y="0" flags="0x0"/>
      <component glyphName="uni0307.case" x="274" y="0" flags="0x0"/>
    </TTGlyph>
    <TTGlyph name="Igrave" xMin="0" yMin="0" xMax="287" yMax="965">
      <component glyphName="I" x="0" y="0" flags="0x0"/>
      <component glyphName="gravecomb.case" x="323" y="0" flags="0x0"/>
    </TTGlyph>
    <TTGlyph name="Imacron" xMin="-10" yMin="0" xMax="301" yMax="896">
      <component glyphName="I" x="0" y="0" flags="0x0"/>
      <component glyphName="uni0304.case" x="331" y="0" flags="0x0"/>
    </TTGlyph>
    <TTGlyph name="Iogonek" xMin="-36" yMin="-248" xMax="235" yMax="694">
      <contour>
        <pt x="235" y="694" on="1"/>
        <pt x="235" y="0" on="1"/>
        <pt x="201" y="0" on="1"/>
        <pt x="84" y="-42" on="0"/>
        <pt x="84" y="-100" on="1"/>
        <pt x="84" y="-145" on="0"/>
        <pt x="136" y="-145" on="1"/>
        <pt x="162" y="-145" on="0"/>
        <pt x="197" y="-137" on="1"/>
        <pt x="186" y="-240" on="1"/>
        <pt x="152" y="-248" on="0"/>
        <pt x="115" y="-248" on="1"/>
        <pt x="48" y="-248" on="0"/>
        <pt x="-36" y="-184" on="0"/>
        <pt x="-36" y="-129" on="1"/>
        <pt x="-36" y="-43" on="0"/>
        <pt x="58" y="9" on="1"/>
        <pt x="58" y="694" on="1"/>
      </contour>
    </TTGlyph>
    <TTGlyph name="Iota" xMin="58" yMin="0" xMax="235" yMax="694">
      <contour>
        <pt x="235" y="0" on="1"/>
        <pt x="58" y="0" on="1"/>
        <pt x="58" y="694" on="1"/>
        <pt x="235" y="694" on="1"/>
      </contour>
    </TTGlyph>
    <TTGlyph name="Iotadieresis" xMin="-58" yMin="0" xMax="348" yMax="931">
      <component glyphName="I" x="0" y="0" flags="0x0"/>
      <component glyphName="uni0308.case" x="380" y="0" flags="0x0"/>
    </TTGlyph>
    <TTGlyph name="Iotatonos" xMin="52" yMin="0" xMax="451" yMax="728">
      <component glyphName="tonos.case" x="0" y="0" flags="0x0"/>
      <component glyphName="I" x="216" y="0" flags="0x0"/>
    </TTGlyph>
    <TTGlyph name="Itilde" xMin="-46" yMin="0" xMax="338" yMax="921">
      <component glyphName="I" x="0" y="0" flags="0x0"/>
      <component glyphName="tildecomb.case" x="367" y="0" flags="0x0"/>
    </TTGlyph>
    <TTGlyph name="J" xMin="-13" yMin="-175" xMax="264" yMax="694">
      <contour>
        <pt x="264" y="107" on="1"/>
        <pt x="264" y="-16" on="0"/>
        <pt x="141" y="-141" on="0"/>
        <pt x="34" y="-175" on="1"/>
        <pt x="-13" y="-50" on="1"/>
        <pt x="30" y="-34" on="0"/>
        <pt x="74" y="11" on="0"/>
        <pt x="88" y="68" on="0"/>
        <pt x="88" y="113" on="1"/>
        <pt x="88" y="694" on="1"/>
        <pt x="264" y="694" on="1"/>
      </contour>
    </TTGlyph>
    <TTGlyph name="Jcircumflex" xMin="-18" yMin="-175" xMax="370" yMax="955">
      <component glyphName="J" x="0" y="0" flags="0x0"/>
      <component glyphName="uni0302.case" x="400" y="0" flags="0x0"/>
    </TTGlyph>
    <TTGlyph name="K" xMin="58" yMin="0" xMax="655" yMax="694">
      <contour>
        <pt x="235" y="0" on="1"/>
        <pt x="58" y="0" on="1"/>
        <pt x="58" y="694" on="1"/>
        <pt x="235" y="694" on="1"/>
      </contour>
      <contour>
        <pt x="423" y="384" on="1"/>
        <pt x="655" y="0" on="1"/>
        <pt x="452" y="0" on="1"/>
        <pt x="240" y="370" on="1"/>
        <pt x="452" y="694" on="1"/>
        <pt x="637" y="694" on="1"/>
      </contour>
    </TTGlyph>
    <TTGlyph name="Kappa" xMin="58" yMin="0" xMax="655" yMax="694">
      <component glyphName="K" x="0" y="0" flags="0x0"/>
    </TTGlyph>
    <TTGlyph name="Kcommaaccent" xMin="58" yMin="-330" xMax="655" yMax="694">
      <component glyphName="K" x="0" y="0" flags="0x0"/>
      <component glyphName="uni0326.case" x="439" y="0" flags="0x0"/>
    </TTGlyph>
    <TTGlyph name="L" xMin="58" yMin="0" xMax="503" yMax="694">
      <contour>
        <pt x="235" y="138" on="1"/>
        <pt x="503" y="138" on="1"/>
        <pt x="485" y="0" on="1"/>
        <pt x="58" y="0" on="1"/>
        <pt x="58" y="694" on="1"/>
        <pt x="235" y="694" on="1"/>
      </contour>
    </TTGlyph>
    <TTGlyph name="Lacute" xMin="3" yMin="0" xMax="503" yMax="965">
      <component glyphName="L" x="0" y="0" flags="0x0"/>
      <component glyphName="acutecomb.case" x="326" y="0" flags="0x0"/>
    </TTGlyph>
    <TTGlyph name="Lambda" xMin="-17" yMin="0" xMax="610" yMax="694">
      <contour>
        <pt x="610" y="0" on="1"/>
        <pt x="424" y="0" on="1"/>
        <pt x="295" y="567" on="1"/>
        <pt x="167" y="0" on="1"/>
        <pt x="-17" y="0" on="1"/>
        <pt x="191" y="694" on="1"/>
        <pt x="404" y="694" on="1"/>
      </contour>
    </TTGlyph>
    <TTGlyph name="Lcaron" xMin="58" yMin="0" xMax="503" yMax="712">
      <component glyphName="L" x="0" y="0" flags="0x0"/>
      <component glyphName="caron.alt" x="210" y="0" flags="0x0"/>
    </TTGlyph>
    <TTGlyph name="Lcommaaccent" xMin="58" yMin="-330" xMax="503" yMax="694">
      <component glyphName="L" x="0" y="0" flags="0x0"/>
      <component glyphName="uni0326.case" x="385" y="0" flags="0x0"/>
    </TTGlyph>
    <TTGlyph name="Ldot" xMin="58" yMin="0" xMax="503" yMax="694">
      <component glyphName="L" x="0" y="0" flags="0x0"/>
      <component glyphName="uni0307" x="529" y="-320" flags="0x0"/>
    </TTGlyph>
    <TTGlyph name="Lslash" xMin="6" yMin="0" xMax="547" yMax="694">
      <contour>
        <pt x="547" y="138" on="1"/>
        <pt x="529" y="0" on="1"/>
        <pt x="102" y="0" on="1"/>
        <pt x="102" y="219" on="1"/>
        <pt x="62" y="194" on="1"/>
        <pt x="6" y="286" on="1"/>
        <pt x="102" y="345" on="1"/>
        <pt x="102" y="694" on="1"/>
        <pt x="279" y="694" on="1"/>
        <pt x="279" y="455" on="1"/>
        <pt x="400" y="530" on="1"/>
        <pt x="458" y="439" on="1"/>
        <pt x="279" y="328" on="1"/>
        <pt x="279" y="138" on="1"/>
      </contour>
    </TTGlyph>
    <TTGlyph name="M" xMin="27" yMin="0" xMax="760" yMax="694">
      <contour>
        <pt x="760" y="0" on="1"/>
        <pt x="586" y="0" on="1"/>
        <pt x="576" y="264" on="1"/>
        <pt x="573" y="339" on="0"/>
        <pt x="573" y="415" on="1"/>
        <pt x="573" y="490" on="0"/>
        <pt x="577" y="547" on="1"/>
        <pt x="477" y="72" on="1"/>
        <pt x="310" y="72" on="1"/>
        <pt x="204" y="547" on="1"/>
        <pt x="212" y="433" on="0"/>
        <pt x="212" y="356" on="1"/>
        <pt x="212" y="327" on="0"/>
        <pt x="210" y="263" on="1"/>
        <pt x="201" y="0" on="1"/>
        <pt x="27" y="0" on="1"/>
        <pt x="79" y="694" on="1"/>
        <pt x="300" y="694" on="1"/>
        <pt x="397" y="230" on="1"/>
        <pt x="487" y="694" on="1"/>
        <pt x="708" y="694" on="1"/>
      </contour>
    </TTGlyph>
    <TTGlyph name="Mu" xMin="27" yMin="0" xMax="760" yMax="694">
      <component glyphName="M" x="0" y="0" flags="0x0"/>
    </TTGlyph>
    <TTGlyph name="N" xMin="58" yMin="0" xMax="601" yMax="694">
      <contour>
        <pt x="601" y="0" on="1"/>
        <pt x="378" y="0" on="1"/>
        <pt x="192" y="528" on="1"/>
        <pt x="203" y="451" on="0"/>
        <pt x="215" y="326" on="0"/>
        <pt x="215" y="242" on="1"/>
        <pt x="215" y="0" on="1"/>
        <pt x="58" y="0" on="1"/>
        <pt x="58" y="694" on="1"/>
        <pt x="277" y="694" on="1"/>
        <pt x="468" y="164" on="1"/>
        <pt x="457" y="235" on="0"/>
        <pt x="444" y="355" on="0"/>
        <pt x="444" y="431" on="1"/>
        <pt x="444" y="694" on="1"/>
        <pt x="601" y="694" on="1"/>
      </contour>
    </TTGlyph>
    <TTGlyph name="Nacute" xMin="58" yMin="0" xMax="601" yMax="965">
      <component glyphName="N" x="0" y="0" flags="0x0"/>
      <component glyphName="acutecomb.case" x="513" y="0" flags="0x0"/>
    </TTGlyph>
    <TTGlyph name="Nacute.loclPLK" xMin="58" yMin="0" xMax="601" yMax="972">
      <component glyphName="N" x="0" y="0" flags="0x0"/>
      <component glyphName="acute.case.loclPLK" x="159" y="0" flags="0x0"/>
    </TTGlyph>
    <TTGlyph name="Ncaron" xMin="58" yMin="0" xMax="601" yMax="950">
      <component glyphName="N" x="0" y="0" flags="0x0"/>
      <component glyphName="uni030C.case" x="557" y="0" flags="0x0"/>
    </TTGlyph>
    <TTGlyph name="Ncommaaccent" xMin="58" yMin="-330" xMax="601" yMax="694">
      <component glyphName="N" x="0" y="0" flags="0x0"/>
      <component glyphName="uni0326.case" x="444" y="0" flags="0x0"/>
    </TTGlyph>
    <TTGlyph name="Ntilde" xMin="58" yMin="0" xMax="601" yMax="921">
      <component glyphName="N" x="0" y="0" flags="0x0"/>
      <component glyphName="tildecomb.case" x="554" y="0" flags="0x0"/>
    </TTGlyph>
    <TTGlyph name="Nu" xMin="58" yMin="0" xMax="601" yMax="694">
      <component glyphName="N" x="0" y="0" flags="0x0"/>
    </TTGlyph>
    <TTGlyph name="O" xMin="29" yMin="-18" xMax="661" yMax="712">
      <contour>
        <pt x="495" y="712" on="0"/>
        <pt x="661" y="521" on="0"/>
        <pt x="661" y="348" on="1"/>
        <pt x="661" y="235" on="0"/>
        <pt x="586" y="70" on="0"/>
        <pt x="444" y="-18" on="0"/>
        <pt x="345" y="-18" on="1"/>
        <pt x="196" y="-18" on="0"/>
        <pt x="29" y="174" on="0"/>
        <pt x="29" y="347" on="1"/>
        <pt x="29" y="460" on="0"/>
        <pt x="104" y="624" on="0"/>
        <pt x="246" y="712" on="0"/>
        <pt x="345" y="712" on="1"/>
      </contour>
      <contour>
        <pt x="278" y="584" on="0"/>
        <pt x="213" y="473" on="0"/>
        <pt x="213" y="347" on="1"/>
        <pt x="213" y="222" on="0"/>
        <pt x="278" y="110" on="0"/>
        <pt x="345" y="110" on="1"/>
        <pt x="414" y="110" on="0"/>
        <pt x="477" y="221" on="0"/>
        <pt x="477" y="348" on="1"/>
        <pt x="477" y="473" on="0"/>
        <pt x="413" y="584" on="0"/>
        <pt x="345" y="584" on="1"/>
      </contour>
    </TTGlyph>
    <TTGlyph name="OE" xMin="29" yMin="-18" xMax="875" yMax="712">
      <contour>
        <pt x="626" y="194" on="0"/>
        <pt x="575" y="126" on="1"/>
        <pt x="874" y="126" on="1"/>
        <pt x="874" y="0" on="1"/>
        <pt x="427" y="0" on="1"/>
        <pt x="384" y="-18" on="0"/>
        <pt x="329" y="-18" on="1"/>
        <pt x="238" y="-18" on="0"/>
        <pt x="102" y="68" on="0"/>
        <pt x="29" y="233" on="0"/>
        <pt x="29" y="347" on="1"/>
        <pt x="29" y="459" on="0"/>
        <pt x="102" y="624" on="0"/>
        <pt x="238" y="712" on="0"/>
        <pt x="329" y="712" on="1"/>
        <pt x="386" y="712" on="0"/>
        <pt x="430" y="694" on="1"/>
        <pt x="875" y="694" on="1"/>
        <pt x="857" y="569" on="1"/>
        <pt x="578" y="569" on="1"/>
        <pt x="625" y="503" on="0"/>
        <pt x="637" y="414" on="1"/>
        <pt x="827" y="414" on="1"/>
        <pt x="827" y="291" on="1"/>
        <pt x="638" y="291" on="1"/>
      </contour>
      <contour>
        <pt x="397" y="110" on="0"/>
        <pt x="457" y="222" on="0"/>
        <pt x="457" y="348" on="1"/>
        <pt x="457" y="472" on="0"/>
        <pt x="396" y="584" on="0"/>
        <pt x="335" y="584" on="1"/>
        <pt x="275" y="584" on="0"/>
        <pt x="213" y="472" on="0"/>
        <pt x="213" y="347" on="1"/>
        <pt x="213" y="223" on="0"/>
        <pt x="275" y="110" on="0"/>
        <pt x="335" y="110" on="1"/>
      </contour>
    </TTGlyph>
    <TTGlyph name="Oacute" xMin="29" yMin="-18" xMax="661" yMax="965">
      <component glyphName="O" x="0" y="0" flags="0x0"/>
      <component glyphName="acutecomb.case" x="525" y="0" flags="0x0"/>
    </TTGlyph>
    <TTGlyph name="Oacute.loclPLK" xMin="29" yMin="-18" xMax="661" yMax="972">
      <component glyphName="O" x="0" y="0" flags="0x0"/>
      <component glyphName="acute.case.loclPLK" x="171" y="0" flags="0x0"/>
    </TTGlyph>
    <TTGlyph name="Obreve" xMin="29" yMin="-18" xMax="661" yMax="934">
      <component glyphName="O" x="0" y="0" flags="0x0"/>
      <component glyphName="uni0306.case" x="551" y="0" flags="0x0"/>
    </TTGlyph>
    <TTGlyph name="Ocircumflex" xMin="29" yMin="-18" xMax="661" yMax="955">
      <component glyphName="O" x="0" y="0" flags="0x0"/>
      <component glyphName="uni0302.case" x="569" y="0" flags="0x0"/>
    </TTGlyph>
    <TTGlyph name="Odieresis" xMin="29" yMin="-18" xMax="661" yMax="931">
      <component glyphName="O" x="0" y="0" flags="0x0"/>
      <component glyphName="uni0308.case" x="579" y="0" flags="0x0"/>
    </TTGlyph>
    <TTGlyph name="Ograve" xMin="29" yMin="-18" xMax="661" yMax="965">
      <component glyphName="O" x="0" y="0" flags="0x0"/>
      <component glyphName="gravecomb.case" x="522" y="0" flags="0x0"/>
    </TTGlyph>
    <TTGlyph name="Ohorn" xMin="29" yMin="-18" xMax="721" yMax="773">
      <contour>
        <pt x="721" y="634" on="0"/>
        <pt x="667" y="570" on="0"/>
        <pt x="617" y="559" on="1"/>
        <pt x="661" y="473" on="0"/>
        <pt x="661" y="348" on="1"/>
        <pt x="661" y="235" on="0"/>
        <pt x="586" y="70" on="0"/>
        <pt x="444" y="-18" on="0"/>
        <pt x="345" y="-18" on="1"/>
        <pt x="196" y="-18" on="0"/>
        <pt x="29" y="174" on="0"/>
        <pt x="29" y="347" on="1"/>
        <pt x="29" y="460" on="0"/>
        <pt x="104" y="624" on="0"/>
        <pt x="246" y="712" on="0"/>
        <pt x="345" y="712" on="1"/>
        <pt x="480" y="712" on="0"/>
        <pt x="561" y="634" on="1"/>
        <pt x="586" y="637" on="0"/>
        <pt x="608" y="664" on="0"/>
        <pt x="608" y="691" on="1"/>
        <pt x="608" y="711" on="0"/>
        <pt x="601" y="740" on="0"/>
        <pt x="594" y="758" on="1"/>
        <pt x="702" y="773" on="1"/>
        <pt x="721" y="737" on="0"/>
        <pt x="721" y="684" on="1"/>
      </contour>
      <contour>
        <pt x="414" y="110" on="0"/>
        <pt x="477" y="221" on="0"/>
        <pt x="477" y="348" on="1"/>
        <pt x="477" y="473" on="0"/>
        <pt x="413" y="584" on="0"/>
        <pt x="345" y="584" on="1"/>
        <pt x="278" y="584" on="0"/>
        <pt x="213" y="473" on="0"/>
        <pt x="213" y="347" on="1"/>
        <pt x="213" y="222" on="0"/>
        <pt x="278" y="110" on="0"/>
        <pt x="345" y="110" on="1"/>
      </contour>
    </TTGlyph>
    <TTGlyph name="Ohungarumlaut" xMin="29" yMin="-18" xMax="661" yMax="991">
      <component glyphName="O" x="0" y="0" flags="0x0"/>
      <component glyphName="uni030B.case" x="634" y="0" flags="0x0"/>
    </TTGlyph>
    <TTGlyph name="Omacron" xMin="29" yMin="-18" xMax="661" yMax="896">
      <component glyphName="O" x="0" y="0" flags="0x0"/>
      <component glyphName="uni0304.case" x="530" y="0" flags="0x0"/>
    </TTGlyph>
    <TTGlyph name="Omega" xMin="29" yMin="0" xMax="661" yMax="712">
      <contour>
        <pt x="443" y="712" on="0"/>
        <pt x="586" y="626" on="0"/>
        <pt x="661" y="476" on="0"/>
        <pt x="661" y="382" on="1"/>
        <pt x="661" y="201" on="0"/>
        <pt x="526" y="126" on="1"/>
        <pt x="640" y="126" on="1"/>
        <pt x="640" y="0" on="1"/>
        <pt x="380" y="0" on="1"/>
        <pt x="380" y="118" on="1"/>
        <pt x="421" y="137" on="0"/>
        <pt x="463" y="202" on="0"/>
        <pt x="477" y="300" on="0"/>
        <pt x="477" y="382" on="1"/>
        <pt x="477" y="584" on="0"/>
        <pt x="345" y="584" on="1"/>
        <pt x="213" y="584" on="0"/>
        <pt x="213" y="382" on="1"/>
        <pt x="213" y="300" on="0"/>
        <pt x="228" y="201" on="0"/>
        <pt x="270" y="137" on="0"/>
        <pt x="310" y="118" on="1"/>
        <pt x="310" y="0" on="1"/>
        <pt x="50" y="0" on="1"/>
        <pt x="50" y="126" on="1"/>
        <pt x="162" y="126" on="1"/>
        <pt x="29" y="200" on="0"/>
        <pt x="29" y="382" on="1"/>
        <pt x="29" y="475" on="0"/>
        <pt x="105" y="625" on="0"/>
        <pt x="248" y="712" on="0"/>
        <pt x="345" y="712" on="1"/>
      </contour>
    </TTGlyph>
    <TTGlyph name="Omegatonos" xMin="52" yMin="0" xMax="852" yMax="728">
      <component glyphName="tonos.case" x="0" y="0" flags="0x0"/>
      <component glyphName="Omega" x="191" y="0" flags="0x0"/>
    </TTGlyph>
    <TTGlyph name="Omicron" xMin="29" yMin="-18" xMax="661" yMax="712">
      <contour>
        <pt x="495" y="712" on="0"/>
        <pt x="661" y="521" on="0"/>
        <pt x="661" y="348" on="1"/>
        <pt x="661" y="235" on="0"/>
        <pt x="586" y="70" on="0"/>
        <pt x="444" y="-18" on="0"/>
        <pt x="345" y="-18" on="1"/>
        <pt x="196" y="-18" on="0"/>
        <pt x="29" y="174" on="0"/>
        <pt x="29" y="347" on="1"/>
        <pt x="29" y="460" on="0"/>
        <pt x="104" y="624" on="0"/>
        <pt x="246" y="712" on="0"/>
        <pt x="345" y="712" on="1"/>
      </contour>
      <contour>
        <pt x="278" y="584" on="0"/>
        <pt x="213" y="473" on="0"/>
        <pt x="213" y="347" on="1"/>
        <pt x="213" y="222" on="0"/>
        <pt x="278" y="110" on="0"/>
        <pt x="345" y="110" on="1"/>
        <pt x="414" y="110" on="0"/>
        <pt x="477" y="221" on="0"/>
        <pt x="477" y="348" on="1"/>
        <pt x="477" y="473" on="0"/>
        <pt x="413" y="584" on="0"/>
        <pt x="345" y="584" on="1"/>
      </contour>
    </TTGlyph>
    <TTGlyph name="Omicrontonos" xMin="52" yMin="-18" xMax="852" yMax="728">
      <component glyphName="tonos.case" x="0" y="0" flags="0x0"/>
      <component glyphName="O" x="191" y="0" flags="0x0"/>
    </TTGlyph>
    <TTGlyph name="Oslash" xMin="29" yMin="-136" xMax="661" yMax="829">
      <contour>
        <pt x="588" y="624" on="0"/>
        <pt x="661" y="462" on="0"/>
        <pt x="661" y="348" on="1"/>
        <pt x="661" y="235" on="0"/>
        <pt x="586" y="70" on="0"/>
        <pt x="444" y="-18" on="0"/>
        <pt x="345" y="-18" on="1"/>
        <pt x="322" y="-18" on="0"/>
        <pt x="299" y="-15" on="1"/>
        <pt x="262" y="-136" on="1"/>
        <pt x="131" y="-101" on="1"/>
        <pt x="171" y="28" on="1"/>
        <pt x="102" y="71" on="0"/>
        <pt x="29" y="234" on="0"/>
        <pt x="29" y="347" on="1"/>
        <pt x="29" y="460" on="0"/>
        <pt x="104" y="624" on="0"/>
        <pt x="246" y="712" on="0"/>
        <pt x="345" y="712" on="1"/>
        <pt x="361" y="712" on="0"/>
        <pt x="391" y="710" on="1"/>
        <pt x="428" y="829" on="1"/>
        <pt x="560" y="794" on="1"/>
        <pt x="519" y="667" on="1"/>
      </contour>
      <contour>
        <pt x="278" y="584" on="0"/>
        <pt x="213" y="473" on="0"/>
        <pt x="213" y="347" on="1"/>
        <pt x="213" y="215" on="0"/>
        <pt x="244" y="159" on="1"/>
        <pt x="372" y="583" on="1"/>
        <pt x="363" y="584" on="0"/>
        <pt x="345" y="584" on="1"/>
      </contour>
      <contour>
        <pt x="414" y="110" on="0"/>
        <pt x="477" y="221" on="0"/>
        <pt x="477" y="348" on="1"/>
        <pt x="477" y="484" on="0"/>
        <pt x="446" y="536" on="1"/>
        <pt x="319" y="112" on="1"/>
        <pt x="335" y="110" on="0"/>
        <pt x="345" y="110" on="1"/>
      </contour>
    </TTGlyph>
    <TTGlyph name="Oslashacute" xMin="29" yMin="-136" xMax="661" yMax="1002">
      <component glyphName="Oslash" x="0" y="0" flags="0x0"/>
      <component glyphName="acutecomb.case" x="523" y="37" flags="0x0"/>
    </TTGlyph>
    <TTGlyph name="Otilde" xMin="29" yMin="-18" xMax="661" yMax="921">
      <component glyphName="O" x="0" y="0" flags="0x0"/>
      <component glyphName="tildecomb.case" x="566" y="0" flags="0x0"/>
    </TTGlyph>
    <TTGlyph name="P" xMin="58" yMin="0" xMax="584" yMax="694">
      <contour>
        <pt x="430" y="694" on="0"/>
        <pt x="584" y="579" on="0"/>
        <pt x="584" y="466" on="1"/>
        <pt x="584" y="348" on="0"/>
        <pt x="434" y="227" on="0"/>
        <pt x="308" y="227" on="1"/>
        <pt x="235" y="227" on="1"/>
        <pt x="235" y="0" on="1"/>
        <pt x="58" y="0" on="1"/>
        <pt x="58" y="694" on="1"/>
        <pt x="291" y="694" on="1"/>
      </contour>
      <contour>
        <pt x="346" y="353" on="0"/>
        <pt x="402" y="406" on="0"/>
        <pt x="402" y="465" on="1"/>
        <pt x="402" y="518" on="0"/>
        <pt x="346" y="569" on="0"/>
        <pt x="288" y="569" on="1"/>
        <pt x="235" y="569" on="1"/>
        <pt x="235" y="353" on="1"/>
        <pt x="292" y="353" on="1"/>
      </contour>
    </TTGlyph>
    <TTGlyph name="Phi" xMin="13" yMin="0" xMax="836" yMax="694">
      <contour>
        <pt x="836" y="224" on="0"/>
        <pt x="660" y="84" on="0"/>
        <pt x="510" y="77" on="1"/>
        <pt x="510" y="0" on="1"/>
        <pt x="338" y="0" on="1"/>
        <pt x="338" y="77" on="1"/>
        <pt x="188" y="85" on="0"/>
        <pt x="13" y="222" on="0"/>
        <pt x="13" y="345" on="1"/>
        <pt x="13" y="470" on="0"/>
        <pt x="189" y="609" on="0"/>
        <pt x="338" y="616" on="1"/>
        <pt x="338" y="694" on="1"/>
        <pt x="510" y="694" on="1"/>
        <pt x="510" y="616" on="1"/>
        <pt x="661" y="608" on="0"/>
        <pt x="836" y="472" on="0"/>
        <pt x="836" y="350" on="1"/>
      </contour>
      <contour>
        <pt x="582" y="187" on="0"/>
        <pt x="657" y="277" on="0"/>
        <pt x="657" y="350" on="1"/>
        <pt x="657" y="422" on="0"/>
        <pt x="581" y="507" on="0"/>
        <pt x="502" y="513" on="1"/>
        <pt x="502" y="180" on="1"/>
      </contour>
      <contour>
        <pt x="192" y="272" on="0"/>
        <pt x="268" y="187" on="0"/>
        <pt x="346" y="180" on="1"/>
        <pt x="346" y="513" on="1"/>
        <pt x="192" y="499" on="0"/>
        <pt x="192" y="345" on="1"/>
      </contour>
    </TTGlyph>
    <TTGlyph name="Pi" xMin="58" yMin="0" xMax="604" yMax="694">
      <component glyphName="uni041F" x="0" y="0" flags="0x0"/>
    </TTGlyph>
    <TTGlyph name="Psi" xMin="17" yMin="0" xMax="717" yMax="694">
      <contour>
        <pt x="717" y="694" on="1"/>
        <pt x="717" y="430" on="1"/>
        <pt x="717" y="327" on="0"/>
        <pt x="584" y="197" on="0"/>
        <pt x="455" y="181" on="1"/>
        <pt x="455" y="0" on="1"/>
        <pt x="278" y="0" on="1"/>
        <pt x="278" y="180" on="1"/>
        <pt x="147" y="197" on="0"/>
        <pt x="17" y="325" on="0"/>
        <pt x="17" y="430" on="1"/>
        <pt x="17" y="694" on="1"/>
        <pt x="186" y="694" on="1"/>
        <pt x="186" y="425" on="1"/>
        <pt x="186" y="371" on="0"/>
        <pt x="232" y="311" on="0"/>
        <pt x="286" y="300" on="1"/>
        <pt x="286" y="694" on="1"/>
        <pt x="447" y="694" on="1"/>
        <pt x="447" y="301" on="1"/>
        <pt x="500" y="312" on="0"/>
        <pt x="548" y="372" on="0"/>
        <pt x="548" y="425" on="1"/>
        <pt x="548" y="694" on="1"/>
      </contour>
    </TTGlyph>
    <TTGlyph name="Q" xMin="29" yMin="-155" xMax="706" yMax="712">
      <contour>
        <pt x="564" y="46" on="0"/>
        <pt x="661" y="15" on="0"/>
        <pt x="706" y="-17" on="1"/>
        <pt x="600" y="-155" on="1"/>
        <pt x="545" y="-89" on="0"/>
        <pt x="423" y="-14" on="0"/>
        <pt x="334" y="-14" on="1"/>
        <pt x="240" y="-14" on="0"/>
        <pt x="103" y="71" on="0"/>
        <pt x="29" y="233" on="0"/>
        <pt x="29" y="347" on="1"/>
        <pt x="29" y="460" on="0"/>
        <pt x="104" y="624" on="0"/>
        <pt x="246" y="712" on="0"/>
        <pt x="345" y="712" on="1"/>
        <pt x="495" y="712" on="0"/>
        <pt x="661" y="521" on="0"/>
        <pt x="661" y="348" on="1"/>
        <pt x="661" y="138" on="0"/>
        <pt x="497" y="46" on="1"/>
      </contour>
      <contour>
        <pt x="213" y="222" on="0"/>
        <pt x="278" y="110" on="0"/>
        <pt x="345" y="110" on="1"/>
        <pt x="414" y="110" on="0"/>
        <pt x="477" y="221" on="0"/>
        <pt x="477" y="348" on="1"/>
        <pt x="477" y="473" on="0"/>
        <pt x="413" y="584" on="0"/>
        <pt x="345" y="584" on="1"/>
        <pt x="278" y="584" on="0"/>
        <pt x="213" y="473" on="0"/>
        <pt x="213" y="347" on="1"/>
      </contour>
    </TTGlyph>
    <TTGlyph name="R" xMin="58" yMin="0" xMax="627" yMax="694">
      <contour>
        <pt x="291" y="260" on="1"/>
        <pt x="235" y="260" on="1"/>
        <pt x="235" y="0" on="1"/>
        <pt x="58" y="0" on="1"/>
        <pt x="58" y="694" on="1"/>
        <pt x="294" y="694" on="1"/>
        <pt x="439" y="694" on="0"/>
        <pt x="583" y="589" on="0"/>
        <pt x="583" y="480" on="1"/>
        <pt x="583" y="414" on="0"/>
        <pt x="520" y="326" on="0"/>
        <pt x="453" y="292" on="1"/>
        <pt x="627" y="0" on="1"/>
        <pt x="429" y="0" on="1"/>
      </contour>
      <contour>
        <pt x="235" y="380" on="1"/>
        <pt x="300" y="380" on="1"/>
        <pt x="402" y="380" on="0"/>
        <pt x="402" y="480" on="1"/>
        <pt x="402" y="527" on="0"/>
        <pt x="346" y="571" on="0"/>
        <pt x="290" y="571" on="1"/>
        <pt x="235" y="571" on="1"/>
      </contour>
    </TTGlyph>
    <TTGlyph name="Racute" xMin="58" yMin="0" xMax="627" yMax="965">
      <component glyphName="R" x="0" y="0" flags="0x0"/>
      <component glyphName="acutecomb.case" x="488" y="0" flags="0x0"/>
    </TTGlyph>
    <TTGlyph name="Rcaron" xMin="58" yMin="0" xMax="627" yMax="950">
      <component glyphName="R" x="0" y="0" flags="0x0"/>
      <component glyphName="uni030C.case" x="533" y="0" flags="0x0"/>
    </TTGlyph>
    <TTGlyph name="Rcommaaccent" xMin="58" yMin="-330" xMax="627" yMax="694">
      <component glyphName="R" x="0" y="0" flags="0x0"/>
      <component glyphName="uni0326.case" x="425" y="0" flags="0x0"/>
    </TTGlyph>
    <TTGlyph name="Rho" xMin="58" yMin="0" xMax="584" yMax="694">
      <contour>
        <pt x="430" y="694" on="0"/>
        <pt x="584" y="579" on="0"/>
        <pt x="584" y="466" on="1"/>
        <pt x="584" y="348" on="0"/>
        <pt x="434" y="227" on="0"/>
        <pt x="308" y="227" on="1"/>
        <pt x="235" y="227" on="1"/>
        <pt x="235" y="0" on="1"/>
        <pt x="58" y="0" on="1"/>
        <pt x="58" y="694" on="1"/>
        <pt x="291" y="694" on="1"/>
      </contour>
      <contour>
        <pt x="346" y="353" on="0"/>
        <pt x="402" y="406" on="0"/>
        <pt x="402" y="465" on="1"/>
        <pt x="402" y="518" on="0"/>
        <pt x="346" y="569" on="0"/>
        <pt x="288" y="569" on="1"/>
        <pt x="235" y="569" on="1"/>
        <pt x="235" y="353" on="1"/>
        <pt x="292" y="353" on="1"/>
      </contour>
    </TTGlyph>
    <TTGlyph name="S" xMin="7" yMin="-18" xMax="555" yMax="712">
      <contour>
        <pt x="370" y="712" on="0"/>
        <pt x="489" y="666" on="0"/>
        <pt x="537" y="621" on="1"/>
        <pt x="456" y="527" on="1"/>
        <pt x="384" y="584" on="0"/>
        <pt x="305" y="584" on="1"/>
        <pt x="263" y="584" on="0"/>
        <pt x="217" y="551" on="0"/>
        <pt x="217" y="521" on="1"/>
        <pt x="217" y="500" on="0"/>
        <pt x="239" y="473" on="0"/>
        <pt x="293" y="448" on="0"/>
        <pt x="349" y="430" on="1"/>
        <pt x="455" y="397" on="0"/>
        <pt x="555" y="295" on="0"/>
        <pt x="555" y="204" on="1"/>
        <pt x="555" y="138" on="0"/>
        <pt x="488" y="38" on="0"/>
        <pt x="360" y="-18" on="0"/>
        <pt x="274" y="-18" on="1"/>
        <pt x="112" y="-18" on="0"/>
        <pt x="7" y="83" on="1"/>
        <pt x="95" y="180" on="1"/>
        <pt x="174" y="112" on="0"/>
        <pt x="268" y="112" on="1"/>
        <pt x="317" y="112" on="0"/>
        <pt x="371" y="154" on="0"/>
        <pt x="371" y="190" on="1"/>
        <pt x="371" y="215" on="0"/>
        <pt x="351" y="248" on="0"/>
        <pt x="299" y="275" on="0"/>
        <pt x="249" y="290" on="1"/>
        <pt x="132" y="326" on="0"/>
        <pt x="35" y="429" on="0"/>
        <pt x="35" y="508" on="1"/>
        <pt x="35" y="569" on="0"/>
        <pt x="101" y="662" on="0"/>
        <pt x="218" y="712" on="0"/>
        <pt x="291" y="712" on="1"/>
      </contour>
    </TTGlyph>
    <TTGlyph name="Sacute" xMin="7" yMin="-18" xMax="555" yMax="965">
      <component glyphName="S" x="0" y="0" flags="0x0"/>
      <component glyphName="acutecomb.case" x="478" y="0" flags="0x0"/>
    </TTGlyph>
    <TTGlyph name="Sacute.loclPLK" xMin="7" yMin="-18" xMax="555" yMax="972">
      <component glyphName="S" x="0" y="0" flags="0x0"/>
      <component glyphName="acute.case.loclPLK" x="124" y="0" flags="0x0"/>
    </TTGlyph>
    <TTGlyph name="Scaron" xMin="7" yMin="-18" xMax="555" yMax="950">
      <component glyphName="S" x="0" y="0" flags="0x0"/>
      <component glyphName="uni030C.case" x="523" y="0" flags="0x0"/>
    </TTGlyph>
    <TTGlyph name="Scedilla" xMin="7" yMin="-266" xMax="555" yMax="712">
      <contour>
        <pt x="555" y="116" on="0"/>
        <pt x="436" y="-2" on="0"/>
        <pt x="330" y="-15" on="1"/>
        <pt x="330" y="-46" on="1"/>
        <pt x="383" y="-53" on="0"/>
        <pt x="435" y="-105" on="0"/>
        <pt x="435" y="-148" on="1"/>
        <pt x="435" y="-201" on="0"/>
        <pt x="352" y="-266" on="0"/>
        <pt x="282" y="-266" on="1"/>
        <pt x="248" y="-266" on="0"/>
        <pt x="187" y="-249" on="0"/>
        <pt x="166" y="-235" on="1"/>
        <pt x="204" y="-158" on="1"/>
        <pt x="238" y="-175" on="0"/>
        <pt x="268" y="-175" on="1"/>
        <pt x="314" y="-175" on="0"/>
        <pt x="314" y="-147" on="1"/>
        <pt x="314" y="-130" on="0"/>
        <pt x="270" y="-114" on="0"/>
        <pt x="222" y="-114" on="1"/>
        <pt x="234" y="-16" on="1"/>
        <pt x="97" y="-5" on="0"/>
        <pt x="7" y="83" on="1"/>
        <pt x="95" y="180" on="1"/>
        <pt x="174" y="112" on="0"/>
        <pt x="268" y="112" on="1"/>
        <pt x="317" y="112" on="0"/>
        <pt x="371" y="154" on="0"/>
        <pt x="371" y="190" on="1"/>
        <pt x="371" y="215" on="0"/>
        <pt x="351" y="248" on="0"/>
        <pt x="299" y="275" on="0"/>
        <pt x="249" y="290" on="1"/>
        <pt x="132" y="326" on="0"/>
        <pt x="35" y="429" on="0"/>
        <pt x="35" y="508" on="1"/>
        <pt x="35" y="569" on="0"/>
        <pt x="101" y="662" on="0"/>
        <pt x="218" y="712" on="0"/>
        <pt x="291" y="712" on="1"/>
        <pt x="370" y="712" on="0"/>
        <pt x="489" y="666" on="0"/>
        <pt x="537" y="621" on="1"/>
        <pt x="456" y="527" on="1"/>
        <pt x="384" y="584" on="0"/>
        <pt x="305" y="584" on="1"/>
        <pt x="263" y="584" on="0"/>
        <pt x="217" y="551" on="0"/>
        <pt x="217" y="521" on="1"/>
        <pt x="217" y="500" on="0"/>
        <pt x="239" y="473" on="0"/>
        <pt x="293" y="448" on="0"/>
        <pt x="349" y="430" on="1"/>
        <pt x="455" y="397" on="0"/>
        <pt x="555" y="295" on="0"/>
        <pt x="555" y="204" on="1"/>
      </contour>
    </TTGlyph>
    <TTGlyph name="Scircumflex" xMin="7" yMin="-18" xMax="555" yMax="955">
      <component glyphName="S" x="0" y="0" flags="0x0"/>
      <component glyphName="uni0302.case" x="523" y="0" flags="0x0"/>
    </TTGlyph>
    <TTGlyph name="Scommaaccent" xMin="7" yMin="-330" xMax="555" yMax="712">
      <component glyphName="S" x="0" y="0" flags="0x0"/>
      <component glyphName="uni0326.case" x="400" y="0" flags="0x0"/>
    </TTGlyph>
    <TTGlyph name="Sigma" xMin="18" yMin="0" xMax="485" yMax="694">
      <contour>
        <pt x="485" y="567" on="1"/>
        <pt x="212" y="567" on="1"/>
        <pt x="374" y="375" on="1"/>
        <pt x="374" y="309" on="1"/>
        <pt x="210" y="130" on="1"/>
        <pt x="485" y="130" on="1"/>
        <pt x="485" y="0" on="1"/>
        <pt x="18" y="0" on="1"/>
        <pt x="18" y="127" on="1"/>
        <pt x="205" y="340" on="1"/>
        <pt x="18" y="568" on="1"/>
        <pt x="18" y="694" on="1"/>
        <pt x="485" y="694" on="1"/>
      </contour>
    </TTGlyph>
    <TTGlyph name="T" xMin="8" yMin="0" xMax="545" yMax="694">
      <contour>
        <pt x="527" y="559" on="1"/>
        <pt x="360" y="559" on="1"/>
        <pt x="360" y="0" on="1"/>
        <pt x="184" y="0" on="1"/>
        <pt x="184" y="559" on="1"/>
        <pt x="8" y="559" on="1"/>
        <pt x="8" y="694" on="1"/>
        <pt x="545" y="694" on="1"/>
      </contour>
    </TTGlyph>
    <TTGlyph name="Tau" xMin="8" yMin="0" xMax="545" yMax="694">
      <component glyphName="T" x="0" y="0" flags="0x0"/>
    </TTGlyph>
    <TTGlyph name="Tbar" xMin="8" yMin="-1" xMax="545" yMax="694">
      <contour>
        <pt x="360" y="559" on="1"/>
        <pt x="360" y="390" on="1"/>
        <pt x="474" y="390" on="1"/>
        <pt x="474" y="293" on="1"/>
        <pt x="360" y="293" on="1"/>
        <pt x="360" y="-1" on="1"/>
        <pt x="184" y="-1" on="1"/>
        <pt x="184" y="293" on="1"/>
        <pt x="70" y="293" on="1"/>
        <pt x="70" y="390" on="1"/>
        <pt x="184" y="390" on="1"/>
        <pt x="184" y="559" on="1"/>
        <pt x="8" y="559" on="1"/>
        <pt x="8" y="694" on="1"/>
        <pt x="545" y="694" on="1"/>
        <pt x="527" y="559" on="1"/>
      </contour>
    </TTGlyph>
    <TTGlyph name="Tcaron" xMin="8" yMin="0" xMax="545" yMax="950">
      <component glyphName="T" x="0" y="0" flags="0x0"/>
      <component glyphName="uni030C.case" x="496" y="0" flags="0x0"/>
    </TTGlyph>
    <TTGlyph name="Theta" xMin="29" yMin="-18" xMax="661" yMax="712">
      <contour>
        <pt x="495" y="712" on="0"/>
        <pt x="661" y="521" on="0"/>
        <pt x="661" y="348" on="1"/>
        <pt x="661" y="235" on="0"/>
        <pt x="586" y="70" on="0"/>
        <pt x="444" y="-18" on="0"/>
        <pt x="345" y="-18" on="1"/>
        <pt x="196" y="-18" on="0"/>
        <pt x="29" y="174" on="0"/>
        <pt x="29" y="347" on="1"/>
        <pt x="29" y="460" on="0"/>
        <pt x="104" y="624" on="0"/>
        <pt x="246" y="712" on="0"/>
        <pt x="345" y="712" on="1"/>
      </contour>
      <contour>
        <pt x="272" y="584" on="0"/>
        <pt x="203" y="473" on="0"/>
        <pt x="203" y="347" on="1"/>
        <pt x="203" y="221" on="0"/>
        <pt x="273" y="110" on="0"/>
        <pt x="345" y="110" on="1"/>
        <pt x="419" y="110" on="0"/>
        <pt x="487" y="221" on="0"/>
        <pt x="487" y="348" on="1"/>
        <pt x="487" y="474" on="0"/>
        <pt x="418" y="584" on="0"/>
        <pt x="345" y="584" on="1"/>
      </contour>
      <contour>
        <pt x="443" y="303" on="1"/>
        <pt x="247" y="303" on="1"/>
        <pt x="247" y="401" on="1"/>
        <pt x="443" y="401" on="1"/>
      </contour>
    </TTGlyph>
    <TTGlyph name="Thorn" xMin="58" yMin="0" xMax="584" yMax="694">
      <contour>
        <pt x="430" y="587" on="0"/>
        <pt x="584" y="471" on="0"/>
        <pt x="584" y="357" on="1"/>
        <pt x="584" y="235" on="0"/>
        <pt x="434" y="112" on="0"/>
        <pt x="308" y="112" on="1"/>
        <pt x="235" y="112" on="1"/>
        <pt x="235" y="0" on="1"/>
        <pt x="58" y="0" on="1"/>
        <pt x="58" y="694" on="1"/>
        <pt x="235" y="694" on="1"/>
        <pt x="235" y="587" on="1"/>
        <pt x="291" y="587" on="1"/>
      </contour>
      <contour>
        <pt x="347" y="238" on="0"/>
        <pt x="402" y="294" on="0"/>
        <pt x="402" y="357" on="1"/>
        <pt x="402" y="410" on="0"/>
        <pt x="346" y="462" on="0"/>
        <pt x="288" y="462" on="1"/>
        <pt x="235" y="462" on="1"/>
        <pt x="235" y="238" on="1"/>
        <pt x="292" y="238" on="1"/>
      </contour>
    </TTGlyph>
    <TTGlyph name="U" xMin="48" yMin="-18" xMax="601" yMax="694">
      <contour>
        <pt x="601" y="232" on="1"/>
        <pt x="601" y="160" on="0"/>
        <pt x="538" y="47" on="0"/>
        <pt x="414" y="-18" on="0"/>
        <pt x="324" y="-18" on="1"/>
        <pt x="189" y="-18" on="0"/>
        <pt x="48" y="117" on="0"/>
        <pt x="48" y="232" on="1"/>
        <pt x="48" y="694" on="1"/>
        <pt x="225" y="694" on="1"/>
        <pt x="225" y="238" on="1"/>
        <pt x="225" y="173" on="0"/>
        <pt x="272" y="112" on="0"/>
        <pt x="324" y="112" on="1"/>
        <pt x="376" y="112" on="0"/>
        <pt x="424" y="174" on="0"/>
        <pt x="424" y="238" on="1"/>
        <pt x="424" y="694" on="1"/>
        <pt x="601" y="694" on="1"/>
      </contour>
    </TTGlyph>
    <TTGlyph name="Uacute" xMin="48" yMin="-18" xMax="601" yMax="965">
      <component glyphName="U" x="0" y="0" flags="0x0"/>
      <component glyphName="acutecomb.case" x="504" y="0" flags="0x0"/>
    </TTGlyph>
    <TTGlyph name="Ubreve" xMin="48" yMin="-18" xMax="601" yMax="934">
      <component glyphName="U" x="0" y="0" flags="0x0"/>
      <component glyphName="uni0306.case" x="530" y="0" flags="0x0"/>
    </TTGlyph>
    <TTGlyph name="Ucircumflex" xMin="48" yMin="-18" xMax="601" yMax="955">
      <component glyphName="U" x="0" y="0" flags="0x0"/>
      <component glyphName="uni0302.case" x="548" y="0" flags="0x0"/>
    </TTGlyph>
    <TTGlyph name="Udieresis" xMin="48" yMin="-18" xMax="601" yMax="931">
      <component glyphName="U" x="0" y="0" flags="0x0"/>
      <component glyphName="uni0308.case" x="558" y="0" flags="0x0"/>
    </TTGlyph>
    <TTGlyph name="Ugrave" xMin="48" yMin="-18" xMax="601" yMax="965">
      <component glyphName="U" x="0" y="0" flags="0x0"/>
      <component glyphName="gravecomb.case" x="501" y="0" flags="0x0"/>
    </TTGlyph>
    <TTGlyph name="Uhorn" xMin="48" yMin="-18" xMax="754" yMax="773">
      <component glyphName="U" x="0" y="0" flags="0x0"/>
      <component glyphName="uni031B.case" x="784" y="0" flags="0x0"/>
    </TTGlyph>
    <TTGlyph name="Uhungarumlaut" xMin="48" yMin="-18" xMax="601" yMax="991">
      <component glyphName="U" x="0" y="0" flags="0x0"/>
      <component glyphName="uni030B.case" x="613" y="0" flags="0x0"/>
    </TTGlyph>
    <TTGlyph name="Umacron" xMin="48" yMin="-18" xMax="601" yMax="896">
      <component glyphName="U" x="0" y="0" flags="0x0"/>
      <component glyphName="uni0304.case" x="509" y="0" flags="0x0"/>
    </TTGlyph>
    <TTGlyph name="Uogonek" xMin="48" yMin="-248" xMax="601" yMax="694">
      <contour>
        <pt x="601" y="694" on="1"/>
        <pt x="601" y="232" on="1"/>
        <pt x="601" y="150" on="0"/>
        <pt x="520" y="27" on="0"/>
        <pt x="442" y="0" on="1"/>
        <pt x="325" y="-42" on="0"/>
        <pt x="325" y="-100" on="1"/>
        <pt x="325" y="-145" on="0"/>
        <pt x="377" y="-145" on="1"/>
        <pt x="403" y="-145" on="0"/>
        <pt x="438" y="-137" on="1"/>
        <pt x="427" y="-240" on="1"/>
        <pt x="393" y="-248" on="0"/>
        <pt x="356" y="-248" on="1"/>
        <pt x="289" y="-248" on="0"/>
        <pt x="205" y="-184" on="0"/>
        <pt x="205" y="-129" on="1"/>
        <pt x="205" y="-57" on="0"/>
        <pt x="286" y="-16" on="1"/>
        <pt x="169" y="-7" on="0"/>
        <pt x="48" y="126" on="0"/>
        <pt x="48" y="232" on="1"/>
        <pt x="48" y="694" on="1"/>
        <pt x="225" y="694" on="1"/>
        <pt x="225" y="238" on="1"/>
        <pt x="225" y="173" on="0"/>
        <pt x="272" y="112" on="0"/>
        <pt x="324" y="112" on="1"/>
        <pt x="376" y="112" on="0"/>
        <pt x="424" y="174" on="0"/>
        <pt x="424" y="238" on="1"/>
        <pt x="424" y="694" on="1"/>
      </contour>
    </TTGlyph>
    <TTGlyph name="Upsilon" xMin="-10" yMin="0" xMax="611" yMax="694">
      <contour>
        <pt x="389" y="259" on="1"/>
        <pt x="389" y="0" on="1"/>
        <pt x="212" y="0" on="1"/>
        <pt x="212" y="258" on="1"/>
        <pt x="-10" y="694" on="1"/>
        <pt x="184" y="694" on="1"/>
        <pt x="304" y="395" on="1"/>
        <pt x="425" y="694" on="1"/>
        <pt x="611" y="694" on="1"/>
      </contour>
    </TTGlyph>
    <TTGlyph name="Upsilondieresis" xMin="-10" yMin="0" xMax="611" yMax="931">
      <component glyphName="Y" x="0" y="0" flags="0x0"/>
      <component glyphName="uni0308.case" x="535" y="0" flags="0x0"/>
    </TTGlyph>
    <TTGlyph name="Upsilontonos" xMin="52" yMin="0" xMax="877" yMax="728">
      <component glyphName="tonos.case" x="0" y="0" flags="0x0"/>
      <component glyphName="Y" x="266" y="0" flags="0x0"/>
    </TTGlyph>
    <TTGlyph name="Uring" xMin="48" yMin="-18" xMax="601" yMax="999">
      <component glyphName="U" x="0" y="0" flags="0x0"/>
      <component glyphName="uni030A.case" x="498" y="0" flags="0x0"/>
    </TTGlyph>
    <TTGlyph name="Utilde" xMin="48" yMin="-18" xMax="601" yMax="921">
      <component glyphName="U" x="0" y="0" flags="0x0"/>
      <component glyphName="tildecomb.case" x="545" y="0" flags="0x0"/>
    </TTGlyph>
    <TTGlyph name="V" xMin="-17" yMin="0" xMax="590" yMax="694">
      <contour>
        <pt x="402" y="0" on="1"/>
        <pt x="179" y="0" on="1"/>
        <pt x="-17" y="694" on="1"/>
        <pt x="170" y="694" on="1"/>
        <pt x="294" y="132" on="1"/>
        <pt x="409" y="694" on="1"/>
        <pt x="590" y="694" on="1"/>
      </contour>
    </TTGlyph>
    <TTGlyph name="W" xMin="7" yMin="0" xMax="844" yMax="694">
      <contour>
        <pt x="732" y="0" on="1"/>
        <pt x="503" y="0" on="1"/>
        <pt x="424" y="520" on="1"/>
        <pt x="339" y="0" on="1"/>
        <pt x="115" y="0" on="1"/>
        <pt x="7" y="694" on="1"/>
        <pt x="183" y="694" on="1"/>
        <pt x="244" y="132" on="1"/>
        <pt x="334" y="694" on="1"/>
        <pt x="519" y="694" on="1"/>
        <pt x="600" y="132" on="1"/>
        <pt x="675" y="694" on="1"/>
        <pt x="844" y="694" on="1"/>
      </contour>
    </TTGlyph>
    <TTGlyph name="Wacute" xMin="7" yMin="0" xMax="844" yMax="965">
      <component glyphName="W" x="0" y="0" flags="0x0"/>
      <component glyphName="acutecomb.case" x="606" y="0" flags="0x0"/>
    </TTGlyph>
    <TTGlyph name="Wcircumflex" xMin="7" yMin="0" xMax="844" yMax="955">
      <component glyphName="W" x="0" y="0" flags="0x0"/>
      <component glyphName="uni0302.case" x="651" y="0" flags="0x0"/>
    </TTGlyph>
    <TTGlyph name="Wdieresis" xMin="7" yMin="0" xMax="844" yMax="931">
      <component glyphName="W" x="0" y="0" flags="0x0"/>
      <component glyphName="uni0308.case" x="661" y="0" flags="0x0"/>
    </TTGlyph>
    <TTGlyph name="Wgrave" xMin="7" yMin="0" xMax="844" yMax="965">
      <component glyphName="W" x="0" y="0" flags="0x0"/>
      <component glyphName="gravecomb.case" x="604" y="0" flags="0x0"/>
    </TTGlyph>
    <TTGlyph name="X" xMin="-6" yMin="0" xMax="595" yMax="694">
      <contour>
        <pt x="595" y="0" on="1"/>
        <pt x="403" y="0" on="1"/>
        <pt x="290" y="256" on="1"/>
        <pt x="181" y="0" on="1"/>
        <pt x="-6" y="0" on="1"/>
        <pt x="186" y="368" on="1"/>
        <pt x="8" y="694" on="1"/>
        <pt x="199" y="694" on="1"/>
        <pt x="292" y="479" on="1"/>
        <pt x="392" y="694" on="1"/>
        <pt x="578" y="694" on="1"/>
        <pt x="396" y="374" on="1"/>
      </contour>
    </TTGlyph>
    <TTGlyph name="Xi" xMin="27" yMin="0" xMax="501" yMax="694">
      <contour>
        <pt x="481" y="548" on="1"/>
        <pt x="27" y="548" on="1"/>
        <pt x="27" y="694" on="1"/>
        <pt x="501" y="694" on="1"/>
      </contour>
      <contour>
        <pt x="433" y="284" on="1"/>
        <pt x="91" y="284" on="1"/>
        <pt x="91" y="421" on="1"/>
        <pt x="433" y="421" on="1"/>
      </contour>
      <contour>
        <pt x="500" y="0" on="1"/>
        <pt x="27" y="0" on="1"/>
        <pt x="27" y="151" on="1"/>
        <pt x="500" y="151" on="1"/>
      </contour>
    </TTGlyph>
    <TTGlyph name="Y" xMin="-10" yMin="0" xMax="611" yMax="694">
      <contour>
        <pt x="389" y="259" on="1"/>
        <pt x="389" y="0" on="1"/>
        <pt x="212" y="0" on="1"/>
        <pt x="212" y="258" on="1"/>
        <pt x="-10" y="694" on="1"/>
        <pt x="184" y="694" on="1"/>
        <pt x="304" y="395" on="1"/>
        <pt x="425" y="694" on="1"/>
        <pt x="611" y="694" on="1"/>
      </contour>
    </TTGlyph>
    <TTGlyph name="Yacute" xMin="-10" yMin="0" xMax="611" yMax="965">
      <component glyphName="Y" x="0" y="0" flags="0x0"/>
      <component glyphName="acutecomb.case" x="480" y="0" flags="0x0"/>
    </TTGlyph>
    <TTGlyph name="Ycircumflex" xMin="-10" yMin="0" xMax="611" yMax="955">
      <component glyphName="Y" x="0" y="0" flags="0x0"/>
      <component glyphName="uni0302.case" x="525" y="0" flags="0x0"/>
    </TTGlyph>
    <TTGlyph name="Ydieresis" xMin="-10" yMin="0" xMax="611" yMax="931">
      <component glyphName="Y" x="0" y="0" flags="0x0"/>
      <component glyphName="uni0308.case" x="535" y="0" flags="0x0"/>
    </TTGlyph>
    <TTGlyph name="Ygrave" xMin="-10" yMin="0" xMax="611" yMax="965">
      <component glyphName="Y" x="0" y="0" flags="0x0"/>
      <component glyphName="gravecomb.case" x="478" y="0" flags="0x0"/>
    </TTGlyph>
    <TTGlyph name="Z" xMin="15" yMin="0" xMax="525" yMax="694">
      <contour>
        <pt x="518" y="561" on="1"/>
        <pt x="224" y="140" on="1"/>
        <pt x="525" y="140" on="1"/>
        <pt x="507" y="0" on="1"/>
        <pt x="15" y="0" on="1"/>
        <pt x="15" y="131" on="1"/>
        <pt x="317" y="558" on="1"/>
        <pt x="45" y="558" on="1"/>
        <pt x="45" y="694" on="1"/>
        <pt x="518" y="694" on="1"/>
      </contour>
    </TTGlyph>
    <TTGlyph name="Zacute" xMin="15" yMin="0" xMax="525" yMax="965">
      <component glyphName="Z" x="0" y="0" flags="0x0"/>
      <component glyphName="acutecomb.case" x="457" y="0" flags="0x0"/>
    </TTGlyph>
    <TTGlyph name="Zacute.loclPLK" xMin="15" yMin="0" xMax="525" yMax="972">
      <component glyphName="Z" x="0" y="0" flags="0x0"/>
      <component glyphName="acute.case.loclPLK" x="103" y="0" flags="0x0"/>
    </TTGlyph>
    <TTGlyph name="Zcaron" xMin="15" yMin="0" xMax="525" yMax="950">
      <component glyphName="Z" x="0" y="0" flags="0x0"/>
      <component glyphName="uni030C.case" x="501" y="0" flags="0x0"/>
    </TTGlyph>
    <TTGlyph name="Zdotaccent" xMin="15" yMin="0" xMax="525" yMax="942">
      <component glyphName="Z" x="0" y="0" flags="0x0"/>
      <component glyphName="uni0307.case" x="405" y="0" flags="0x0"/>
    </TTGlyph>
    <TTGlyph name="Zeta" xMin="15" yMin="0" xMax="525" yMax="694">
      <component glyphName="Z" x="0" y="0" flags="0x0"/>
    </TTGlyph>
    <TTGlyph name="a" xMin="23" yMin="-18" xMax="525" yMax="550">
      <contour>
        <pt x="490" y="131" on="0"/>
        <pt x="506" y="103" on="0"/>
        <pt x="525" y="95" on="1"/>
        <pt x="490" y="-15" on="1"/>
        <pt x="440" y="-11" on="0"/>
        <pt x="376" y="23" on="0"/>
        <pt x="357" y="61" on="1"/>
        <pt x="330" y="20" on="0"/>
        <pt x="247" y="-18" on="0"/>
        <pt x="197" y="-18" on="1"/>
        <pt x="118" y="-18" on="0"/>
        <pt x="23" y="75" on="0"/>
        <pt x="23" y="149" on="1"/>
        <pt x="23" y="237" on="0"/>
        <pt x="152" y="330" on="0"/>
        <pt x="274" y="330" on="1"/>
        <pt x="323" y="330" on="1"/>
        <pt x="323" y="350" on="1"/>
        <pt x="323" y="394" on="0"/>
        <pt x="285" y="427" on="0"/>
        <pt x="238" y="427" on="1"/>
        <pt x="213" y="427" on="0"/>
        <pt x="138" y="412" on="0"/>
        <pt x="99" y="399" on="1"/>
        <pt x="61" y="510" on="1"/>
        <pt x="109" y="529" on="0"/>
        <pt x="218" y="550" on="0"/>
        <pt x="264" y="550" on="1"/>
        <pt x="381" y="550" on="0"/>
        <pt x="490" y="455" on="0"/>
        <pt x="490" y="359" on="1"/>
        <pt x="490" y="160" on="1"/>
      </contour>
      <contour>
        <pt x="296" y="103" on="0"/>
        <pt x="323" y="148" on="1"/>
        <pt x="323" y="238" on="1"/>
        <pt x="290" y="238" on="1"/>
        <pt x="191" y="238" on="0"/>
        <pt x="191" y="165" on="1"/>
        <pt x="191" y="136" on="0"/>
        <pt x="221" y="103" on="0"/>
        <pt x="247" y="103" on="1"/>
      </contour>
    </TTGlyph>
    <TTGlyph name="a.sc" xMin="-17" yMin="0" xMax="539" yMax="569">
      <contour>
        <pt x="335" y="111" on="1"/>
        <pt x="184" y="111" on="1"/>
        <pt x="160" y="0" on="1"/>
        <pt x="-17" y="0" on="1"/>
        <pt x="161" y="569" on="1"/>
        <pt x="362" y="569" on="1"/>
        <pt x="539" y="0" on="1"/>
        <pt x="360" y="0" on="1"/>
      </contour>
      <contour>
        <pt x="309" y="229" on="1"/>
        <pt x="259" y="453" on="1"/>
        <pt x="210" y="229" on="1"/>
      </contour>
    </TTGlyph>
    <TTGlyph name="aacute" xMin="23" yMin="-18" xMax="525" yMax="841">
      <component glyphName="a" x="0" y="0" flags="0x0"/>
      <component glyphName="acutecomb" x="439" y="0" flags="0x0"/>
    </TTGlyph>
    <TTGlyph name="aacute.sc" xMin="-17" yMin="0" xMax="539" yMax="871">
      <component glyphName="a.sc" x="0" y="0" flags="0x0"/>
      <component glyphName="acutecomb.sc" x="80" y="0" flags="0x0"/>
    </TTGlyph>
    <TTGlyph name="abreve" xMin="23" yMin="-18" xMax="525" yMax="826">
      <component glyphName="a" x="0" y="0" flags="0x0"/>
      <component glyphName="uni0306" x="478" y="0" flags="0x0"/>
    </TTGlyph>
    <TTGlyph name="abreve.sc" xMin="-17" yMin="0" xMax="539" yMax="856">
      <component glyphName="a.sc" x="0" y="0" flags="0x0"/>
      <component glyphName="uni0306.sc" x="54" y="0" flags="0x0"/>
    </TTGlyph>
    <TTGlyph name="abrevecy.sc" xMin="-17" yMin="0" xMax="539" yMax="837">
      <component glyphName="a.sc" x="0" y="0" flags="0x0"/>
      <component glyphName="brevecy.sc" x="55" y="0" flags="0x0"/>
    </TTGlyph>
    <TTGlyph name="acircumflex" xMin="23" yMin="-18" xMax="525" yMax="827">
      <component glyphName="a" x="0" y="0" flags="0x0"/>
      <component glyphName="uni0302" x="497" y="0" flags="0x0"/>
    </TTGlyph>
    <TTGlyph name="acircumflex.sc" xMin="-17" yMin="0" xMax="539" yMax="857">
      <component glyphName="a.sc" x="0" y="0" flags="0x0"/>
      <component glyphName="uni0302.sc" x="37" y="0" flags="0x0"/>
    </TTGlyph>
    <TTGlyph name="acute" xMin="30" yMin="620" xMax="317" yMax="841">
      <contour>
        <pt x="317" y="715" on="1"/>
        <pt x="76" y="620" on="1"/>
        <pt x="30" y="705" on="1"/>
        <pt x="252" y="841" on="1"/>
      </contour>
    </TTGlyph>
    <TTGlyph name="acute.case" xMin="30" yMin="751" xMax="317" yMax="965">
      <contour>
        <pt x="317" y="838" on="1"/>
        <pt x="73" y="751" on="1"/>
        <pt x="30" y="836" on="1"/>
        <pt x="253" y="965" on="1"/>
      </contour>
    </TTGlyph>
    <TTGlyph name="acute.case.loclPLK" xMin="99" yMin="743" xMax="319" yMax="972">
      <contour>
        <pt x="319" y="902" on="1"/>
        <pt x="175" y="743" on="1"/>
        <pt x="99" y="786" on="1"/>
        <pt x="194" y="972" on="1"/>
      </contour>
    </TTGlyph>
    <TTGlyph name="acute.loclPLK" xMin="99" yMin="582" xMax="318" yMax="815">
      <contour>
        <pt x="318" y="745" on="1"/>
        <pt x="175" y="582" on="1"/>
        <pt x="99" y="625" on="1"/>
        <pt x="193" y="815" on="1"/>
      </contour>
    </TTGlyph>
    <TTGlyph name="acute.sc" xMin="30" yMin="650" xMax="317" yMax="871">
      <component glyphName="acutecomb" x="347" y="30" flags="0x0"/>
    </TTGlyph>
    <TTGlyph name="acute.sc.loclPLK" xMin="99" yMin="628" xMax="318" yMax="861">
      <contour>
        <pt x="318" y="791" on="1"/>
        <pt x="175" y="628" on="1"/>
        <pt x="99" y="671" on="1"/>
        <pt x="193" y="861" on="1"/>
      </contour>
    </TTGlyph>
    <TTGlyph name="acutecomb" xMin="-317" yMin="620" xMax="-30" yMax="841">
      <contour>
        <pt x="-30" y="715" on="1"/>
        <pt x="-271" y="620" on="1"/>
        <pt x="-317" y="705" on="1"/>
        <pt x="-95" y="841" on="1"/>
      </contour>
    </TTGlyph>
    <TTGlyph name="acutecomb.case" xMin="-323" yMin="751" xMax="-36" yMax="965">
      <contour>
        <pt x="-36" y="838" on="1"/>
        <pt x="-280" y="751" on="1"/>
        <pt x="-323" y="836" on="1"/>
        <pt x="-100" y="965" on="1"/>
      </contour>
    </TTGlyph>
    <TTGlyph name="acutecomb.sc" xMin="30" yMin="650" xMax="317" yMax="871">
      <contour>
        <pt x="317" y="745" on="1"/>
        <pt x="76" y="650" on="1"/>
        <pt x="30" y="735" on="1"/>
        <pt x="252" y="871" on="1"/>
      </contour>
    </TTGlyph>
    <TTGlyph name="adieresis" xMin="23" yMin="-18" xMax="525" yMax="805">
      <component glyphName="a" x="0" y="0" flags="0x0"/>
      <component glyphName="uni0308" x="507" y="0" flags="0x0"/>
    </TTGlyph>
    <TTGlyph name="adieresis.sc" xMin="-17" yMin="0" xMax="539" yMax="835">
      <component glyphName="a.sc" x="0" y="0" flags="0x0"/>
      <component glyphName="uni0308.sc" x="28" y="0" flags="0x0"/>
    </TTGlyph>
    <TTGlyph name="ae" xMin="23" yMin="-18" xMax="834" yMax="550">
      <contour>
        <pt x="834" y="251" on="0"/>
        <pt x="830" y="217" on="1"/>
        <pt x="503" y="217" on="1"/>
        <pt x="511" y="153" on="0"/>
        <pt x="568" y="105" on="0"/>
        <pt x="619" y="105" on="1"/>
        <pt x="650" y="105" on="0"/>
        <pt x="710" y="128" on="0"/>
        <pt x="745" y="152" on="1"/>
        <pt x="814" y="58" on="1"/>
        <pt x="720" y="-18" on="0"/>
        <pt x="604" y="-18" on="1"/>
        <pt x="533" y="-18" on="0"/>
        <pt x="424" y="29" on="0"/>
        <pt x="389" y="72" on="1"/>
        <pt x="325" y="-18" on="0"/>
        <pt x="201" y="-18" on="1"/>
        <pt x="119" y="-18" on="0"/>
        <pt x="23" y="75" on="0"/>
        <pt x="23" y="149" on="1"/>
        <pt x="23" y="237" on="0"/>
        <pt x="155" y="330" on="0"/>
        <pt x="281" y="330" on="1"/>
        <pt x="330" y="330" on="1"/>
        <pt x="330" y="348" on="1"/>
        <pt x="330" y="392" on="0"/>
        <pt x="292" y="426" on="0"/>
        <pt x="244" y="426" on="1"/>
        <pt x="219" y="426" on="0"/>
        <pt x="145" y="411" on="0"/>
        <pt x="105" y="398" on="1"/>
        <pt x="68" y="510" on="1"/>
        <pt x="117" y="529" on="0"/>
        <pt x="224" y="550" on="0"/>
        <pt x="271" y="550" on="1"/>
        <pt x="382" y="550" on="0"/>
        <pt x="434" y="485" on="1"/>
        <pt x="499" y="550" on="0"/>
        <pt x="597" y="550" on="1"/>
        <pt x="667" y="550" on="0"/>
        <pt x="774" y="485" on="0"/>
        <pt x="834" y="361" on="0"/>
        <pt x="834" y="275" on="1"/>
      </contour>
      <contour>
        <pt x="666" y="324" on="1"/>
        <pt x="666" y="439" on="0"/>
        <pt x="587" y="439" on="1"/>
        <pt x="549" y="439" on="0"/>
        <pt x="508" y="383" on="0"/>
        <pt x="503" y="317" on="1"/>
        <pt x="666" y="317" on="1"/>
      </contour>
      <contour>
        <pt x="282" y="103" on="0"/>
        <pt x="323" y="133" on="0"/>
        <pt x="343" y="162" on="1"/>
        <pt x="335" y="191" on="0"/>
        <pt x="333" y="230" on="1"/>
        <pt x="333" y="234" on="1"/>
        <pt x="298" y="234" on="1"/>
        <pt x="249" y="234" on="0"/>
        <pt x="201" y="200" on="0"/>
        <pt x="201" y="162" on="1"/>
        <pt x="201" y="134" on="0"/>
        <pt x="229" y="103" on="0"/>
        <pt x="256" y="103" on="1"/>
      </contour>
    </TTGlyph>
    <TTGlyph name="ae.sc" xMin="-25" yMin="0" xMax="722" yMax="569">
      <contour>
        <pt x="722" y="118" on="1"/>
        <pt x="722" y="0" on="1"/>
        <pt x="379" y="0" on="1"/>
        <pt x="361" y="111" on="1"/>
        <pt x="195" y="111" on="1"/>
        <pt x="158" y="0" on="1"/>
        <pt x="-25" y="0" on="1"/>
        <pt x="210" y="569" on="1"/>
        <pt x="691" y="569" on="1"/>
        <pt x="674" y="452" on="1"/>
        <pt x="457" y="452" on="1"/>
        <pt x="477" y="346" on="1"/>
        <pt x="684" y="346" on="1"/>
        <pt x="684" y="231" on="1"/>
        <pt x="499" y="231" on="1"/>
        <pt x="520" y="118" on="1"/>
      </contour>
      <contour>
        <pt x="343" y="229" on="1"/>
        <pt x="309" y="449" on="1"/>
        <pt x="235" y="229" on="1"/>
      </contour>
    </TTGlyph>
    <TTGlyph name="aeacute" xMin="23" yMin="-18" xMax="834" yMax="841">
      <component glyphName="ae" x="0" y="0" flags="0x0"/>
      <component glyphName="acutecomb" x="595" y="0" flags="0x0"/>
    </TTGlyph>
    <TTGlyph name="aeacute.sc" xMin="-25" yMin="0" xMax="722" yMax="871">
      <component glyphName="ae.sc" x="0" y="0" flags="0x0"/>
      <component glyphName="acutecomb.sc" x="238" y="0" flags="0x0"/>
    </TTGlyph>
    <TTGlyph name="agrave" xMin="23" yMin="-18" xMax="525" yMax="841">
      <component glyphName="a" x="0" y="0" flags="0x0"/>
      <component glyphName="gravecomb" x="456" y="0" flags="0x0"/>
    </TTGlyph>
    <TTGlyph name="agrave.sc" xMin="-17" yMin="0" xMax="539" yMax="871">
      <component glyphName="a.sc" x="0" y="0" flags="0x0"/>
      <component glyphName="gravecomb.sc" x="95" y="0" flags="0x0"/>
    </TTGlyph>
    <TTGlyph name="alpha" xMin="28" yMin="-18" xMax="578" yMax="550">
      <contour>
        <pt x="378" y="550" on="0"/>
        <pt x="406" y="416" on="1"/>
        <pt x="421" y="532" on="1"/>
        <pt x="566" y="532" on="1"/>
        <pt x="494" y="262" on="1"/>
        <pt x="520" y="162" on="1"/>
        <pt x="527" y="136" on="0"/>
        <pt x="555" y="112" on="0"/>
        <pt x="578" y="108" on="1"/>
        <pt x="524" y="-17" on="1"/>
        <pt x="422" y="-6" on="0"/>
        <pt x="404" y="76" on="1"/>
        <pt x="397" y="109" on="1"/>
        <pt x="370" y="44" on="0"/>
        <pt x="291" y="-18" on="0"/>
        <pt x="232" y="-18" on="1"/>
        <pt x="138" y="-18" on="0"/>
        <pt x="28" y="127" on="0"/>
        <pt x="28" y="262" on="1"/>
        <pt x="28" y="346" on="0"/>
        <pt x="81" y="476" on="0"/>
        <pt x="181" y="550" on="0"/>
        <pt x="250" y="550" on="1"/>
      </contour>
      <contour>
        <pt x="239" y="427" on="0"/>
        <pt x="198" y="344" on="0"/>
        <pt x="198" y="262" on="1"/>
        <pt x="198" y="180" on="0"/>
        <pt x="238" y="105" on="0"/>
        <pt x="270" y="105" on="1"/>
        <pt x="303" y="105" on="0"/>
        <pt x="349" y="178" on="0"/>
        <pt x="365" y="273" on="1"/>
        <pt x="349" y="360" on="0"/>
        <pt x="308" y="427" on="0"/>
        <pt x="273" y="427" on="1"/>
      </contour>
    </TTGlyph>
    <TTGlyph name="alpha.sc" xMin="-17" yMin="0" xMax="539" yMax="569">
      <component glyphName="a.sc" x="0" y="0" flags="0x0"/>
    </TTGlyph>
    <TTGlyph name="alphadasiaoxiaprosgegrammeni.sc" xMin="-17" yMin="0" xMax="539" yMax="569">
      <component glyphName="a.sc" x="0" y="0" flags="0x0"/>
    </TTGlyph>
    <TTGlyph name="alphadasiaperispomeniprosgegram" xMin="-17" yMin="0" xMax="539" yMax="569">
      <component glyphName="a.sc" x="0" y="0" flags="0x0"/>
    </TTGlyph>
    <TTGlyph name="alphadasiaprosgegrammeni.sc" xMin="-17" yMin="0" xMax="539" yMax="569">
      <component glyphName="a.sc" x="0" y="0" flags="0x0"/>
    </TTGlyph>
    <TTGlyph name="alphadasiavariaprosgegrammeni.s" xMin="-17" yMin="0" xMax="539" yMax="569">
      <component glyphName="a.sc" x="0" y="0" flags="0x0"/>
    </TTGlyph>
    <TTGlyph name="alphaprosgegrammeni.sc" xMin="-17" yMin="0" xMax="539" yMax="569">
      <component glyphName="a.sc" x="0" y="0" flags="0x0"/>
    </TTGlyph>
    <TTGlyph name="alphapsilioxiaprosgegrammeni.sc" xMin="-17" yMin="0" xMax="539" yMax="569">
      <component glyphName="a.sc" x="0" y="0" flags="0x0"/>
    </TTGlyph>
    <TTGlyph name="alphapsiliperispomeniprosgegram" xMin="-17" yMin="0" xMax="539" yMax="569">
      <component glyphName="a.sc" x="0" y="0" flags="0x0"/>
    </TTGlyph>
    <TTGlyph name="alphapsiliprosgegrammeni.sc" xMin="-17" yMin="0" xMax="539" yMax="569">
      <component glyphName="a.sc" x="0" y="0" flags="0x0"/>
    </TTGlyph>
    <TTGlyph name="alphapsilivariaprosgegrammeni.s" xMin="-17" yMin="0" xMax="539" yMax="569">
      <component glyphName="a.sc" x="0" y="0" flags="0x0"/>
    </TTGlyph>
    <TTGlyph name="alphatonos" xMin="28" yMin="-18" xMax="578" yMax="853">
      <component glyphName="alpha" x="0" y="0" flags="0x0"/>
      <component glyphName="tonos" x="190" y="0" flags="0x0"/>
    </TTGlyph>
    <TTGlyph name="alphatonos.sc" xMin="-17" yMin="0" xMax="539" yMax="569">
      <component glyphName="a.sc" x="0" y="0" flags="0x0"/>
    </TTGlyph>
    <TTGlyph name="amacron" xMin="23" yMin="-18" xMax="525" yMax="770">
      <component glyphName="a" x="0" y="0" flags="0x0"/>
      <component glyphName="uni0304" x="458" y="0" flags="0x0"/>
    </TTGlyph>
    <TTGlyph name="amacron.sc" xMin="-17" yMin="0" xMax="539" yMax="800">
      <component glyphName="a.sc" x="0" y="0" flags="0x0"/>
      <component glyphName="uni0304.sc" x="75" y="0" flags="0x0"/>
    </TTGlyph>
    <TTGlyph name="ampersand" xMin="56" yMin="-18" xMax="748" yMax="712">
      <contour>
        <pt x="383" y="712" on="0"/>
        <pt x="482" y="670" on="0"/>
        <pt x="535" y="596" on="0"/>
        <pt x="535" y="550" on="1"/>
        <pt x="535" y="492" on="0"/>
        <pt x="468" y="403" on="0"/>
        <pt x="404" y="360" on="1"/>
        <pt x="532" y="240" on="1"/>
        <pt x="559" y="296" on="0"/>
        <pt x="577" y="379" on="1"/>
        <pt x="718" y="338" on="1"/>
        <pt x="681" y="232" on="0"/>
        <pt x="625" y="154" on="1"/>
        <pt x="748" y="47" on="1"/>
        <pt x="601" y="-18" on="1"/>
        <pt x="526" y="54" on="1"/>
        <pt x="434" y="-18" on="0"/>
        <pt x="308" y="-18" on="1"/>
        <pt x="233" y="-18" on="0"/>
        <pt x="119" y="31" on="0"/>
        <pt x="56" y="120" on="0"/>
        <pt x="56" y="178" on="1"/>
        <pt x="56" y="238" on="0"/>
        <pt x="120" y="326" on="0"/>
        <pt x="191" y="373" on="1"/>
        <pt x="136" y="426" on="0"/>
        <pt x="95" y="498" on="0"/>
        <pt x="95" y="543" on="1"/>
        <pt x="95" y="588" on="0"/>
        <pt x="144" y="665" on="0"/>
        <pt x="243" y="712" on="0"/>
        <pt x="315" y="712" on="1"/>
      </contour>
      <contour>
        <pt x="289" y="604" on="0"/>
        <pt x="258" y="571" on="0"/>
        <pt x="258" y="543" on="1"/>
        <pt x="258" y="519" on="0"/>
        <pt x="280" y="480" on="0"/>
        <pt x="311" y="449" on="1"/>
        <pt x="343" y="471" on="0"/>
        <pt x="373" y="517" on="0"/>
        <pt x="373" y="546" on="1"/>
        <pt x="373" y="572" on="0"/>
        <pt x="343" y="604" on="0"/>
        <pt x="317" y="604" on="1"/>
      </contour>
      <contour>
        <pt x="235" y="243" on="0"/>
        <pt x="235" y="188" on="1"/>
        <pt x="235" y="149" on="0"/>
        <pt x="290" y="101" on="0"/>
        <pt x="338" y="101" on="1"/>
        <pt x="397" y="101" on="0"/>
        <pt x="442" y="134" on="1"/>
        <pt x="287" y="281" on="1"/>
      </contour>
    </TTGlyph>
    <TTGlyph name="ampersand.ss03" xMin="25" yMin="-16" xMax="926" yMax="637">
      <contour>
        <pt x="926" y="487" on="1"/>
        <pt x="926" y="384" on="1"/>
        <pt x="832" y="384" on="1"/>
        <pt x="816" y="269" on="0"/>
        <pt x="705" y="89" on="0"/>
        <pt x="513" y="-16" on="0"/>
        <pt x="382" y="-16" on="1"/>
        <pt x="210" y="-16" on="0"/>
        <pt x="25" y="155" on="0"/>
        <pt x="25" y="315" on="1"/>
        <pt x="25" y="410" on="0"/>
        <pt x="102" y="557" on="0"/>
        <pt x="238" y="637" on="0"/>
        <pt x="324" y="637" on="1"/>
        <pt x="392" y="637" on="0"/>
        <pt x="497" y="588" on="0"/>
        <pt x="556" y="500" on="0"/>
        <pt x="556" y="445" on="1"/>
        <pt x="556" y="342" on="0"/>
        <pt x="388" y="228" on="0"/>
        <pt x="213" y="214" on="1"/>
        <pt x="229" y="160" on="0"/>
        <pt x="312" y="112" on="0"/>
        <pt x="386" y="112" on="1"/>
        <pt x="511" y="112" on="0"/>
        <pt x="674" y="250" on="0"/>
        <pt x="692" y="384" on="1"/>
        <pt x="616" y="384" on="1"/>
        <pt x="616" y="487" on="1"/>
      </contour>
      <contour>
        <pt x="264" y="517" on="0"/>
        <pt x="203" y="415" on="0"/>
        <pt x="202" y="322" on="1"/>
        <pt x="301" y="332" on="0"/>
        <pt x="386" y="396" on="0"/>
        <pt x="386" y="446" on="1"/>
        <pt x="386" y="480" on="0"/>
        <pt x="350" y="517" on="0"/>
        <pt x="316" y="517" on="1"/>
      </contour>
    </TTGlyph>
    <TTGlyph name="anoteleia" xMin="26" yMin="213" xMax="214" yMax="401">
      <component glyphName="periodcentered" x="0" y="0" flags="0x0"/>
    </TTGlyph>
    <TTGlyph name="aogonek" xMin="23" yMin="-263" xMax="525" yMax="550">
      <contour>
        <pt x="373" y="-57" on="0"/>
        <pt x="373" y="-115" on="1"/>
        <pt x="373" y="-160" on="0"/>
        <pt x="425" y="-160" on="1"/>
        <pt x="451" y="-160" on="0"/>
        <pt x="486" y="-152" on="1"/>
        <pt x="475" y="-255" on="1"/>
        <pt x="441" y="-263" on="0"/>
        <pt x="404" y="-263" on="1"/>
        <pt x="337" y="-263" on="0"/>
        <pt x="253" y="-199" on="0"/>
        <pt x="253" y="-144" on="1"/>
        <pt x="253" y="-89" on="0"/>
        <pt x="326" y="-11" on="0"/>
        <pt x="393" y="16" on="1"/>
        <pt x="372" y="32" on="0"/>
        <pt x="357" y="61" on="1"/>
        <pt x="330" y="20" on="0"/>
        <pt x="247" y="-18" on="0"/>
        <pt x="197" y="-18" on="1"/>
        <pt x="118" y="-18" on="0"/>
        <pt x="23" y="75" on="0"/>
        <pt x="23" y="149" on="1"/>
        <pt x="23" y="237" on="0"/>
        <pt x="152" y="330" on="0"/>
        <pt x="274" y="330" on="1"/>
        <pt x="323" y="330" on="1"/>
        <pt x="323" y="350" on="1"/>
        <pt x="323" y="394" on="0"/>
        <pt x="285" y="427" on="0"/>
        <pt x="238" y="427" on="1"/>
        <pt x="213" y="427" on="0"/>
        <pt x="138" y="412" on="0"/>
        <pt x="99" y="399" on="1"/>
        <pt x="61" y="510" on="1"/>
        <pt x="109" y="529" on="0"/>
        <pt x="218" y="550" on="0"/>
        <pt x="264" y="550" on="1"/>
        <pt x="381" y="550" on="0"/>
        <pt x="490" y="455" on="0"/>
        <pt x="490" y="359" on="1"/>
        <pt x="490" y="160" on="1"/>
        <pt x="490" y="131" on="0"/>
        <pt x="506" y="103" on="0"/>
        <pt x="525" y="95" on="1"/>
        <pt x="490" y="-15" on="1"/>
      </contour>
      <contour>
        <pt x="296" y="103" on="0"/>
        <pt x="323" y="148" on="1"/>
        <pt x="323" y="238" on="1"/>
        <pt x="290" y="238" on="1"/>
        <pt x="191" y="238" on="0"/>
        <pt x="191" y="165" on="1"/>
        <pt x="191" y="136" on="0"/>
        <pt x="221" y="103" on="0"/>
        <pt x="247" y="103" on="1"/>
      </contour>
    </TTGlyph>
    <TTGlyph name="aogonek.sc" xMin="-17" yMin="-248" xMax="539" yMax="569">
      <contour>
        <pt x="341" y="-42" on="0"/>
        <pt x="341" y="-100" on="1"/>
        <pt x="341" y="-145" on="0"/>
        <pt x="393" y="-145" on="1"/>
        <pt x="419" y="-145" on="0"/>
        <pt x="454" y="-137" on="1"/>
        <pt x="443" y="-240" on="1"/>
        <pt x="408" y="-248" on="0"/>
        <pt x="372" y="-248" on="1"/>
        <pt x="305" y="-248" on="0"/>
        <pt x="221" y="-184" on="0"/>
        <pt x="221" y="-129" on="1"/>
        <pt x="221" y="-28" on="0"/>
        <pt x="354" y="28" on="1"/>
        <pt x="335" y="111" on="1"/>
        <pt x="184" y="111" on="1"/>
        <pt x="160" y="0" on="1"/>
        <pt x="-17" y="0" on="1"/>
        <pt x="161" y="569" on="1"/>
        <pt x="362" y="569" on="1"/>
        <pt x="539" y="0" on="1"/>
        <pt x="458" y="0" on="1"/>
      </contour>
      <contour>
        <pt x="309" y="229" on="1"/>
        <pt x="259" y="453" on="1"/>
        <pt x="210" y="229" on="1"/>
      </contour>
    </TTGlyph>
    <TTGlyph name="approxequal" xMin="32" yMin="125" xMax="525" yMax="522">
      <contour>
        <pt x="325" y="336" on="0"/>
        <pt x="277" y="355" on="0"/>
        <pt x="247" y="373" on="1"/>
        <pt x="228" y="385" on="0"/>
        <pt x="204" y="396" on="0"/>
        <pt x="190" y="396" on="1"/>
        <pt x="173" y="396" on="0"/>
        <pt x="149" y="382" on="0"/>
        <pt x="129" y="358" on="0"/>
        <pt x="120" y="345" on="1"/>
        <pt x="32" y="390" on="1"/>
        <pt x="61" y="449" on="0"/>
        <pt x="139" y="522" on="0"/>
        <pt x="197" y="522" on="1"/>
        <pt x="232" y="522" on="0"/>
        <pt x="279" y="503" on="0"/>
        <pt x="309" y="485" on="1"/>
        <pt x="330" y="473" on="0"/>
        <pt x="353" y="462" on="0"/>
        <pt x="368" y="462" on="1"/>
        <pt x="391" y="462" on="0"/>
        <pt x="419" y="485" on="0"/>
        <pt x="438" y="510" on="1"/>
        <pt x="525" y="466" on="1"/>
        <pt x="496" y="407" on="0"/>
        <pt x="419" y="336" on="0"/>
        <pt x="361" y="336" on="1"/>
      </contour>
      <contour>
        <pt x="325" y="125" on="0"/>
        <pt x="277" y="144" on="0"/>
        <pt x="247" y="162" on="1"/>
        <pt x="228" y="174" on="0"/>
        <pt x="204" y="185" on="0"/>
        <pt x="190" y="185" on="1"/>
        <pt x="173" y="185" on="0"/>
        <pt x="149" y="171" on="0"/>
        <pt x="129" y="147" on="0"/>
        <pt x="120" y="134" on="1"/>
        <pt x="32" y="179" on="1"/>
        <pt x="61" y="238" on="0"/>
        <pt x="139" y="311" on="0"/>
        <pt x="197" y="311" on="1"/>
        <pt x="232" y="311" on="0"/>
        <pt x="279" y="292" on="0"/>
        <pt x="309" y="274" on="1"/>
        <pt x="330" y="262" on="0"/>
        <pt x="353" y="251" on="0"/>
        <pt x="368" y="251" on="1"/>
        <pt x="391" y="251" on="0"/>
        <pt x="419" y="274" on="0"/>
        <pt x="438" y="299" on="1"/>
        <pt x="525" y="255" on="1"/>
        <pt x="496" y="196" on="0"/>
        <pt x="419" y="125" on="0"/>
        <pt x="361" y="125" on="1"/>
      </contour>
    </TTGlyph>
    <TTGlyph name="approxequal.lf" xMin="13" yMin="125" xMax="506" yMax="311">
      <component glyphName="asciitilde.lf" x="0" y="-104" flags="0x0"/>
      <component glyphName="asciitilde.lf" x="0" y="107" flags="0x0"/>
    </TTGlyph>
    <TTGlyph name="approxequal.osf" xMin="13" yMin="125" xMax="506" yMax="522">
      <contour>
        <pt x="306" y="336" on="0"/>
        <pt x="258" y="355" on="0"/>
        <pt x="228" y="373" on="1"/>
        <pt x="209" y="385" on="0"/>
        <pt x="185" y="396" on="0"/>
        <pt x="171" y="396" on="1"/>
        <pt x="154" y="396" on="0"/>
        <pt x="130" y="382" on="0"/>
        <pt x="110" y="358" on="0"/>
        <pt x="101" y="345" on="1"/>
        <pt x="13" y="390" on="1"/>
        <pt x="42" y="449" on="0"/>
        <pt x="120" y="522" on="0"/>
        <pt x="178" y="522" on="1"/>
        <pt x="213" y="522" on="0"/>
        <pt x="260" y="503" on="0"/>
        <pt x="290" y="485" on="1"/>
        <pt x="311" y="473" on="0"/>
        <pt x="334" y="462" on="0"/>
        <pt x="349" y="462" on="1"/>
        <pt x="372" y="462" on="0"/>
        <pt x="400" y="485" on="0"/>
        <pt x="419" y="510" on="1"/>
        <pt x="506" y="466" on="1"/>
        <pt x="477" y="407" on="0"/>
        <pt x="400" y="336" on="0"/>
        <pt x="342" y="336" on="1"/>
      </contour>
      <contour>
        <pt x="306" y="125" on="0"/>
        <pt x="258" y="144" on="0"/>
        <pt x="228" y="162" on="1"/>
        <pt x="209" y="174" on="0"/>
        <pt x="185" y="185" on="0"/>
        <pt x="171" y="185" on="1"/>
        <pt x="154" y="185" on="0"/>
        <pt x="130" y="171" on="0"/>
        <pt x="110" y="147" on="0"/>
        <pt x="101" y="134" on="1"/>
        <pt x="13" y="179" on="1"/>
        <pt x="42" y="238" on="0"/>
        <pt x="120" y="311" on="0"/>
        <pt x="178" y="311" on="1"/>
        <pt x="213" y="311" on="0"/>
        <pt x="260" y="292" on="0"/>
        <pt x="290" y="274" on="1"/>
        <pt x="311" y="262" on="0"/>
        <pt x="334" y="251" on="0"/>
        <pt x="349" y="251" on="1"/>
        <pt x="372" y="251" on="0"/>
        <pt x="400" y="274" on="0"/>
        <pt x="419" y="299" on="1"/>
        <pt x="506" y="255" on="1"/>
        <pt x="477" y="196" on="0"/>
        <pt x="400" y="125" on="0"/>
        <pt x="342" y="125" on="1"/>
      </contour>
    </TTGlyph>
    <TTGlyph name="approxequal.tosf" xMin="34" yMin="125" xMax="527" yMax="522">
      <contour>
        <pt x="327" y="336" on="0"/>
        <pt x="279" y="355" on="0"/>
        <pt x="249" y="373" on="1"/>
        <pt x="230" y="385" on="0"/>
        <pt x="206" y="396" on="0"/>
        <pt x="192" y="396" on="1"/>
        <pt x="175" y="396" on="0"/>
        <pt x="151" y="382" on="0"/>
        <pt x="131" y="358" on="0"/>
        <pt x="122" y="345" on="1"/>
        <pt x="34" y="390" on="1"/>
        <pt x="63" y="449" on="0"/>
        <pt x="141" y="522" on="0"/>
        <pt x="199" y="522" on="1"/>
        <pt x="234" y="522" on="0"/>
        <pt x="281" y="503" on="0"/>
        <pt x="311" y="485" on="1"/>
        <pt x="332" y="473" on="0"/>
        <pt x="355" y="462" on="0"/>
        <pt x="370" y="462" on="1"/>
        <pt x="393" y="462" on="0"/>
        <pt x="421" y="485" on="0"/>
        <pt x="440" y="510" on="1"/>
        <pt x="527" y="466" on="1"/>
        <pt x="498" y="407" on="0"/>
        <pt x="421" y="336" on="0"/>
        <pt x="363" y="336" on="1"/>
      </contour>
      <contour>
        <pt x="327" y="125" on="0"/>
        <pt x="279" y="144" on="0"/>
        <pt x="249" y="162" on="1"/>
        <pt x="230" y="174" on="0"/>
        <pt x="206" y="185" on="0"/>
        <pt x="192" y="185" on="1"/>
        <pt x="175" y="185" on="0"/>
        <pt x="151" y="171" on="0"/>
        <pt x="131" y="147" on="0"/>
        <pt x="122" y="134" on="1"/>
        <pt x="34" y="179" on="1"/>
        <pt x="63" y="238" on="0"/>
        <pt x="141" y="311" on="0"/>
        <pt x="199" y="311" on="1"/>
        <pt x="234" y="311" on="0"/>
        <pt x="281" y="292" on="0"/>
        <pt x="311" y="274" on="1"/>
        <pt x="332" y="262" on="0"/>
        <pt x="355" y="251" on="0"/>
        <pt x="370" y="251" on="1"/>
        <pt x="393" y="251" on="0"/>
        <pt x="421" y="274" on="0"/>
        <pt x="440" y="299" on="1"/>
        <pt x="527" y="255" on="1"/>
        <pt x="498" y="196" on="0"/>
        <pt x="421" y="125" on="0"/>
        <pt x="363" y="125" on="1"/>
      </contour>
    </TTGlyph>
    <TTGlyph name="aring" xMin="23" yMin="-18" xMax="525" yMax="873">
      <component glyphName="a" x="0" y="0" flags="0x0"/>
      <component glyphName="uni030A" x="446" y="0" flags="0x0"/>
    </TTGlyph>
    <TTGlyph name="aring.sc" xMin="-17" yMin="0" xMax="539" yMax="903">
      <component glyphName="a.sc" x="0" y="0" flags="0x0"/>
      <component glyphName="uni030A.sc" x="88" y="0" flags="0x0"/>
    </TTGlyph>
    <TTGlyph name="aringacute" xMin="23" yMin="-18" xMax="525" yMax="1066">
      <contour>
        <pt x="173" y="852" on="1"/>
        <pt x="130" y="937" on="1"/>
        <pt x="353" y="1066" on="1"/>
        <pt x="417" y="939" on="1"/>
      </contour>
      <contour>
        <pt x="206" y="576" on="0"/>
        <pt x="128" y="655" on="0"/>
        <pt x="128" y="712" on="1"/>
        <pt x="128" y="769" on="0"/>
        <pt x="206" y="848" on="0"/>
        <pt x="271" y="848" on="1"/>
        <pt x="336" y="848" on="0"/>
        <pt x="415" y="769" on="0"/>
        <pt x="415" y="712" on="1"/>
        <pt x="415" y="655" on="0"/>
        <pt x="336" y="576" on="0"/>
        <pt x="271" y="576" on="1"/>
      </contour>
      <contour>
        <pt x="252" y="761" on="0"/>
        <pt x="228" y="736" on="0"/>
        <pt x="228" y="712" on="1"/>
        <pt x="228" y="689" on="0"/>
        <pt x="252" y="664" on="0"/>
        <pt x="271" y="664" on="1"/>
        <pt x="291" y="664" on="0"/>
        <pt x="315" y="689" on="0"/>
        <pt x="315" y="712" on="1"/>
        <pt x="315" y="736" on="0"/>
        <pt x="291" y="761" on="0"/>
        <pt x="271" y="761" on="1"/>
      </contour>
      <contour>
        <pt x="490" y="131" on="0"/>
        <pt x="506" y="103" on="0"/>
        <pt x="525" y="95" on="1"/>
        <pt x="490" y="-15" on="1"/>
        <pt x="440" y="-11" on="0"/>
        <pt x="376" y="23" on="0"/>
        <pt x="357" y="61" on="1"/>
        <pt x="330" y="20" on="0"/>
        <pt x="247" y="-18" on="0"/>
        <pt x="197" y="-18" on="1"/>
        <pt x="118" y="-18" on="0"/>
        <pt x="23" y="75" on="0"/>
        <pt x="23" y="149" on="1"/>
        <pt x="23" y="237" on="0"/>
        <pt x="152" y="330" on="0"/>
        <pt x="274" y="330" on="1"/>
        <pt x="323" y="330" on="1"/>
        <pt x="323" y="350" on="1"/>
        <pt x="323" y="394" on="0"/>
        <pt x="285" y="427" on="0"/>
        <pt x="238" y="427" on="1"/>
        <pt x="213" y="427" on="0"/>
        <pt x="138" y="412" on="0"/>
        <pt x="99" y="399" on="1"/>
        <pt x="61" y="510" on="1"/>
        <pt x="109" y="529" on="0"/>
        <pt x="218" y="550" on="0"/>
        <pt x="264" y="550" on="1"/>
        <pt x="381" y="550" on="0"/>
        <pt x="490" y="455" on="0"/>
        <pt x="490" y="359" on="1"/>
        <pt x="490" y="160" on="1"/>
      </contour>
      <contour>
        <pt x="296" y="103" on="0"/>
        <pt x="323" y="148" on="1"/>
        <pt x="323" y="238" on="1"/>
        <pt x="290" y="238" on="1"/>
        <pt x="191" y="238" on="0"/>
        <pt x="191" y="165" on="1"/>
        <pt x="191" y="136" on="0"/>
        <pt x="221" y="103" on="0"/>
        <pt x="247" y="103" on="1"/>
      </contour>
    </TTGlyph>
    <TTGlyph name="aringacute.sc" xMin="-17" yMin="0" xMax="539" yMax="1083">
      <contour>
        <pt x="162" y="869" on="1"/>
        <pt x="119" y="954" on="1"/>
        <pt x="342" y="1083" on="1"/>
        <pt x="406" y="956" on="1"/>
      </contour>
      <contour>
        <pt x="195" y="593" on="0"/>
        <pt x="117" y="672" on="0"/>
        <pt x="117" y="729" on="1"/>
        <pt x="117" y="786" on="0"/>
        <pt x="195" y="865" on="0"/>
        <pt x="260" y="865" on="1"/>
        <pt x="325" y="865" on="0"/>
        <pt x="404" y="786" on="0"/>
        <pt x="404" y="729" on="1"/>
        <pt x="404" y="672" on="0"/>
        <pt x="325" y="593" on="0"/>
        <pt x="260" y="593" on="1"/>
      </contour>
      <contour>
        <pt x="241" y="778" on="0"/>
        <pt x="217" y="753" on="0"/>
        <pt x="217" y="729" on="1"/>
        <pt x="217" y="706" on="0"/>
        <pt x="241" y="681" on="0"/>
        <pt x="260" y="681" on="1"/>
        <pt x="280" y="681" on="0"/>
        <pt x="304" y="706" on="0"/>
        <pt x="304" y="729" on="1"/>
        <pt x="304" y="753" on="0"/>
        <pt x="280" y="778" on="0"/>
        <pt x="260" y="778" on="1"/>
      </contour>
      <contour>
        <pt x="335" y="111" on="1"/>
        <pt x="184" y="111" on="1"/>
        <pt x="160" y="0" on="1"/>
        <pt x="-17" y="0" on="1"/>
        <pt x="161" y="569" on="1"/>
        <pt x="362" y="569" on="1"/>
        <pt x="539" y="0" on="1"/>
        <pt x="360" y="0" on="1"/>
      </contour>
      <contour>
        <pt x="309" y="229" on="1"/>
        <pt x="259" y="453" on="1"/>
        <pt x="210" y="229" on="1"/>
      </contour>
    </TTGlyph>
    <TTGlyph name="arrowboth" xMin="72" yMin="-11" xMax="1208" yMax="669">
      <contour>
        <pt x="1208" y="329" on="1"/>
        <pt x="903" y="-11" on="1"/>
        <pt x="792" y="84" on="1"/>
        <pt x="877" y="177" on="1"/>
        <pt x="905" y="207" on="0"/>
        <pt x="952" y="244" on="0"/>
        <pt x="980" y="260" on="1"/>
        <pt x="300" y="260" on="1"/>
        <pt x="328" y="244" on="0"/>
        <pt x="375" y="207" on="0"/>
        <pt x="403" y="177" on="1"/>
        <pt x="488" y="84" on="1"/>
        <pt x="377" y="-11" on="1"/>
        <pt x="72" y="329" on="1"/>
        <pt x="377" y="669" on="1"/>
        <pt x="488" y="574" on="1"/>
        <pt x="403" y="481" on="1"/>
        <pt x="374" y="451" on="0"/>
        <pt x="330" y="415" on="0"/>
        <pt x="301" y="398" on="1"/>
        <pt x="979" y="398" on="1"/>
        <pt x="950" y="415" on="0"/>
        <pt x="906" y="451" on="0"/>
        <pt x="877" y="481" on="1"/>
        <pt x="792" y="574" on="1"/>
        <pt x="903" y="669" on="1"/>
      </contour>
    </TTGlyph>
    <TTGlyph name="arrowdown" xMin="105" yMin="-53" xMax="795" yMax="658">
      <contour>
        <pt x="527" y="168" on="1"/>
        <pt x="542" y="199" on="0"/>
        <pt x="574" y="240" on="0"/>
        <pt x="605" y="268" on="1"/>
        <pt x="701" y="356" on="1"/>
        <pt x="795" y="259" on="1"/>
        <pt x="450" y="-53" on="1"/>
        <pt x="105" y="259" on="1"/>
        <pt x="199" y="356" on="1"/>
        <pt x="295" y="268" on="1"/>
        <pt x="326" y="240" on="0"/>
        <pt x="358" y="199" on="0"/>
        <pt x="373" y="168" on="1"/>
        <pt x="373" y="658" on="1"/>
        <pt x="527" y="658" on="1"/>
      </contour>
    </TTGlyph>
    <TTGlyph name="arrowleft" xMin="72" yMin="-11" xMax="810" yMax="669">
      <contour>
        <pt x="488" y="574" on="1"/>
        <pt x="403" y="481" on="1"/>
        <pt x="374" y="451" on="0"/>
        <pt x="330" y="415" on="0"/>
        <pt x="301" y="398" on="1"/>
        <pt x="810" y="398" on="1"/>
        <pt x="810" y="260" on="1"/>
        <pt x="300" y="260" on="1"/>
        <pt x="328" y="244" on="0"/>
        <pt x="375" y="207" on="0"/>
        <pt x="403" y="177" on="1"/>
        <pt x="488" y="84" on="1"/>
        <pt x="377" y="-11" on="1"/>
        <pt x="72" y="329" on="1"/>
        <pt x="377" y="669" on="1"/>
      </contour>
    </TTGlyph>
    <TTGlyph name="arrowright" xMin="90" yMin="-11" xMax="828" yMax="669">
      <component glyphName="arrowleft" x="900" y="0" scalex="-1.0" scaley="1.0" flags="0x0"/>
    </TTGlyph>
    <TTGlyph name="arrowup" xMin="105" yMin="0" xMax="795" yMax="711">
      <component glyphName="arrowdown" x="900" y="658" scale="-1.0" flags="0x0"/>
    </TTGlyph>
    <TTGlyph name="arrowupdn" xMin="105" yMin="-228" xMax="795" yMax="894">
      <contour>
        <pt x="795" y="582" on="1"/>
        <pt x="701" y="484" on="1"/>
        <pt x="605" y="572" on="1"/>
        <pt x="574" y="600" on="0"/>
        <pt x="542" y="641" on="0"/>
        <pt x="527" y="673" on="1"/>
        <pt x="527" y="-7" on="1"/>
        <pt x="542" y="25" on="0"/>
        <pt x="574" y="66" on="0"/>
        <pt x="605" y="94" on="1"/>
        <pt x="701" y="182" on="1"/>
        <pt x="795" y="84" on="1"/>
        <pt x="450" y="-228" on="1"/>
        <pt x="105" y="84" on="1"/>
        <pt x="199" y="182" on="1"/>
        <pt x="295" y="94" on="1"/>
        <pt x="326" y="66" on="0"/>
        <pt x="358" y="25" on="0"/>
        <pt x="373" y="-7" on="1"/>
        <pt x="373" y="673" on="1"/>
        <pt x="358" y="641" on="0"/>
        <pt x="326" y="600" on="0"/>
        <pt x="295" y="572" on="1"/>
        <pt x="199" y="484" on="1"/>
        <pt x="105" y="582" on="1"/>
        <pt x="450" y="894" on="1"/>
      </contour>
    </TTGlyph>
    <TTGlyph name="asciicircum" xMin="14" yMin="527" xMax="548" yMax="845">
      <contour>
        <pt x="548" y="527" on="1"/>
        <pt x="383" y="527" on="1"/>
        <pt x="280" y="720" on="1"/>
        <pt x="182" y="527" on="1"/>
        <pt x="14" y="527" on="1"/>
        <pt x="203" y="845" on="1"/>
        <pt x="359" y="845" on="1"/>
      </contour>
    </TTGlyph>
    <TTGlyph name="asciitilde" xMin="32" yMin="229" xMax="525" yMax="415">
      <component glyphName="asciitilde.lf" x="19" y="0" flags="0x0"/>
    </TTGlyph>
    <TTGlyph name="asciitilde.lf" xMin="13" yMin="229" xMax="506" yMax="415">
      <contour>
        <pt x="306" y="229" on="0"/>
        <pt x="258" y="248" on="0"/>
        <pt x="228" y="266" on="1"/>
        <pt x="209" y="278" on="0"/>
        <pt x="185" y="289" on="0"/>
        <pt x="171" y="289" on="1"/>
        <pt x="154" y="289" on="0"/>
        <pt x="130" y="275" on="0"/>
        <pt x="110" y="251" on="0"/>
        <pt x="101" y="238" on="1"/>
        <pt x="13" y="283" on="1"/>
        <pt x="42" y="342" on="0"/>
        <pt x="120" y="415" on="0"/>
        <pt x="178" y="415" on="1"/>
        <pt x="213" y="415" on="0"/>
        <pt x="260" y="396" on="0"/>
        <pt x="290" y="378" on="1"/>
        <pt x="311" y="366" on="0"/>
        <pt x="334" y="355" on="0"/>
        <pt x="349" y="355" on="1"/>
        <pt x="372" y="355" on="0"/>
        <pt x="400" y="378" on="0"/>
        <pt x="419" y="403" on="1"/>
        <pt x="506" y="359" on="1"/>
        <pt x="477" y="300" on="0"/>
        <pt x="400" y="229" on="0"/>
        <pt x="342" y="229" on="1"/>
      </contour>
    </TTGlyph>
    <TTGlyph name="asciitilde.osf" xMin="13" yMin="229" xMax="506" yMax="415">
      <component glyphName="asciitilde.lf" x="0" y="0" flags="0x0"/>
    </TTGlyph>
    <TTGlyph name="asciitilde.tosf" xMin="34" yMin="229" xMax="527" yMax="415">
      <component glyphName="asciitilde.lf" x="21" y="0" flags="0x0"/>
    </TTGlyph>
    <TTGlyph name="asterisk" xMin="5" yMin="324" xMax="445" yMax="743">
      <contour>
        <pt x="306" y="509" on="1"/>
        <pt x="407" y="410" on="1"/>
        <pt x="290" y="324" on="1"/>
        <pt x="225" y="451" on="1"/>
        <pt x="162" y="324" on="1"/>
        <pt x="45" y="409" on="1"/>
        <pt x="145" y="509" on="1"/>
        <pt x="5" y="530" on="1"/>
        <pt x="50" y="664" on="1"/>
        <pt x="175" y="601" on="1"/>
        <pt x="153" y="743" on="1"/>
        <pt x="298" y="743" on="1"/>
        <pt x="276" y="600" on="1"/>
        <pt x="401" y="665" on="1"/>
        <pt x="445" y="531" on="1"/>
      </contour>
    </TTGlyph>
    <TTGlyph name="at" xMin="44" yMin="-223" xMax="976" yMax="712">
      <contour>
        <pt x="570" y="505" on="0"/>
        <pt x="663" y="481" on="0"/>
        <pt x="704" y="459" on="1"/>
        <pt x="704" y="214" on="1"/>
        <pt x="704" y="152" on="0"/>
        <pt x="722" y="106" on="0"/>
        <pt x="747" y="106" on="1"/>
        <pt x="783" y="106" on="0"/>
        <pt x="825" y="201" on="0"/>
        <pt x="825" y="315" on="1"/>
        <pt x="825" y="447" on="0"/>
        <pt x="677" y="590" on="0"/>
        <pt x="526" y="590" on="1"/>
        <pt x="422" y="590" on="0"/>
        <pt x="273" y="503" on="0"/>
        <pt x="196" y="346" on="0"/>
        <pt x="196" y="243" on="1"/>
        <pt x="196" y="82" on="0"/>
        <pt x="366" y="-99" on="0"/>
        <pt x="527" y="-99" on="1"/>
        <pt x="577" y="-99" on="0"/>
        <pt x="685" y="-80" on="0"/>
        <pt x="725" y="-65" on="1"/>
        <pt x="764" y="-181" on="1"/>
        <pt x="716" y="-200" on="0"/>
        <pt x="587" y="-223" on="0"/>
        <pt x="526" y="-223" on="1"/>
        <pt x="380" y="-223" on="0"/>
        <pt x="162" y="-109" on="0"/>
        <pt x="44" y="101" on="0"/>
        <pt x="44" y="242" on="1"/>
        <pt x="44" y="377" on="0"/>
        <pt x="168" y="591" on="0"/>
        <pt x="389" y="712" on="0"/>
        <pt x="527" y="712" on="1"/>
        <pt x="664" y="712" on="0"/>
        <pt x="868" y="602" on="0"/>
        <pt x="976" y="421" on="0"/>
        <pt x="976" y="317" on="1"/>
        <pt x="976" y="226" on="0"/>
        <pt x="920" y="83" on="0"/>
        <pt x="819" y="3" on="0"/>
        <pt x="754" y="3" on="1"/>
        <pt x="699" y="3" on="0"/>
        <pt x="628" y="64" on="0"/>
        <pt x="620" y="105" on="1"/>
        <pt x="600" y="60" on="0"/>
        <pt x="528" y="7" on="0"/>
        <pt x="477" y="7" on="1"/>
        <pt x="383" y="7" on="0"/>
        <pt x="292" y="131" on="0"/>
        <pt x="292" y="233" on="1"/>
        <pt x="292" y="358" on="0"/>
        <pt x="415" y="505" on="0"/>
        <pt x="527" y="505" on="1"/>
      </contour>
      <contour>
        <pt x="520" y="113" on="0"/>
        <pt x="551" y="137" on="0"/>
        <pt x="560" y="155" on="1"/>
        <pt x="560" y="390" on="1"/>
        <pt x="539" y="399" on="0"/>
        <pt x="520" y="399" on="1"/>
        <pt x="483" y="399" on="0"/>
        <pt x="444" y="323" on="0"/>
        <pt x="444" y="232" on="1"/>
        <pt x="444" y="166" on="0"/>
        <pt x="469" y="113" on="0"/>
        <pt x="499" y="113" on="1"/>
      </contour>
    </TTGlyph>
    <TTGlyph name="atilde" xMin="23" yMin="-18" xMax="525" yMax="795">
      <component glyphName="a" x="0" y="0" flags="0x0"/>
      <component glyphName="tildecomb" x="495" y="0" flags="0x0"/>
    </TTGlyph>
    <TTGlyph name="atilde.sc" xMin="-17" yMin="0" xMax="539" yMax="825">
      <component glyphName="a.sc" x="0" y="0" flags="0x0"/>
      <component glyphName="tildecomb.sc" x="39" y="0" flags="0x0"/>
    </TTGlyph>
    <TTGlyph name="b" xMin="56" yMin="-18" xMax="565" yMax="760">
      <contour>
        <pt x="463" y="550" on="0"/>
        <pt x="565" y="401" on="0"/>
        <pt x="565" y="265" on="1"/>
        <pt x="565" y="183" on="0"/>
        <pt x="514" y="55" on="0"/>
        <pt x="418" y="-18" on="0"/>
        <pt x="353" y="-18" on="1"/>
        <pt x="309" y="-18" on="0"/>
        <pt x="238" y="17" on="0"/>
        <pt x="214" y="49" on="1"/>
        <pt x="207" y="0" on="1"/>
        <pt x="56" y="0" on="1"/>
        <pt x="56" y="743" on="1"/>
        <pt x="226" y="760" on="1"/>
        <pt x="226" y="480" on="1"/>
        <pt x="249" y="512" on="0"/>
        <pt x="325" y="550" on="0"/>
        <pt x="365" y="550" on="1"/>
      </contour>
      <contour>
        <pt x="390" y="105" on="0"/>
        <pt x="390" y="265" on="1"/>
        <pt x="390" y="357" on="0"/>
        <pt x="349" y="426" on="0"/>
        <pt x="311" y="426" on="1"/>
        <pt x="260" y="426" on="0"/>
        <pt x="226" y="368" on="1"/>
        <pt x="226" y="153" on="1"/>
        <pt x="255" y="105" on="0"/>
        <pt x="304" y="105" on="1"/>
      </contour>
    </TTGlyph>
    <TTGlyph name="b.sc" xMin="58" yMin="0" xMax="538" yMax="569">
      <contour>
        <pt x="538" y="275" on="0"/>
        <pt x="538" y="169" on="1"/>
        <pt x="538" y="74" on="0"/>
        <pt x="396" y="0" on="0"/>
        <pt x="266" y="0" on="1"/>
        <pt x="58" y="0" on="1"/>
        <pt x="58" y="569" on="1"/>
        <pt x="242" y="569" on="1"/>
        <pt x="375" y="569" on="0"/>
        <pt x="513" y="502" on="0"/>
        <pt x="513" y="421" on="1"/>
        <pt x="513" y="331" on="0"/>
        <pt x="403" y="302" on="1"/>
      </contour>
      <contour>
        <pt x="227" y="454" on="1"/>
        <pt x="227" y="350" on="1"/>
        <pt x="263" y="350" on="1"/>
        <pt x="341" y="350" on="0"/>
        <pt x="341" y="401" on="1"/>
        <pt x="341" y="429" on="0"/>
        <pt x="301" y="454" on="0"/>
        <pt x="257" y="454" on="1"/>
      </contour>
      <contour>
        <pt x="314" y="119" on="0"/>
        <pt x="363" y="145" on="0"/>
        <pt x="363" y="180" on="1"/>
        <pt x="363" y="244" on="0"/>
        <pt x="274" y="244" on="1"/>
        <pt x="227" y="244" on="1"/>
        <pt x="227" y="119" on="1"/>
        <pt x="267" y="119" on="1"/>
      </contour>
    </TTGlyph>
    <TTGlyph name="backslash" xMin="67" yMin="-114" xMax="453" yMax="818">
      <contour>
        <pt x="453" y="-79" on="1"/>
        <pt x="303" y="-114" on="1"/>
        <pt x="67" y="784" on="1"/>
        <pt x="216" y="818" on="1"/>
      </contour>
    </TTGlyph>
    <TTGlyph name="bar" xMin="106" yMin="-106" xMax="265" yMax="811">
      <contour>
        <pt x="265" y="-106" on="1"/>
        <pt x="106" y="-106" on="1"/>
        <pt x="106" y="811" on="1"/>
        <pt x="265" y="811" on="1"/>
      </contour>
    </TTGlyph>
    <TTGlyph name="beta" xMin="56" yMin="-224" xMax="586" yMax="760">
      <contour>
        <pt x="473" y="397" on="0"/>
        <pt x="586" y="311" on="0"/>
        <pt x="586" y="208" on="1"/>
        <pt x="586" y="142" on="0"/>
        <pt x="528" y="39" on="0"/>
        <pt x="422" y="-18" on="0"/>
        <pt x="352" y="-18" on="1"/>
        <pt x="283" y="-18" on="0"/>
        <pt x="219" y="26" on="1"/>
        <pt x="219" y="-200" on="1"/>
        <pt x="56" y="-224" on="1"/>
        <pt x="56" y="547" on="1"/>
        <pt x="56" y="614" on="0"/>
        <pt x="117" y="710" on="0"/>
        <pt x="226" y="760" on="0"/>
        <pt x="296" y="760" on="1"/>
        <pt x="367" y="760" on="0"/>
        <pt x="473" y="712" on="0"/>
        <pt x="529" y="628" on="0"/>
        <pt x="529" y="575" on="1"/>
        <pt x="529" y="508" on="0"/>
        <pt x="459" y="421" on="0"/>
        <pt x="392" y="405" on="1"/>
      </contour>
      <contour>
        <pt x="355" y="111" on="0"/>
        <pt x="414" y="166" on="0"/>
        <pt x="414" y="223" on="1"/>
        <pt x="414" y="341" on="0"/>
        <pt x="295" y="341" on="1"/>
        <pt x="258" y="341" on="1"/>
        <pt x="268" y="454" on="1"/>
        <pt x="287" y="454" on="1"/>
        <pt x="324" y="454" on="0"/>
        <pt x="364" y="505" on="0"/>
        <pt x="364" y="555" on="1"/>
        <pt x="364" y="599" on="0"/>
        <pt x="327" y="642" on="0"/>
        <pt x="293" y="642" on="1"/>
        <pt x="258" y="642" on="0"/>
        <pt x="219" y="595" on="0"/>
        <pt x="219" y="548" on="1"/>
        <pt x="219" y="132" on="1"/>
        <pt x="258" y="111" on="0"/>
        <pt x="311" y="111" on="1"/>
      </contour>
    </TTGlyph>
    <TTGlyph name="beta.sc" xMin="58" yMin="0" xMax="538" yMax="569">
      <component glyphName="b.sc" x="0" y="0" flags="0x0"/>
    </TTGlyph>
    <TTGlyph name="braceleft" xMin="7" yMin="-140" xMax="301" yMax="840">
      <contour>
        <pt x="301" y="723" on="1"/>
        <pt x="259" y="723" on="0"/>
        <pt x="229" y="697" on="0"/>
        <pt x="229" y="665" on="1"/>
        <pt x="229" y="489" on="1"/>
        <pt x="229" y="424" on="0"/>
        <pt x="176" y="363" on="0"/>
        <pt x="120" y="349" on="1"/>
        <pt x="175" y="338" on="0"/>
        <pt x="230" y="276" on="0"/>
        <pt x="230" y="211" on="1"/>
        <pt x="230" y="35" on="1"/>
        <pt x="230" y="3" on="0"/>
        <pt x="259" y="-23" on="0"/>
        <pt x="301" y="-23" on="1"/>
        <pt x="301" y="-140" on="1"/>
        <pt x="209" y="-140" on="0"/>
        <pt x="109" y="-103" on="0"/>
        <pt x="71" y="-31" on="0"/>
        <pt x="71" y="27" on="1"/>
        <pt x="71" y="198" on="1"/>
        <pt x="71" y="244" on="0"/>
        <pt x="44" y="280" on="0"/>
        <pt x="7" y="280" on="1"/>
        <pt x="7" y="419" on="1"/>
        <pt x="44" y="419" on="0"/>
        <pt x="71" y="456" on="0"/>
        <pt x="71" y="502" on="1"/>
        <pt x="71" y="673" on="1"/>
        <pt x="71" y="731" on="0"/>
        <pt x="109" y="803" on="0"/>
        <pt x="209" y="840" on="0"/>
        <pt x="301" y="840" on="1"/>
      </contour>
    </TTGlyph>
    <TTGlyph name="braceleft.case" xMin="7" yMin="-150" xMax="301" yMax="830">
      <component glyphName="braceleft" x="0" y="-10" flags="0x0"/>
    </TTGlyph>
    <TTGlyph name="braceright" xMin="23" yMin="-140" xMax="318" yMax="840">
      <contour>
        <pt x="115" y="840" on="0"/>
        <pt x="215" y="803" on="0"/>
        <pt x="253" y="731" on="0"/>
        <pt x="253" y="673" on="1"/>
        <pt x="253" y="502" on="1"/>
        <pt x="253" y="456" on="0"/>
        <pt x="280" y="419" on="0"/>
        <pt x="318" y="419" on="1"/>
        <pt x="318" y="280" on="1"/>
        <pt x="280" y="280" on="0"/>
        <pt x="253" y="244" on="0"/>
        <pt x="253" y="198" on="1"/>
        <pt x="253" y="27" on="1"/>
        <pt x="253" y="-31" on="0"/>
        <pt x="215" y="-103" on="0"/>
        <pt x="115" y="-140" on="0"/>
        <pt x="23" y="-140" on="1"/>
        <pt x="23" y="-23" on="1"/>
        <pt x="65" y="-23" on="0"/>
        <pt x="94" y="3" on="0"/>
        <pt x="94" y="35" on="1"/>
        <pt x="94" y="211" on="1"/>
        <pt x="94" y="276" on="0"/>
        <pt x="149" y="338" on="0"/>
        <pt x="204" y="349" on="1"/>
        <pt x="148" y="363" on="0"/>
        <pt x="95" y="424" on="0"/>
        <pt x="95" y="489" on="1"/>
        <pt x="95" y="665" on="1"/>
        <pt x="95" y="697" on="0"/>
        <pt x="65" y="723" on="0"/>
        <pt x="23" y="723" on="1"/>
        <pt x="23" y="840" on="1"/>
      </contour>
    </TTGlyph>
    <TTGlyph name="braceright.case" xMin="23" yMin="-150" xMax="318" yMax="830">
      <component glyphName="braceright" x="0" y="-10" flags="0x0"/>
    </TTGlyph>
    <TTGlyph name="bracketleft" xMin="28" yMin="-124" xMax="304" yMax="824">
      <contour>
        <pt x="304" y="699" on="1"/>
        <pt x="190" y="699" on="1"/>
        <pt x="190" y="0" on="1"/>
        <pt x="304" y="0" on="1"/>
        <pt x="304" y="-124" on="1"/>
        <pt x="28" y="-124" on="1"/>
        <pt x="28" y="824" on="1"/>
        <pt x="304" y="824" on="1"/>
      </contour>
    </TTGlyph>
    <TTGlyph name="bracketleft.case" xMin="28" yMin="-134" xMax="304" yMax="814">
      <component glyphName="bracketleft" x="0" y="-10" flags="0x0"/>
    </TTGlyph>
    <TTGlyph name="bracketright" xMin="21" yMin="-124" xMax="296" yMax="824">
      <contour>
        <pt x="296" y="-124" on="1"/>
        <pt x="21" y="-124" on="1"/>
        <pt x="21" y="1" on="1"/>
        <pt x="135" y="1" on="1"/>
        <pt x="135" y="699" on="1"/>
        <pt x="21" y="699" on="1"/>
        <pt x="21" y="824" on="1"/>
        <pt x="296" y="824" on="1"/>
      </contour>
    </TTGlyph>
    <TTGlyph name="bracketright.case" xMin="21" yMin="-134" xMax="296" yMax="814">
      <component glyphName="bracketright" x="0" y="-10" flags="0x0"/>
    </TTGlyph>
    <TTGlyph name="breve" xMin="30" yMin="630" xMax="382" yMax="826">
      <contour>
        <pt x="127" y="630" on="0"/>
        <pt x="36" y="732" on="0"/>
        <pt x="30" y="810" on="1"/>
        <pt x="122" y="826" on="1"/>
        <pt x="142" y="748" on="0"/>
        <pt x="206" y="748" on="1"/>
        <pt x="239" y="748" on="0"/>
        <pt x="282" y="789" on="0"/>
        <pt x="290" y="826" on="1"/>
        <pt x="382" y="810" on="1"/>
        <pt x="376" y="733" on="0"/>
        <pt x="284" y="630" on="0"/>
        <pt x="206" y="630" on="1"/>
      </contour>
    </TTGlyph>
    <TTGlyph name="breve.case" xMin="30" yMin="749" xMax="382" yMax="934">
      <contour>
        <pt x="128" y="749" on="0"/>
        <pt x="36" y="848" on="0"/>
        <pt x="30" y="919" on="1"/>
        <pt x="122" y="934" on="1"/>
        <pt x="132" y="904" on="0"/>
        <pt x="174" y="866" on="0"/>
        <pt x="206" y="866" on="1"/>
        <pt x="238" y="866" on="0"/>
        <pt x="281" y="904" on="0"/>
        <pt x="290" y="934" on="1"/>
        <pt x="382" y="919" on="1"/>
        <pt x="376" y="848" on="0"/>
        <pt x="283" y="749" on="0"/>
        <pt x="206" y="749" on="1"/>
      </contour>
    </TTGlyph>
    <TTGlyph name="breve.sc" xMin="30" yMin="660" xMax="382" yMax="856">
      <component glyphName="uni0306" x="412" y="30" flags="0x0"/>
    </TTGlyph>
    <TTGlyph name="brevecy" xMin="30" yMin="630" xMax="382" yMax="807">
      <contour>
        <pt x="126" y="630" on="0"/>
        <pt x="36" y="718" on="0"/>
        <pt x="30" y="791" on="1"/>
        <pt x="122" y="807" on="1"/>
        <pt x="131" y="776" on="0"/>
        <pt x="171" y="748" on="0"/>
        <pt x="206" y="748" on="1"/>
        <pt x="240" y="748" on="0"/>
        <pt x="282" y="776" on="0"/>
        <pt x="290" y="807" on="1"/>
        <pt x="382" y="791" on="1"/>
        <pt x="376" y="718" on="0"/>
        <pt x="285" y="630" on="0"/>
        <pt x="206" y="630" on="1"/>
      </contour>
    </TTGlyph>
    <TTGlyph name="brevecy.case" xMin="30" yMin="756" xMax="382" yMax="933">
      <contour>
        <pt x="126" y="756" on="0"/>
        <pt x="36" y="844" on="0"/>
        <pt x="30" y="917" on="1"/>
        <pt x="122" y="933" on="1"/>
        <pt x="131" y="902" on="0"/>
        <pt x="171" y="874" on="0"/>
        <pt x="206" y="874" on="1"/>
        <pt x="240" y="874" on="0"/>
        <pt x="282" y="902" on="0"/>
        <pt x="290" y="933" on="1"/>
        <pt x="382" y="917" on="1"/>
        <pt x="376" y="844" on="0"/>
        <pt x="285" y="756" on="0"/>
        <pt x="206" y="756" on="1"/>
      </contour>
    </TTGlyph>
    <TTGlyph name="brevecy.sc" xMin="30" yMin="660" xMax="382" yMax="837">
      <contour>
        <pt x="126" y="660" on="0"/>
        <pt x="36" y="748" on="0"/>
        <pt x="30" y="821" on="1"/>
        <pt x="122" y="837" on="1"/>
        <pt x="131" y="806" on="0"/>
        <pt x="171" y="778" on="0"/>
        <pt x="206" y="778" on="1"/>
        <pt x="240" y="778" on="0"/>
        <pt x="282" y="806" on="0"/>
        <pt x="290" y="837" on="1"/>
        <pt x="382" y="821" on="1"/>
        <pt x="376" y="748" on="0"/>
        <pt x="285" y="660" on="0"/>
        <pt x="206" y="660" on="1"/>
      </contour>
    </TTGlyph>
    <TTGlyph name="brokenbar" xMin="106" yMin="-106" xMax="265" yMax="811">
      <contour>
        <pt x="265" y="443" on="1"/>
        <pt x="106" y="443" on="1"/>
        <pt x="106" y="811" on="1"/>
        <pt x="265" y="811" on="1"/>
      </contour>
      <contour>
        <pt x="265" y="-106" on="1"/>
        <pt x="106" y="-106" on="1"/>
        <pt x="106" y="262" on="1"/>
        <pt x="265" y="262" on="1"/>
      </contour>
    </TTGlyph>
    <TTGlyph name="bullet" xMin="32" yMin="199" xMax="318" yMax="484">
      <contour>
        <pt x="237" y="484" on="0"/>
        <pt x="318" y="403" on="0"/>
        <pt x="318" y="341" on="1"/>
        <pt x="318" y="280" on="0"/>
        <pt x="237" y="199" on="0"/>
        <pt x="175" y="199" on="1"/>
        <pt x="135" y="199" on="0"/>
        <pt x="70" y="237" on="0"/>
        <pt x="32" y="302" on="0"/>
        <pt x="32" y="342" on="1"/>
        <pt x="32" y="403" on="0"/>
        <pt x="114" y="484" on="0"/>
        <pt x="175" y="484" on="1"/>
      </contour>
    </TTGlyph>
    <TTGlyph name="c" xMin="28" yMin="-18" xMax="478" yMax="550">
      <contour>
        <pt x="350" y="550" on="0"/>
        <pt x="440" y="517" on="0"/>
        <pt x="478" y="483" on="1"/>
        <pt x="406" y="383" on="1"/>
        <pt x="359" y="420" on="0"/>
        <pt x="307" y="420" on="1"/>
        <pt x="257" y="420" on="0"/>
        <pt x="205" y="346" on="0"/>
        <pt x="205" y="262" on="1"/>
        <pt x="205" y="181" on="0"/>
        <pt x="257" y="115" on="0"/>
        <pt x="306" y="115" on="1"/>
        <pt x="332" y="115" on="0"/>
        <pt x="374" y="132" on="0"/>
        <pt x="405" y="151" on="1"/>
        <pt x="478" y="46" on="1"/>
        <pt x="399" y="-18" on="0"/>
        <pt x="297" y="-18" on="1"/>
        <pt x="215" y="-18" on="0"/>
        <pt x="93" y="52" on="0"/>
        <pt x="28" y="178" on="0"/>
        <pt x="28" y="262" on="1"/>
        <pt x="28" y="346" on="0"/>
        <pt x="93" y="477" on="0"/>
        <pt x="213" y="550" on="0"/>
        <pt x="293" y="550" on="1"/>
      </contour>
    </TTGlyph>
    <TTGlyph name="c.sc" xMin="29" yMin="-16" xMax="511" yMax="584">
      <contour>
        <pt x="422" y="584" on="0"/>
        <pt x="503" y="516" on="1"/>
        <pt x="423" y="421" on="1"/>
        <pt x="377" y="462" on="0"/>
        <pt x="319" y="462" on="1"/>
        <pt x="266" y="462" on="0"/>
        <pt x="205" y="372" on="0"/>
        <pt x="205" y="287" on="1"/>
        <pt x="205" y="199" on="0"/>
        <pt x="267" y="111" on="0"/>
        <pt x="324" y="111" on="1"/>
        <pt x="353" y="111" on="0"/>
        <pt x="405" y="135" on="0"/>
        <pt x="436" y="158" on="1"/>
        <pt x="511" y="63" on="1"/>
        <pt x="475" y="28" on="0"/>
        <pt x="374" y="-16" on="0"/>
        <pt x="312" y="-16" on="1"/>
        <pt x="182" y="-16" on="0"/>
        <pt x="29" y="141" on="0"/>
        <pt x="29" y="287" on="1"/>
        <pt x="29" y="378" on="0"/>
        <pt x="101" y="513" on="0"/>
        <pt x="228" y="584" on="0"/>
        <pt x="310" y="584" on="1"/>
      </contour>
    </TTGlyph>
    <TTGlyph name="cacute" xMin="28" yMin="-18" xMax="478" yMax="841">
      <component glyphName="c" x="0" y="0" flags="0x0"/>
      <component glyphName="acutecomb" x="457" y="0" flags="0x0"/>
    </TTGlyph>
    <TTGlyph name="cacute.loclPLK" xMin="28" yMin="-18" xMax="478" yMax="815">
      <component glyphName="c" x="0" y="0" flags="0x0"/>
      <component glyphName="acute.loclPLK" x="117" y="0" flags="0x0"/>
    </TTGlyph>
    <TTGlyph name="cacute.sc" xMin="29" yMin="-16" xMax="511" yMax="871">
      <component glyphName="c.sc" x="0" y="0" flags="0x0"/>
      <component glyphName="acutecomb.sc" x="137" y="0" flags="0x0"/>
    </TTGlyph>
    <TTGlyph name="cacute.sc.loclPLK" xMin="29" yMin="-16" xMax="511" yMax="861">
      <component glyphName="c.sc" x="0" y="0" flags="0x0"/>
      <component glyphName="acute.sc.loclPLK" x="147" y="0" flags="0x0"/>
    </TTGlyph>
    <TTGlyph name="caron" xMin="30" yMin="609" xMax="418" yMax="818">
      <contour>
        <pt x="418" y="750" on="1"/>
        <pt x="276" y="609" on="1"/>
        <pt x="173" y="609" on="1"/>
        <pt x="30" y="750" on="1"/>
        <pt x="90" y="818" on="1"/>
        <pt x="224" y="725" on="1"/>
        <pt x="358" y="818" on="1"/>
      </contour>
    </TTGlyph>
    <TTGlyph name="caron.alt" xMin="64" yMin="473" xMax="214" yMax="712">
      <contour>
        <pt x="214" y="693" on="1"/>
        <pt x="158" y="473" on="1"/>
        <pt x="64" y="487" on="1"/>
        <pt x="88" y="712" on="1"/>
      </contour>
    </TTGlyph>
    <TTGlyph name="caron.case" xMin="30" yMin="749" xMax="418" yMax="950">
      <contour>
        <pt x="418" y="882" on="1"/>
        <pt x="276" y="749" on="1"/>
        <pt x="173" y="749" on="1"/>
        <pt x="30" y="882" on="1"/>
        <pt x="90" y="950" on="1"/>
        <pt x="224" y="866" on="1"/>
        <pt x="358" y="950" on="1"/>
      </contour>
    </TTGlyph>
    <TTGlyph name="caron.sc" xMin="30" yMin="639" xMax="418" yMax="848">
      <component glyphName="uni030C" x="448" y="30" flags="0x0"/>
    </TTGlyph>
    <TTGlyph name="ccaron" xMin="28" yMin="-18" xMax="485" yMax="818">
      <component glyphName="c" x="0" y="0" flags="0x0"/>
      <component glyphName="uni030C" x="515" y="0" flags="0x0"/>
    </TTGlyph>
    <TTGlyph name="ccaron.sc" xMin="29" yMin="-16" xMax="512" yMax="848">
      <component glyphName="c.sc" x="0" y="0" flags="0x0"/>
      <component glyphName="uni030C.sc" x="94" y="0" flags="0x0"/>
    </TTGlyph>
    <TTGlyph name="ccedilla" xMin="28" yMin="-266" xMax="478" yMax="550">
      <contour>
        <pt x="410" y="-9" on="0"/>
        <pt x="326" y="-17" on="1"/>
        <pt x="326" y="-46" on="1"/>
        <pt x="379" y="-53" on="0"/>
        <pt x="431" y="-105" on="0"/>
        <pt x="431" y="-148" on="1"/>
        <pt x="431" y="-201" on="0"/>
        <pt x="348" y="-266" on="0"/>
        <pt x="278" y="-266" on="1"/>
        <pt x="244" y="-266" on="0"/>
        <pt x="183" y="-249" on="0"/>
        <pt x="162" y="-235" on="1"/>
        <pt x="200" y="-158" on="1"/>
        <pt x="234" y="-175" on="0"/>
        <pt x="264" y="-175" on="1"/>
        <pt x="310" y="-175" on="0"/>
        <pt x="310" y="-147" on="1"/>
        <pt x="310" y="-130" on="0"/>
        <pt x="266" y="-114" on="0"/>
        <pt x="218" y="-114" on="1"/>
        <pt x="231" y="-12" on="1"/>
        <pt x="135" y="7" on="0"/>
        <pt x="28" y="153" on="0"/>
        <pt x="28" y="262" on="1"/>
        <pt x="28" y="346" on="0"/>
        <pt x="93" y="477" on="0"/>
        <pt x="213" y="550" on="0"/>
        <pt x="293" y="550" on="1"/>
        <pt x="350" y="550" on="0"/>
        <pt x="440" y="517" on="0"/>
        <pt x="478" y="483" on="1"/>
        <pt x="406" y="383" on="1"/>
        <pt x="359" y="420" on="0"/>
        <pt x="307" y="420" on="1"/>
        <pt x="257" y="420" on="0"/>
        <pt x="205" y="346" on="0"/>
        <pt x="205" y="262" on="1"/>
        <pt x="205" y="181" on="0"/>
        <pt x="257" y="115" on="0"/>
        <pt x="306" y="115" on="1"/>
        <pt x="332" y="115" on="0"/>
        <pt x="374" y="132" on="0"/>
        <pt x="405" y="151" on="1"/>
        <pt x="478" y="46" on="1"/>
      </contour>
    </TTGlyph>
    <TTGlyph name="ccedilla.sc" xMin="29" yMin="-266" xMax="511" yMax="584">
      <contour>
        <pt x="403" y="-53" on="0"/>
        <pt x="455" y="-105" on="0"/>
        <pt x="455" y="-148" on="1"/>
        <pt x="455" y="-201" on="0"/>
        <pt x="372" y="-266" on="0"/>
        <pt x="302" y="-266" on="1"/>
        <pt x="268" y="-266" on="0"/>
        <pt x="207" y="-249" on="0"/>
        <pt x="186" y="-235" on="1"/>
        <pt x="224" y="-158" on="1"/>
        <pt x="258" y="-175" on="0"/>
        <pt x="288" y="-175" on="1"/>
        <pt x="334" y="-175" on="0"/>
        <pt x="334" y="-147" on="1"/>
        <pt x="334" y="-130" on="0"/>
        <pt x="290" y="-114" on="0"/>
        <pt x="242" y="-114" on="1"/>
        <pt x="255" y="-12" on="1"/>
        <pt x="149" y="5" on="0"/>
        <pt x="29" y="158" on="0"/>
        <pt x="29" y="287" on="1"/>
        <pt x="29" y="378" on="0"/>
        <pt x="101" y="513" on="0"/>
        <pt x="228" y="584" on="0"/>
        <pt x="310" y="584" on="1"/>
        <pt x="422" y="584" on="0"/>
        <pt x="503" y="516" on="1"/>
        <pt x="423" y="421" on="1"/>
        <pt x="377" y="462" on="0"/>
        <pt x="319" y="462" on="1"/>
        <pt x="266" y="462" on="0"/>
        <pt x="205" y="372" on="0"/>
        <pt x="205" y="287" on="1"/>
        <pt x="205" y="199" on="0"/>
        <pt x="267" y="111" on="0"/>
        <pt x="324" y="111" on="1"/>
        <pt x="353" y="111" on="0"/>
        <pt x="405" y="135" on="0"/>
        <pt x="436" y="158" on="1"/>
        <pt x="511" y="63" on="1"/>
        <pt x="481" y="34" on="0"/>
        <pt x="399" y="-8" on="0"/>
        <pt x="350" y="-14" on="1"/>
        <pt x="350" y="-46" on="1"/>
      </contour>
    </TTGlyph>
    <TTGlyph name="ccircumflex" xMin="28" yMin="-18" xMax="485" yMax="827">
      <component glyphName="c" x="0" y="0" flags="0x0"/>
      <component glyphName="uni0302" x="515" y="0" flags="0x0"/>
    </TTGlyph>
    <TTGlyph name="ccircumflex.sc" xMin="29" yMin="-16" xMax="512" yMax="857">
      <component glyphName="c.sc" x="0" y="0" flags="0x0"/>
      <component glyphName="uni0302.sc" x="94" y="0" flags="0x0"/>
    </TTGlyph>
    <TTGlyph name="cdotaccent" xMin="28" yMin="-18" xMax="478" yMax="816">
      <component glyphName="c" x="0" y="0" flags="0x0"/>
      <component glyphName="uni0307" x="419" y="0" flags="0x0"/>
    </TTGlyph>
    <TTGlyph name="cdotaccent.sc" xMin="29" yMin="-16" xMax="511" yMax="846">
      <component glyphName="c.sc" x="0" y="0" flags="0x0"/>
      <component glyphName="uni0307.sc" x="189" y="0" flags="0x0"/>
    </TTGlyph>
    <TTGlyph name="cedilla" xMin="30" yMin="-266" xMax="299" yMax="16">
      <contour>
        <pt x="194" y="-46" on="1"/>
        <pt x="247" y="-53" on="0"/>
        <pt x="299" y="-105" on="0"/>
        <pt x="299" y="-148" on="1"/>
        <pt x="299" y="-201" on="0"/>
        <pt x="216" y="-266" on="0"/>
        <pt x="146" y="-266" on="1"/>
        <pt x="112" y="-266" on="0"/>
        <pt x="51" y="-249" on="0"/>
        <pt x="30" y="-235" on="1"/>
        <pt x="68" y="-158" on="1"/>
        <pt x="102" y="-175" on="0"/>
        <pt x="132" y="-175" on="1"/>
        <pt x="178" y="-175" on="0"/>
        <pt x="178" y="-147" on="1"/>
        <pt x="178" y="-130" on="0"/>
        <pt x="134" y="-114" on="0"/>
        <pt x="86" y="-114" on="1"/>
        <pt x="102" y="16" on="1"/>
        <pt x="194" y="16" on="1"/>
      </contour>
    </TTGlyph>
    <TTGlyph name="cedilla.case" xMin="30" yMin="-266" xMax="299" yMax="16">
      <component glyphName="uni0327" x="329" y="0" flags="0x0"/>
    </TTGlyph>
    <TTGlyph name="cedilla.sc" xMin="30" yMin="-266" xMax="299" yMax="16">
      <component glyphName="uni0327" x="329" y="0" flags="0x0"/>
    </TTGlyph>
    <TTGlyph name="cent" xMin="53" yMin="-162" xMax="503" yMax="693">
      <contour>
        <pt x="503" y="46" on="1"/>
        <pt x="444" y="-2" on="0"/>
        <pt x="374" y="-14" on="1"/>
        <pt x="374" y="-162" on="1"/>
        <pt x="254" y="-162" on="1"/>
        <pt x="254" y="-11" on="1"/>
        <pt x="160" y="8" on="0"/>
        <pt x="53" y="154" on="0"/>
        <pt x="53" y="262" on="1"/>
        <pt x="53" y="372" on="0"/>
        <pt x="161" y="524" on="0"/>
        <pt x="255" y="544" on="1"/>
        <pt x="255" y="693" on="1"/>
        <pt x="374" y="693" on="1"/>
        <pt x="374" y="545" on="1"/>
        <pt x="446" y="533" on="0"/>
        <pt x="503" y="483" on="1"/>
        <pt x="431" y="383" on="1"/>
        <pt x="406" y="402" on="0"/>
        <pt x="359" y="420" on="0"/>
        <pt x="332" y="420" on="1"/>
        <pt x="282" y="420" on="0"/>
        <pt x="231" y="346" on="0"/>
        <pt x="231" y="262" on="1"/>
        <pt x="231" y="181" on="0"/>
        <pt x="283" y="115" on="0"/>
        <pt x="331" y="115" on="1"/>
        <pt x="357" y="115" on="0"/>
        <pt x="399" y="131" on="0"/>
        <pt x="430" y="151" on="1"/>
      </contour>
    </TTGlyph>
    <TTGlyph name="cent.lf" xMin="28" yMin="-162" xMax="478" yMax="693">
      <contour>
        <pt x="478" y="46" on="1"/>
        <pt x="421" y="-1" on="0"/>
        <pt x="349" y="-14" on="1"/>
        <pt x="349" y="-162" on="1"/>
        <pt x="228" y="-162" on="1"/>
        <pt x="228" y="-11" on="1"/>
        <pt x="134" y="9" on="0"/>
        <pt x="28" y="154" on="0"/>
        <pt x="28" y="262" on="1"/>
        <pt x="28" y="371" on="0"/>
        <pt x="136" y="523" on="0"/>
        <pt x="229" y="543" on="1"/>
        <pt x="229" y="693" on="1"/>
        <pt x="349" y="693" on="1"/>
        <pt x="349" y="545" on="1"/>
        <pt x="419" y="534" on="0"/>
        <pt x="478" y="483" on="1"/>
        <pt x="406" y="383" on="1"/>
        <pt x="359" y="420" on="0"/>
        <pt x="307" y="420" on="1"/>
        <pt x="257" y="420" on="0"/>
        <pt x="205" y="346" on="0"/>
        <pt x="205" y="262" on="1"/>
        <pt x="205" y="181" on="0"/>
        <pt x="257" y="115" on="0"/>
        <pt x="306" y="115" on="1"/>
        <pt x="332" y="115" on="0"/>
        <pt x="374" y="132" on="0"/>
        <pt x="405" y="151" on="1"/>
      </contour>
    </TTGlyph>
    <TTGlyph name="cent.osf" xMin="28" yMin="-162" xMax="478" yMax="693">
      <component glyphName="cent.lf" x="0" y="0" flags="0x0"/>
    </TTGlyph>
    <TTGlyph name="cent.tosf" xMin="53" yMin="-162" xMax="503" yMax="693">
      <component glyphName="cent" x="0" y="0" flags="0x0"/>
    </TTGlyph>
    <TTGlyph name="chi" xMin="-25" yMin="-223" xMax="515" yMax="546">
      <contour>
        <pt x="515" y="-195" on="1"/>
        <pt x="345" y="-223" on="1"/>
        <pt x="247" y="50" on="1"/>
        <pt x="154" y="-223" on="1"/>
        <pt x="-19" y="-205" on="1"/>
        <pt x="162" y="182" on="1"/>
        <pt x="103" y="308" on="0"/>
        <pt x="23" y="445" on="0"/>
        <pt x="-25" y="496" on="1"/>
        <pt x="141" y="546" on="1"/>
        <pt x="176" y="493" on="0"/>
        <pt x="219" y="397" on="0"/>
        <pt x="250" y="295" on="1"/>
        <pt x="319" y="545" on="1"/>
        <pt x="493" y="528" on="1"/>
        <pt x="336" y="185" on="1"/>
      </contour>
    </TTGlyph>
    <TTGlyph name="chi.sc" xMin="-6" yMin="0" xMax="527" yMax="569">
      <component glyphName="x.sc" x="0" y="0" flags="0x0"/>
    </TTGlyph>
    <TTGlyph name="circumflex" xMin="30" yMin="618" xMax="418" yMax="827">
      <contour>
        <pt x="30" y="686" on="1"/>
        <pt x="172" y="827" on="1"/>
        <pt x="275" y="827" on="1"/>
        <pt x="418" y="686" on="1"/>
        <pt x="358" y="618" on="1"/>
        <pt x="224" y="711" on="1"/>
        <pt x="90" y="618" on="1"/>
      </contour>
    </TTGlyph>
    <TTGlyph name="circumflex.case" xMin="30" yMin="754" xMax="418" yMax="955">
      <contour>
        <pt x="224" y="839" on="1"/>
        <pt x="90" y="754" on="1"/>
        <pt x="30" y="822" on="1"/>
        <pt x="173" y="955" on="1"/>
        <pt x="276" y="955" on="1"/>
        <pt x="418" y="822" on="1"/>
        <pt x="358" y="754" on="1"/>
      </contour>
    </TTGlyph>
    <TTGlyph name="circumflex.sc" xMin="30" yMin="648" xMax="418" yMax="857">
      <component glyphName="uni0302" x="448" y="30" flags="0x0"/>
    </TTGlyph>
    <TTGlyph name="colon" xMin="26" yMin="-18" xMax="214" yMax="170">
      <component glyphName="period" x="0" y="0" flags="0x0"/>
      <component glyphName="period" x="0" y="342" flags="0x0"/>
    </TTGlyph>
    <TTGlyph name="comma" xMin="24" yMin="-179" xMax="214" yMax="170">
      <contour>
        <pt x="161" y="170" on="0"/>
        <pt x="214" y="117" on="0"/>
        <pt x="214" y="76" on="1"/>
        <pt x="214" y="54" on="0"/>
        <pt x="199" y="8" on="0"/>
        <pt x="180" y="-36" on="1"/>
        <pt x="117" y="-179" on="1"/>
        <pt x="24" y="-179" on="1"/>
        <pt x="67" y="-1" on="1"/>
        <pt x="26" y="26" on="0"/>
        <pt x="26" y="77" on="1"/>
        <pt x="26" y="117" on="0"/>
        <pt x="80" y="170" on="0"/>
        <pt x="120" y="170" on="1"/>
      </contour>
    </TTGlyph>
    <TTGlyph name="copyright" xMin="63" yMin="95" xMax="747" yMax="769">
      <contour>
        <pt x="500" y="769" on="0"/>
        <pt x="656" y="680" on="0"/>
        <pt x="747" y="525" on="0"/>
        <pt x="747" y="432" on="1"/>
        <pt x="747" y="339" on="0"/>
        <pt x="656" y="184" on="0"/>
        <pt x="500" y="95" on="0"/>
        <pt x="406" y="95" on="1"/>
        <pt x="312" y="95" on="0"/>
        <pt x="155" y="185" on="0"/>
        <pt x="63" y="339" on="0"/>
        <pt x="63" y="432" on="1"/>
        <pt x="63" y="525" on="0"/>
        <pt x="155" y="679" on="0"/>
        <pt x="312" y="769" on="0"/>
        <pt x="406" y="769" on="1"/>
      </contour>
      <contour>
        <pt x="337" y="685" on="0"/>
        <pt x="224" y="618" on="0"/>
        <pt x="160" y="502" on="0"/>
        <pt x="160" y="432" on="1"/>
        <pt x="160" y="362" on="0"/>
        <pt x="224" y="247" on="0"/>
        <pt x="337" y="180" on="0"/>
        <pt x="406" y="180" on="1"/>
        <pt x="475" y="180" on="0"/>
        <pt x="587" y="247" on="0"/>
        <pt x="651" y="362" on="0"/>
        <pt x="651" y="432" on="1"/>
        <pt x="651" y="502" on="0"/>
        <pt x="587" y="618" on="0"/>
        <pt x="475" y="685" on="0"/>
        <pt x="406" y="685" on="1"/>
      </contour>
      <contour>
        <pt x="445" y="631" on="0"/>
        <pt x="514" y="603" on="0"/>
        <pt x="541" y="578" on="1"/>
        <pt x="490" y="515" on="1"/>
        <pt x="472" y="529" on="0"/>
        <pt x="441" y="539" on="0"/>
        <pt x="421" y="539" on="1"/>
        <pt x="388" y="539" on="0"/>
        <pt x="349" y="488" on="0"/>
        <pt x="349" y="433" on="1"/>
        <pt x="349" y="326" on="0"/>
        <pt x="419" y="326" on="1"/>
        <pt x="462" y="326" on="0"/>
        <pt x="499" y="356" on="1"/>
        <pt x="545" y="288" on="1"/>
        <pt x="518" y="262" on="0"/>
        <pt x="448" y="234" on="0"/>
        <pt x="409" y="234" on="1"/>
        <pt x="325" y="234" on="0"/>
        <pt x="229" y="338" on="0"/>
        <pt x="229" y="433" on="1"/>
        <pt x="229" y="493" on="0"/>
        <pt x="275" y="583" on="0"/>
        <pt x="356" y="631" on="0"/>
        <pt x="408" y="631" on="1"/>
      </contour>
    </TTGlyph>
    <TTGlyph name="currency" xMin="13" yMin="76" xMax="544" yMax="608">
      <component glyphName="currency.lf" x="-2" y="0" flags="0x0"/>
    </TTGlyph>
    <TTGlyph name="currency.lf" xMin="15" yMin="76" xMax="546" yMax="608">
      <contour>
        <pt x="503" y="276" on="0"/>
        <pt x="470" y="224" on="1"/>
        <pt x="546" y="149" on="1"/>
        <pt x="473" y="76" on="1"/>
        <pt x="395" y="152" on="1"/>
        <pt x="342" y="123" on="0"/>
        <pt x="280" y="123" on="1"/>
        <pt x="219" y="123" on="0"/>
        <pt x="166" y="152" on="1"/>
        <pt x="88" y="76" on="1"/>
        <pt x="15" y="149" on="1"/>
        <pt x="91" y="225" on="1"/>
        <pt x="59" y="278" on="0"/>
        <pt x="59" y="342" on="1"/>
        <pt x="59" y="404" on="0"/>
        <pt x="91" y="458" on="1"/>
        <pt x="15" y="536" on="1"/>
        <pt x="88" y="608" on="1"/>
        <pt x="166" y="530" on="1"/>
        <pt x="218" y="560" on="0"/>
        <pt x="280" y="560" on="1"/>
        <pt x="343" y="560" on="0"/>
        <pt x="396" y="531" on="1"/>
        <pt x="473" y="608" on="1"/>
        <pt x="546" y="536" on="1"/>
        <pt x="470" y="459" on="1"/>
        <pt x="503" y="407" on="0"/>
        <pt x="503" y="342" on="1"/>
      </contour>
      <contour>
        <pt x="326" y="236" on="0"/>
        <pt x="373" y="291" on="0"/>
        <pt x="373" y="342" on="1"/>
        <pt x="373" y="392" on="0"/>
        <pt x="326" y="447" on="0"/>
        <pt x="281" y="447" on="1"/>
        <pt x="235" y="447" on="0"/>
        <pt x="187" y="392" on="0"/>
        <pt x="187" y="342" on="1"/>
        <pt x="187" y="291" on="0"/>
        <pt x="235" y="236" on="0"/>
        <pt x="281" y="236" on="1"/>
      </contour>
    </TTGlyph>
    <TTGlyph name="currency.osf" xMin="15" yMin="76" xMax="546" yMax="608">
      <component glyphName="currency.lf" x="0" y="0" flags="0x0"/>
    </TTGlyph>
    <TTGlyph name="currency.tosf" xMin="15" yMin="76" xMax="546" yMax="608">
      <component glyphName="currency.lf" x="0" y="0" flags="0x0"/>
    </TTGlyph>
    <TTGlyph name="d" xMin="33" yMin="-18" xMax="544" yMax="760">
      <contour>
        <pt x="544" y="743" on="1"/>
        <pt x="544" y="0" on="1"/>
        <pt x="393" y="0" on="1"/>
        <pt x="386" y="60" on="1"/>
        <pt x="330" y="-18" on="0"/>
        <pt x="235" y="-18" on="1"/>
        <pt x="135" y="-18" on="0"/>
        <pt x="33" y="134" on="0"/>
        <pt x="33" y="268" on="1"/>
        <pt x="33" y="350" on="0"/>
        <pt x="86" y="478" on="0"/>
        <pt x="187" y="550" on="0"/>
        <pt x="255" y="550" on="1"/>
        <pt x="289" y="550" on="0"/>
        <pt x="350" y="525" on="0"/>
        <pt x="374" y="502" on="1"/>
        <pt x="374" y="760" on="1"/>
      </contour>
      <contour>
        <pt x="340" y="106" on="0"/>
        <pt x="374" y="162" on="1"/>
        <pt x="374" y="387" on="1"/>
        <pt x="356" y="407" on="0"/>
        <pt x="322" y="427" on="0"/>
        <pt x="299" y="427" on="1"/>
        <pt x="257" y="427" on="0"/>
        <pt x="208" y="349" on="0"/>
        <pt x="208" y="267" on="1"/>
        <pt x="208" y="175" on="0"/>
        <pt x="251" y="106" on="0"/>
        <pt x="291" y="106" on="1"/>
      </contour>
    </TTGlyph>
    <TTGlyph name="d.sc" xMin="58" yMin="0" xMax="562" yMax="569">
      <contour>
        <pt x="389" y="569" on="0"/>
        <pt x="562" y="448" on="0"/>
        <pt x="562" y="288" on="1"/>
        <pt x="562" y="0" on="0"/>
        <pt x="256" y="0" on="1"/>
        <pt x="58" y="0" on="1"/>
        <pt x="58" y="569" on="1"/>
        <pt x="245" y="569" on="1"/>
      </contour>
      <contour>
        <pt x="227" y="450" on="1"/>
        <pt x="227" y="119" on="1"/>
        <pt x="266" y="119" on="1"/>
        <pt x="330" y="119" on="0"/>
        <pt x="389" y="194" on="0"/>
        <pt x="389" y="288" on="1"/>
        <pt x="389" y="379" on="0"/>
        <pt x="328" y="450" on="0"/>
        <pt x="265" y="450" on="1"/>
      </contour>
    </TTGlyph>
    <TTGlyph name="dagger" xMin="27" yMin="0" xMax="528" yMax="694">
      <contour>
        <pt x="357" y="555" on="1"/>
        <pt x="528" y="555" on="1"/>
        <pt x="528" y="418" on="1"/>
        <pt x="357" y="418" on="1"/>
        <pt x="357" y="0" on="1"/>
        <pt x="199" y="0" on="1"/>
        <pt x="199" y="418" on="1"/>
        <pt x="27" y="418" on="1"/>
        <pt x="27" y="555" on="1"/>
        <pt x="199" y="555" on="1"/>
        <pt x="199" y="694" on="1"/>
        <pt x="357" y="694" on="1"/>
      </contour>
    </TTGlyph>
    <TTGlyph name="dagger.lf" xMin="22" yMin="0" xMax="510" yMax="677">
      <contour>
        <pt x="345" y="538" on="1"/>
        <pt x="510" y="538" on="1"/>
        <pt x="510" y="401" on="1"/>
        <pt x="345" y="401" on="1"/>
        <pt x="345" y="0" on="1"/>
        <pt x="187" y="0" on="1"/>
        <pt x="187" y="401" on="1"/>
        <pt x="22" y="401" on="1"/>
        <pt x="22" y="538" on="1"/>
        <pt x="187" y="538" on="1"/>
        <pt x="187" y="677" on="1"/>
        <pt x="345" y="677" on="1"/>
      </contour>
    </TTGlyph>
    <TTGlyph name="dagger.osf" xMin="22" yMin="0" xMax="510" yMax="677">
      <component glyphName="dagger.lf" x="0" y="0" flags="0x0"/>
    </TTGlyph>
    <TTGlyph name="dagger.tosf" xMin="36" yMin="0" xMax="524" yMax="677">
      <component glyphName="dagger.lf" x="14" y="0" flags="0x0"/>
    </TTGlyph>
    <TTGlyph name="daggerdbl" xMin="25" yMin="0" xMax="526" yMax="694">
      <contour>
        <pt x="355" y="418" on="1"/>
        <pt x="355" y="288" on="1"/>
        <pt x="525" y="288" on="1"/>
        <pt x="525" y="151" on="1"/>
        <pt x="355" y="151" on="1"/>
        <pt x="355" y="0" on="1"/>
        <pt x="197" y="0" on="1"/>
        <pt x="197" y="151" on="1"/>
        <pt x="31" y="151" on="1"/>
        <pt x="31" y="288" on="1"/>
        <pt x="197" y="288" on="1"/>
        <pt x="197" y="418" on="1"/>
        <pt x="25" y="418" on="1"/>
        <pt x="25" y="555" on="1"/>
        <pt x="197" y="555" on="1"/>
        <pt x="197" y="694" on="1"/>
        <pt x="355" y="694" on="1"/>
        <pt x="355" y="555" on="1"/>
        <pt x="526" y="555" on="1"/>
        <pt x="526" y="418" on="1"/>
      </contour>
    </TTGlyph>
    <TTGlyph name="daggerdbl.lf" xMin="22" yMin="0" xMax="510" yMax="677">
      <contour>
        <pt x="345" y="401" on="1"/>
        <pt x="345" y="279" on="1"/>
        <pt x="510" y="279" on="1"/>
        <pt x="510" y="142" on="1"/>
        <pt x="345" y="142" on="1"/>
        <pt x="345" y="0" on="1"/>
        <pt x="187" y="0" on="1"/>
        <pt x="187" y="142" on="1"/>
        <pt x="22" y="142" on="1"/>
        <pt x="22" y="279" on="1"/>
        <pt x="187" y="279" on="1"/>
        <pt x="187" y="401" on="1"/>
        <pt x="22" y="401" on="1"/>
        <pt x="22" y="538" on="1"/>
        <pt x="187" y="538" on="1"/>
        <pt x="187" y="677" on="1"/>
        <pt x="345" y="677" on="1"/>
        <pt x="345" y="538" on="1"/>
        <pt x="510" y="538" on="1"/>
        <pt x="510" y="401" on="1"/>
      </contour>
    </TTGlyph>
    <TTGlyph name="daggerdbl.osf" xMin="22" yMin="0" xMax="510" yMax="677">
      <component glyphName="daggerdbl.lf" x="0" y="0" flags="0x0"/>
    </TTGlyph>
    <TTGlyph name="daggerdbl.tosf" xMin="36" yMin="0" xMax="524" yMax="677">
      <component glyphName="daggerdbl.lf" x="14" y="0" flags="0x0"/>
    </TTGlyph>
    <TTGlyph name="dcaron" xMin="33" yMin="-18" xMax="731" yMax="761">
      <component glyphName="d" x="0" y="0" flags="0x0"/>
      <component glyphName="caron.alt" x="517" y="49" flags="0x0"/>
    </TTGlyph>
    <TTGlyph name="dcaron.sc" xMin="58" yMin="0" xMax="562" yMax="848">
      <component glyphName="d.sc" x="0" y="0" flags="0x0"/>
      <component glyphName="uni030C.sc" x="45" y="0" flags="0x0"/>
    </TTGlyph>
    <TTGlyph name="dcroat" xMin="33" yMin="-18" xMax="603" yMax="760">
      <contour>
        <pt x="603" y="691" on="1"/>
        <pt x="603" y="594" on="1"/>
        <pt x="544" y="594" on="1"/>
        <pt x="544" y="0" on="1"/>
        <pt x="393" y="0" on="1"/>
        <pt x="386" y="60" on="1"/>
        <pt x="330" y="-18" on="0"/>
        <pt x="235" y="-18" on="1"/>
        <pt x="135" y="-18" on="0"/>
        <pt x="33" y="134" on="0"/>
        <pt x="33" y="268" on="1"/>
        <pt x="33" y="350" on="0"/>
        <pt x="86" y="478" on="0"/>
        <pt x="187" y="550" on="0"/>
        <pt x="255" y="550" on="1"/>
        <pt x="289" y="550" on="0"/>
        <pt x="350" y="525" on="0"/>
        <pt x="374" y="502" on="1"/>
        <pt x="374" y="594" on="1"/>
        <pt x="241" y="594" on="1"/>
        <pt x="241" y="691" on="1"/>
        <pt x="374" y="691" on="1"/>
        <pt x="374" y="760" on="1"/>
        <pt x="544" y="743" on="1"/>
        <pt x="544" y="691" on="1"/>
      </contour>
      <contour>
        <pt x="340" y="106" on="0"/>
        <pt x="374" y="162" on="1"/>
        <pt x="374" y="387" on="1"/>
        <pt x="356" y="407" on="0"/>
        <pt x="322" y="427" on="0"/>
        <pt x="299" y="427" on="1"/>
        <pt x="257" y="427" on="0"/>
        <pt x="208" y="349" on="0"/>
        <pt x="208" y="267" on="1"/>
        <pt x="208" y="175" on="0"/>
        <pt x="251" y="106" on="0"/>
        <pt x="291" y="106" on="1"/>
      </contour>
    </TTGlyph>
    <TTGlyph name="dcroat.sc" xMin="18" yMin="0" xMax="575" yMax="569">
      <component glyphName="eth.sc" x="0" y="0" flags="0x0"/>
    </TTGlyph>
    <TTGlyph name="degree" xMin="55" yMin="387" xMax="416" yMax="732">
      <component glyphName="degree.lf" x="18" y="20" flags="0x0"/>
    </TTGlyph>
    <TTGlyph name="degree.lf" xMin="37" yMin="367" xMax="398" yMax="712">
      <contour>
        <pt x="173" y="367" on="0"/>
        <pt x="89" y="410" on="0"/>
        <pt x="37" y="489" on="0"/>
        <pt x="37" y="541" on="1"/>
        <pt x="37" y="593" on="0"/>
        <pt x="89" y="671" on="0"/>
        <pt x="172" y="712" on="0"/>
        <pt x="218" y="712" on="1"/>
        <pt x="264" y="712" on="0"/>
        <pt x="346" y="671" on="0"/>
        <pt x="398" y="593" on="0"/>
        <pt x="398" y="541" on="1"/>
        <pt x="398" y="489" on="0"/>
        <pt x="346" y="410" on="0"/>
        <pt x="263" y="367" on="0"/>
        <pt x="218" y="367" on="1"/>
      </contour>
      <contour>
        <pt x="248" y="465" on="0"/>
        <pt x="284" y="507" on="0"/>
        <pt x="284" y="541" on="1"/>
        <pt x="284" y="574" on="0"/>
        <pt x="248" y="616" on="0"/>
        <pt x="218" y="616" on="1"/>
        <pt x="187" y="616" on="0"/>
        <pt x="151" y="575" on="0"/>
        <pt x="151" y="541" on="1"/>
        <pt x="151" y="507" on="0"/>
        <pt x="187" y="465" on="0"/>
        <pt x="218" y="465" on="1"/>
      </contour>
    </TTGlyph>
    <TTGlyph name="degree.osf" xMin="37" yMin="367" xMax="398" yMax="712">
      <component glyphName="degree.lf" x="0" y="0" flags="0x0"/>
    </TTGlyph>
    <TTGlyph name="degree.tosf" xMin="57" yMin="367" xMax="418" yMax="712">
      <component glyphName="degree.lf" x="20" y="0" flags="0x0"/>
    </TTGlyph>
    <TTGlyph name="delta" xMin="28" yMin="-18" xMax="549" yMax="760">
      <contour>
        <pt x="451" y="477" on="0"/>
        <pt x="549" y="354" on="0"/>
        <pt x="549" y="249" on="1"/>
        <pt x="549" y="168" on="0"/>
        <pt x="485" y="47" on="0"/>
        <pt x="367" y="-18" on="0"/>
        <pt x="288" y="-18" on="1"/>
        <pt x="166" y="-18" on="0"/>
        <pt x="28" y="120" on="0"/>
        <pt x="28" y="241" on="1"/>
        <pt x="28" y="390" on="0"/>
        <pt x="180" y="461" on="1"/>
        <pt x="122" y="493" on="0"/>
        <pt x="81" y="559" on="0"/>
        <pt x="81" y="604" on="1"/>
        <pt x="81" y="672" on="0"/>
        <pt x="192" y="760" on="0"/>
        <pt x="303" y="760" on="1"/>
        <pt x="363" y="760" on="0"/>
        <pt x="461" y="726" on="0"/>
        <pt x="496" y="698" on="1"/>
        <pt x="420" y="610" on="1"/>
        <pt x="368" y="643" on="0"/>
        <pt x="314" y="643" on="1"/>
        <pt x="243" y="643" on="0"/>
        <pt x="243" y="599" on="1"/>
        <pt x="243" y="583" on="0"/>
        <pt x="256" y="562" on="0"/>
        <pt x="297" y="539" on="0"/>
        <pt x="340" y="522" on="1"/>
      </contour>
      <contour>
        <pt x="331" y="106" on="0"/>
        <pt x="374" y="176" on="0"/>
        <pt x="374" y="250" on="1"/>
        <pt x="374" y="299" on="0"/>
        <pt x="358" y="356" on="0"/>
        <pt x="313" y="398" on="0"/>
        <pt x="267" y="420" on="1"/>
        <pt x="230" y="387" on="0"/>
        <pt x="202" y="308" on="0"/>
        <pt x="202" y="249" on="1"/>
        <pt x="202" y="175" on="0"/>
        <pt x="243" y="106" on="0"/>
        <pt x="288" y="106" on="1"/>
      </contour>
    </TTGlyph>
    <TTGlyph name="delta.sc" xMin="-17" yMin="0" xMax="546" yMax="569">
      <contour>
        <pt x="546" y="0" on="1"/>
        <pt x="-17" y="0" on="1"/>
        <pt x="164" y="569" on="1"/>
        <pt x="366" y="569" on="1"/>
      </contour>
      <contour>
        <pt x="185" y="120" on="1"/>
        <pt x="341" y="120" on="1"/>
        <pt x="263" y="449" on="1"/>
      </contour>
    </TTGlyph>
    <TTGlyph name="dieresis" xMin="30" yMin="639" xMax="436" yMax="805">
      <contour>
        <pt x="151" y="805" on="0"/>
        <pt x="200" y="757" on="0"/>
        <pt x="200" y="722" on="1"/>
        <pt x="200" y="687" on="0"/>
        <pt x="151" y="639" on="0"/>
        <pt x="115" y="639" on="1"/>
        <pt x="80" y="639" on="0"/>
        <pt x="30" y="687" on="0"/>
        <pt x="30" y="722" on="1"/>
        <pt x="30" y="756" on="0"/>
        <pt x="80" y="805" on="0"/>
        <pt x="115" y="805" on="1"/>
      </contour>
      <contour>
        <pt x="387" y="805" on="0"/>
        <pt x="436" y="757" on="0"/>
        <pt x="436" y="722" on="1"/>
        <pt x="436" y="687" on="0"/>
        <pt x="387" y="639" on="0"/>
        <pt x="351" y="639" on="1"/>
        <pt x="316" y="639" on="0"/>
        <pt x="266" y="687" on="0"/>
        <pt x="266" y="722" on="1"/>
        <pt x="266" y="756" on="0"/>
        <pt x="316" y="805" on="0"/>
        <pt x="351" y="805" on="1"/>
      </contour>
    </TTGlyph>
    <TTGlyph name="dieresis.case" xMin="29" yMin="765" xMax="435" yMax="931">
      <component glyphName="uni0308" x="467" y="126" flags="0x0"/>
    </TTGlyph>
    <TTGlyph name="dieresis.sc" xMin="29" yMin="669" xMax="435" yMax="835">
      <component glyphName="uni0308" x="467" y="30" flags="0x0"/>
    </TTGlyph>
    <TTGlyph name="dieresistonos" xMin="30" yMin="597" xMax="473" yMax="960">
      <contour>
        <pt x="367" y="936" on="1"/>
        <pt x="293" y="742" on="1"/>
        <pt x="201" y="757" on="1"/>
        <pt x="230" y="960" on="1"/>
      </contour>
      <contour>
        <pt x="150" y="763" on="0"/>
        <pt x="200" y="714" on="0"/>
        <pt x="200" y="680" on="1"/>
        <pt x="200" y="646" on="0"/>
        <pt x="150" y="597" on="0"/>
        <pt x="115" y="597" on="1"/>
        <pt x="79" y="597" on="0"/>
        <pt x="30" y="645" on="0"/>
        <pt x="30" y="680" on="1"/>
        <pt x="30" y="715" on="0"/>
        <pt x="79" y="763" on="0"/>
        <pt x="115" y="763" on="1"/>
      </contour>
      <contour>
        <pt x="423" y="763" on="0"/>
        <pt x="473" y="714" on="0"/>
        <pt x="473" y="680" on="1"/>
        <pt x="473" y="646" on="0"/>
        <pt x="423" y="597" on="0"/>
        <pt x="388" y="597" on="1"/>
        <pt x="352" y="597" on="0"/>
        <pt x="303" y="645" on="0"/>
        <pt x="303" y="680" on="1"/>
        <pt x="303" y="715" on="0"/>
        <pt x="352" y="763" on="0"/>
        <pt x="388" y="763" on="1"/>
      </contour>
    </TTGlyph>
    <TTGlyph name="divide" xMin="63" yMin="-6" xMax="493" yMax="670">
      <contour>
        <pt x="317" y="670" on="0"/>
        <pt x="372" y="615" on="0"/>
        <pt x="372" y="576" on="1"/>
        <pt x="372" y="538" on="0"/>
        <pt x="317" y="482" on="0"/>
        <pt x="278" y="482" on="1"/>
        <pt x="239" y="482" on="0"/>
        <pt x="184" y="537" on="0"/>
        <pt x="184" y="576" on="1"/>
        <pt x="184" y="615" on="0"/>
        <pt x="238" y="670" on="0"/>
        <pt x="278" y="670" on="1"/>
      </contour>
      <contour>
        <pt x="63" y="397" on="1"/>
        <pt x="493" y="397" on="1"/>
        <pt x="493" y="267" on="1"/>
        <pt x="63" y="267" on="1"/>
      </contour>
      <contour>
        <pt x="317" y="182" on="0"/>
        <pt x="372" y="127" on="0"/>
        <pt x="372" y="88" on="1"/>
        <pt x="372" y="50" on="0"/>
        <pt x="317" y="-6" on="0"/>
        <pt x="278" y="-6" on="1"/>
        <pt x="239" y="-6" on="0"/>
        <pt x="184" y="49" on="0"/>
        <pt x="184" y="88" on="1"/>
        <pt x="184" y="127" on="0"/>
        <pt x="238" y="182" on="0"/>
        <pt x="278" y="182" on="1"/>
      </contour>
    </TTGlyph>
    <TTGlyph name="divide.lf" xMin="46" yMin="-6" xMax="476" yMax="397">
      <component glyphName="period" x="141" y="12" flags="0x0"/>
      <component glyphName="period" x="141" y="500" flags="0x0"/>
      <component glyphName="minus.lf" x="0" y="0" flags="0x0"/>
    </TTGlyph>
    <TTGlyph name="divide.osf" xMin="46" yMin="-6" xMax="476" yMax="670">
      <contour>
        <pt x="300" y="670" on="0"/>
        <pt x="355" y="615" on="0"/>
        <pt x="355" y="576" on="1"/>
        <pt x="355" y="538" on="0"/>
        <pt x="300" y="482" on="0"/>
        <pt x="261" y="482" on="1"/>
        <pt x="222" y="482" on="0"/>
        <pt x="167" y="537" on="0"/>
        <pt x="167" y="576" on="1"/>
        <pt x="167" y="615" on="0"/>
        <pt x="221" y="670" on="0"/>
        <pt x="261" y="670" on="1"/>
      </contour>
      <contour>
        <pt x="46" y="397" on="1"/>
        <pt x="476" y="397" on="1"/>
        <pt x="476" y="267" on="1"/>
        <pt x="46" y="267" on="1"/>
      </contour>
      <contour>
        <pt x="300" y="182" on="0"/>
        <pt x="355" y="127" on="0"/>
        <pt x="355" y="88" on="1"/>
        <pt x="355" y="50" on="0"/>
        <pt x="300" y="-6" on="0"/>
        <pt x="261" y="-6" on="1"/>
        <pt x="222" y="-6" on="0"/>
        <pt x="167" y="49" on="0"/>
        <pt x="167" y="88" on="1"/>
        <pt x="167" y="127" on="0"/>
        <pt x="221" y="182" on="0"/>
        <pt x="261" y="182" on="1"/>
      </contour>
    </TTGlyph>
    <TTGlyph name="divide.tosf" xMin="65" yMin="-6" xMax="495" yMax="670">
      <contour>
        <pt x="319" y="670" on="0"/>
        <pt x="374" y="615" on="0"/>
        <pt x="374" y="576" on="1"/>
        <pt x="374" y="538" on="0"/>
        <pt x="319" y="482" on="0"/>
        <pt x="280" y="482" on="1"/>
        <pt x="241" y="482" on="0"/>
        <pt x="186" y="537" on="0"/>
        <pt x="186" y="576" on="1"/>
        <pt x="186" y="615" on="0"/>
        <pt x="240" y="670" on="0"/>
        <pt x="280" y="670" on="1"/>
      </contour>
      <contour>
        <pt x="65" y="397" on="1"/>
        <pt x="495" y="397" on="1"/>
        <pt x="495" y="267" on="1"/>
        <pt x="65" y="267" on="1"/>
      </contour>
      <contour>
        <pt x="319" y="182" on="0"/>
        <pt x="374" y="127" on="0"/>
        <pt x="374" y="88" on="1"/>
        <pt x="374" y="50" on="0"/>
        <pt x="319" y="-6" on="0"/>
        <pt x="280" y="-6" on="1"/>
        <pt x="241" y="-6" on="0"/>
        <pt x="186" y="49" on="0"/>
        <pt x="186" y="88" on="1"/>
        <pt x="186" y="127" on="0"/>
        <pt x="240" y="182" on="0"/>
        <pt x="280" y="182" on="1"/>
      </contour>
    </TTGlyph>
    <TTGlyph name="dollar" xMin="7" yMin="-162" xMax="527" yMax="852">
      <contour>
        <pt x="527" y="129" on="0"/>
        <pt x="429" y="18" on="0"/>
        <pt x="341" y="0" on="1"/>
        <pt x="341" y="-162" on="1"/>
        <pt x="221" y="-162" on="1"/>
        <pt x="221" y="-6" on="1"/>
        <pt x="91" y="6" on="0"/>
        <pt x="7" y="90" on="1"/>
        <pt x="90" y="185" on="1"/>
        <pt x="163" y="118" on="0"/>
        <pt x="255" y="118" on="1"/>
        <pt x="301" y="118" on="0"/>
        <pt x="354" y="159" on="0"/>
        <pt x="354" y="194" on="1"/>
        <pt x="354" y="218" on="0"/>
        <pt x="334" y="250" on="0"/>
        <pt x="284" y="277" on="0"/>
        <pt x="237" y="292" on="1"/>
        <pt x="126" y="327" on="0"/>
        <pt x="34" y="427" on="0"/>
        <pt x="34" y="504" on="1"/>
        <pt x="34" y="581" on="0"/>
        <pt x="137" y="684" on="0"/>
        <pt x="221" y="698" on="1"/>
        <pt x="221" y="852" on="1"/>
        <pt x="341" y="852" on="1"/>
        <pt x="341" y="698" on="1"/>
        <pt x="441" y="682" on="0"/>
        <pt x="510" y="613" on="1"/>
        <pt x="432" y="522" on="1"/>
        <pt x="365" y="578" on="0"/>
        <pt x="290" y="578" on="1"/>
        <pt x="250" y="578" on="0"/>
        <pt x="206" y="545" on="0"/>
        <pt x="206" y="516" on="1"/>
        <pt x="206" y="496" on="0"/>
        <pt x="226" y="469" on="0"/>
        <pt x="278" y="445" on="0"/>
        <pt x="331" y="428" on="1"/>
        <pt x="433" y="395" on="0"/>
        <pt x="527" y="296" on="0"/>
        <pt x="527" y="208" on="1"/>
      </contour>
    </TTGlyph>
    <TTGlyph name="dollar.lf" xMin="7" yMin="-162" xMax="531" yMax="831">
      <contour>
        <pt x="531" y="125" on="0"/>
        <pt x="433" y="16" on="0"/>
        <pt x="345" y="-2" on="1"/>
        <pt x="345" y="-162" on="1"/>
        <pt x="225" y="-162" on="1"/>
        <pt x="225" y="-8" on="1"/>
        <pt x="91" y="3" on="0"/>
        <pt x="7" y="87" on="1"/>
        <pt x="92" y="180" on="1"/>
        <pt x="166" y="114" on="0"/>
        <pt x="257" y="114" on="1"/>
        <pt x="304" y="114" on="0"/>
        <pt x="355" y="154" on="0"/>
        <pt x="355" y="189" on="1"/>
        <pt x="355" y="213" on="0"/>
        <pt x="335" y="244" on="0"/>
        <pt x="286" y="269" on="0"/>
        <pt x="238" y="284" on="1"/>
        <pt x="127" y="318" on="0"/>
        <pt x="34" y="417" on="0"/>
        <pt x="34" y="492" on="1"/>
        <pt x="34" y="569" on="0"/>
        <pt x="139" y="671" on="0"/>
        <pt x="225" y="683" on="1"/>
        <pt x="225" y="831" on="1"/>
        <pt x="345" y="831" on="1"/>
        <pt x="345" y="683" on="1"/>
        <pt x="443" y="668" on="0"/>
        <pt x="513" y="601" on="1"/>
        <pt x="435" y="510" on="1"/>
        <pt x="370" y="565" on="0"/>
        <pt x="291" y="565" on="1"/>
        <pt x="252" y="565" on="0"/>
        <pt x="207" y="534" on="0"/>
        <pt x="207" y="505" on="1"/>
        <pt x="207" y="485" on="0"/>
        <pt x="228" y="459" on="0"/>
        <pt x="281" y="435" on="0"/>
        <pt x="333" y="418" on="1"/>
        <pt x="435" y="385" on="0"/>
        <pt x="531" y="289" on="0"/>
        <pt x="531" y="202" on="1"/>
      </contour>
    </TTGlyph>
    <TTGlyph name="dollar.osf" xMin="7" yMin="-162" xMax="531" yMax="831">
      <component glyphName="dollar.lf" x="0" y="0" flags="0x0"/>
    </TTGlyph>
    <TTGlyph name="dollar.tosf" xMin="7" yMin="-162" xMax="519" yMax="832">
      <contour>
        <pt x="519" y="126" on="0"/>
        <pt x="424" y="18" on="0"/>
        <pt x="341" y="-1" on="1"/>
        <pt x="341" y="-162" on="1"/>
        <pt x="220" y="-162" on="1"/>
        <pt x="220" y="-8" on="1"/>
        <pt x="154" y="-2" on="0"/>
        <pt x="45" y="50" on="0"/>
        <pt x="7" y="89" on="1"/>
        <pt x="92" y="181" on="1"/>
        <pt x="128" y="149" on="0"/>
        <pt x="212" y="114" on="0"/>
        <pt x="253" y="114" on="1"/>
        <pt x="297" y="114" on="0"/>
        <pt x="348" y="155" on="0"/>
        <pt x="348" y="189" on="1"/>
        <pt x="348" y="223" on="0"/>
        <pt x="303" y="263" on="0"/>
        <pt x="239" y="285" on="1"/>
        <pt x="130" y="323" on="0"/>
        <pt x="43" y="418" on="0"/>
        <pt x="43" y="493" on="1"/>
        <pt x="43" y="567" on="0"/>
        <pt x="142" y="666" on="0"/>
        <pt x="220" y="682" on="1"/>
        <pt x="220" y="832" on="1"/>
        <pt x="341" y="832" on="1"/>
        <pt x="341" y="683" on="1"/>
        <pt x="439" y="668" on="0"/>
        <pt x="508" y="601" on="1"/>
        <pt x="438" y="510" on="1"/>
        <pt x="364" y="565" on="0"/>
        <pt x="298" y="565" on="1"/>
        <pt x="259" y="565" on="0"/>
        <pt x="214" y="534" on="0"/>
        <pt x="214" y="506" on="1"/>
        <pt x="214" y="485" on="0"/>
        <pt x="233" y="458" on="0"/>
        <pt x="282" y="433" on="0"/>
        <pt x="331" y="415" on="1"/>
        <pt x="428" y="381" on="0"/>
        <pt x="519" y="288" on="0"/>
        <pt x="519" y="203" on="1"/>
      </contour>
    </TTGlyph>
    <TTGlyph name="dotaccent" xMin="30" yMin="627" xMax="227" yMax="816">
      <contour>
        <pt x="172" y="816" on="0"/>
        <pt x="227" y="762" on="0"/>
        <pt x="227" y="721" on="1"/>
        <pt x="227" y="681" on="0"/>
        <pt x="172" y="627" on="0"/>
        <pt x="129" y="627" on="1"/>
        <pt x="86" y="627" on="0"/>
        <pt x="30" y="681" on="0"/>
        <pt x="30" y="721" on="1"/>
        <pt x="30" y="762" on="0"/>
        <pt x="86" y="816" on="0"/>
        <pt x="129" y="816" on="1"/>
      </contour>
    </TTGlyph>
    <TTGlyph name="dotaccent.case" xMin="30" yMin="753" xMax="227" yMax="942">
      <component glyphName="uni0307" x="257" y="126" flags="0x0"/>
    </TTGlyph>
    <TTGlyph name="dotaccent.sc" xMin="30" yMin="657" xMax="227" yMax="846">
      <component glyphName="uni0307" x="257" y="30" flags="0x0"/>
    </TTGlyph>
    <TTGlyph name="dotbelowcomb" xMin="-227" yMin="-247" xMax="-30" yMax="-58">
      <contour>
        <pt x="-171" y="-247" on="0"/>
        <pt x="-227" y="-193" on="0"/>
        <pt x="-227" y="-152" on="1"/>
        <pt x="-227" y="-112" on="0"/>
        <pt x="-171" y="-58" on="0"/>
        <pt x="-128" y="-58" on="1"/>
        <pt x="-85" y="-58" on="0"/>
        <pt x="-30" y="-112" on="0"/>
        <pt x="-30" y="-152" on="1"/>
        <pt x="-30" y="-193" on="0"/>
        <pt x="-85" y="-247" on="0"/>
        <pt x="-128" y="-247" on="1"/>
      </contour>
    </TTGlyph>
    <TTGlyph name="dotlessi" xMin="56" yMin="0" xMax="226" yMax="532">
      <contour>
        <pt x="226" y="0" on="1"/>
        <pt x="56" y="0" on="1"/>
        <pt x="56" y="532" on="1"/>
        <pt x="226" y="532" on="1"/>
      </contour>
    </TTGlyph>
    <TTGlyph name="dotlessi.sc" xMin="58" yMin="0" xMax="228" yMax="569">
      <component glyphName="i.sc" x="0" y="0" flags="0x0"/>
    </TTGlyph>
    <TTGlyph name="dotmath" xMin="26" yMin="213" xMax="214" yMax="401">
      <component glyphName="periodcentered" x="0" y="0" flags="0x0"/>
    </TTGlyph>
    <TTGlyph name="e" xMin="28" yMin="-18" xMax="531" yMax="550">
      <contour>
        <pt x="531" y="243" on="0"/>
        <pt x="528" y="217" on="1"/>
        <pt x="201" y="217" on="1"/>
        <pt x="208" y="153" on="0"/>
        <pt x="266" y="105" on="0"/>
        <pt x="317" y="105" on="1"/>
        <pt x="348" y="105" on="0"/>
        <pt x="407" y="128" on="0"/>
        <pt x="442" y="152" on="1"/>
        <pt x="512" y="58" on="1"/>
        <pt x="418" y="-18" on="0"/>
        <pt x="301" y="-18" on="1"/>
        <pt x="168" y="-18" on="0"/>
        <pt x="28" y="135" on="0"/>
        <pt x="28" y="264" on="1"/>
        <pt x="28" y="344" on="0"/>
        <pt x="86" y="474" on="0"/>
        <pt x="201" y="550" on="0"/>
        <pt x="281" y="550" on="1"/>
        <pt x="397" y="550" on="0"/>
        <pt x="531" y="405" on="0"/>
        <pt x="531" y="275" on="1"/>
      </contour>
      <contour>
        <pt x="364" y="324" on="1"/>
        <pt x="363" y="378" on="0"/>
        <pt x="327" y="439" on="0"/>
        <pt x="285" y="439" on="1"/>
        <pt x="246" y="439" on="0"/>
        <pt x="205" y="383" on="0"/>
        <pt x="200" y="317" on="1"/>
        <pt x="364" y="317" on="1"/>
      </contour>
    </TTGlyph>
    <TTGlyph name="e.sc" xMin="58" yMin="0" xMax="447" yMax="569">
      <contour>
        <pt x="430" y="452" on="1"/>
        <pt x="227" y="452" on="1"/>
        <pt x="227" y="347" on="1"/>
        <pt x="405" y="347" on="1"/>
        <pt x="405" y="233" on="1"/>
        <pt x="227" y="233" on="1"/>
        <pt x="227" y="118" on="1"/>
        <pt x="443" y="118" on="1"/>
        <pt x="443" y="0" on="1"/>
        <pt x="58" y="0" on="1"/>
        <pt x="58" y="569" on="1"/>
        <pt x="447" y="569" on="1"/>
      </contour>
    </TTGlyph>
    <TTGlyph name="eacute" xMin="28" yMin="-18" xMax="531" yMax="841">
      <component glyphName="e" x="0" y="0" flags="0x0"/>
      <component glyphName="acutecomb" x="450" y="0" flags="0x0"/>
    </TTGlyph>
    <TTGlyph name="eacute.sc" xMin="58" yMin="0" xMax="447" yMax="871">
      <component glyphName="e.sc" x="0" y="0" flags="0x0"/>
      <component glyphName="acutecomb.sc" x="72" y="0" flags="0x0"/>
    </TTGlyph>
    <TTGlyph name="ebreve" xMin="28" yMin="-18" xMax="531" yMax="826">
      <component glyphName="e" x="0" y="0" flags="0x0"/>
      <component glyphName="uni0306" x="489" y="0" flags="0x0"/>
    </TTGlyph>
    <TTGlyph name="ebreve.sc" xMin="58" yMin="0" xMax="447" yMax="856">
      <component glyphName="e.sc" x="0" y="0" flags="0x0"/>
      <component glyphName="uni0306.sc" x="46" y="0" flags="0x0"/>
    </TTGlyph>
    <TTGlyph name="ecaron" xMin="28" yMin="-18" xMax="531" yMax="818">
      <component glyphName="e" x="0" y="0" flags="0x0"/>
      <component glyphName="uni030C" x="507" y="0" flags="0x0"/>
    </TTGlyph>
    <TTGlyph name="ecaron.sc" xMin="58" yMin="0" xMax="447" yMax="848">
      <component glyphName="e.sc" x="0" y="0" flags="0x0"/>
      <component glyphName="uni030C.sc" x="29" y="0" flags="0x0"/>
    </TTGlyph>
    <TTGlyph name="ecircumflex" xMin="28" yMin="-18" xMax="531" yMax="827">
      <component glyphName="e" x="0" y="0" flags="0x0"/>
      <component glyphName="uni0302" x="507" y="0" flags="0x0"/>
    </TTGlyph>
    <TTGlyph name="ecircumflex.sc" xMin="58" yMin="0" xMax="447" yMax="857">
      <component glyphName="e.sc" x="0" y="0" flags="0x0"/>
      <component glyphName="uni0302.sc" x="29" y="0" flags="0x0"/>
    </TTGlyph>
    <TTGlyph name="edieresis" xMin="28" yMin="-18" xMax="531" yMax="805">
      <component glyphName="e" x="0" y="0" flags="0x0"/>
      <component glyphName="uni0308" x="517" y="0" flags="0x0"/>
    </TTGlyph>
    <TTGlyph name="edieresis.sc" xMin="50" yMin="0" xMax="456" yMax="835">
      <component glyphName="e.sc" x="0" y="0" flags="0x0"/>
      <component glyphName="uni0308.sc" x="20" y="0" flags="0x0"/>
    </TTGlyph>
    <TTGlyph name="edotaccent" xMin="28" yMin="-18" xMax="531" yMax="816">
      <component glyphName="e" x="0" y="0" flags="0x0"/>
      <component glyphName="uni0307" x="412" y="0" flags="0x0"/>
    </TTGlyph>
    <TTGlyph name="edotaccent.sc" xMin="58" yMin="0" xMax="447" yMax="846">
      <component glyphName="e.sc" x="0" y="0" flags="0x0"/>
      <component glyphName="uni0307.sc" x="124" y="0" flags="0x0"/>
    </TTGlyph>
    <TTGlyph name="egrave" xMin="28" yMin="-18" xMax="531" yMax="841">
      <component glyphName="e" x="0" y="0" flags="0x0"/>
      <component glyphName="gravecomb" x="467" y="0" flags="0x0"/>
    </TTGlyph>
    <TTGlyph name="egrave.sc" xMin="58" yMin="0" xMax="447" yMax="871">
      <component glyphName="e.sc" x="0" y="0" flags="0x0"/>
      <component glyphName="gravecomb.sc" x="87" y="0" flags="0x0"/>
    </TTGlyph>
    <TTGlyph name="eight" xMin="19" yMin="-18" xMax="537" yMax="712">
      <contour>
        <pt x="474" y="339" on="0"/>
        <pt x="537" y="250" on="0"/>
        <pt x="537" y="188" on="1"/>
        <pt x="537" y="131" on="0"/>
        <pt x="475" y="37" on="0"/>
        <pt x="356" y="-18" on="0"/>
        <pt x="275" y="-18" on="1"/>
        <pt x="196" y="-18" on="0"/>
        <pt x="80" y="36" on="0"/>
        <pt x="19" y="128" on="0"/>
        <pt x="19" y="185" on="1"/>
        <pt x="19" y="305" on="0"/>
        <pt x="142" y="358" on="1"/>
        <pt x="91" y="390" on="0"/>
        <pt x="45" y="471" on="0"/>
        <pt x="45" y="522" on="1"/>
        <pt x="45" y="579" on="0"/>
        <pt x="104" y="665" on="0"/>
        <pt x="210" y="712" on="0"/>
        <pt x="279" y="712" on="1"/>
        <pt x="383" y="712" on="0"/>
        <pt x="512" y="614" on="0"/>
        <pt x="512" y="529" on="1"/>
        <pt x="512" y="483" on="0"/>
        <pt x="460" y="403" on="0"/>
        <pt x="407" y="373" on="1"/>
      </contour>
      <contour>
        <pt x="244" y="599" on="0"/>
        <pt x="206" y="560" on="0"/>
        <pt x="206" y="520" on="1"/>
        <pt x="206" y="484" on="0"/>
        <pt x="243" y="441" on="0"/>
        <pt x="286" y="423" on="1"/>
        <pt x="299" y="417" on="1"/>
        <pt x="328" y="439" on="0"/>
        <pt x="351" y="488" on="0"/>
        <pt x="351" y="521" on="1"/>
        <pt x="351" y="557" on="0"/>
        <pt x="312" y="599" on="0"/>
        <pt x="278" y="599" on="1"/>
      </contour>
      <contour>
        <pt x="325" y="103" on="0"/>
        <pt x="371" y="151" on="0"/>
        <pt x="371" y="190" on="1"/>
        <pt x="371" y="232" on="0"/>
        <pt x="329" y="279" on="0"/>
        <pt x="277" y="297" on="1"/>
        <pt x="244" y="311" on="1"/>
        <pt x="186" y="272" on="0"/>
        <pt x="186" y="195" on="1"/>
        <pt x="186" y="152" on="0"/>
        <pt x="237" y="103" on="0"/>
        <pt x="281" y="103" on="1"/>
      </contour>
    </TTGlyph>
    <TTGlyph name="eight.dnom" xMin="19" yMin="-13" xMax="381" yMax="432">
      <contour>
        <pt x="339" y="204" on="0"/>
        <pt x="381" y="150" on="0"/>
        <pt x="381" y="115" on="1"/>
        <pt x="381" y="81" on="0"/>
        <pt x="338" y="23" on="0"/>
        <pt x="256" y="-13" on="0"/>
        <pt x="198" y="-13" on="1"/>
        <pt x="142" y="-13" on="0"/>
        <pt x="61" y="22" on="0"/>
        <pt x="19" y="79" on="0"/>
        <pt x="19" y="113" on="1"/>
        <pt x="19" y="182" on="0"/>
        <pt x="101" y="214" on="1"/>
        <pt x="36" y="254" on="0"/>
        <pt x="36" y="316" on="1"/>
        <pt x="36" y="366" on="0"/>
        <pt x="126" y="432" on="0"/>
        <pt x="200" y="432" on="1"/>
        <pt x="276" y="432" on="0"/>
        <pt x="365" y="372" on="0"/>
        <pt x="365" y="322" on="1"/>
        <pt x="365" y="296" on="0"/>
        <pt x="329" y="245" on="0"/>
        <pt x="293" y="227" on="1"/>
      </contour>
      <contour>
        <pt x="157" y="352" on="0"/>
        <pt x="157" y="314" on="1"/>
        <pt x="157" y="281" on="0"/>
        <pt x="196" y="266" on="1"/>
        <pt x="212" y="259" on="1"/>
        <pt x="231" y="272" on="0"/>
        <pt x="243" y="298" on="0"/>
        <pt x="243" y="315" on="1"/>
        <pt x="243" y="332" on="0"/>
        <pt x="221" y="352" on="0"/>
        <pt x="201" y="352" on="1"/>
      </contour>
      <contour>
        <pt x="229" y="74" on="0"/>
        <pt x="257" y="98" on="0"/>
        <pt x="257" y="116" on="1"/>
        <pt x="257" y="136" on="0"/>
        <pt x="233" y="159" on="0"/>
        <pt x="203" y="170" on="1"/>
        <pt x="177" y="179" on="1"/>
        <pt x="160" y="170" on="0"/>
        <pt x="144" y="138" on="0"/>
        <pt x="144" y="120" on="1"/>
        <pt x="144" y="99" on="0"/>
        <pt x="175" y="74" on="0"/>
        <pt x="201" y="74" on="1"/>
      </contour>
    </TTGlyph>
    <TTGlyph name="eight.lf" xMin="27" yMin="-18" xMax="560" yMax="692">
      <contour>
        <pt x="494" y="330" on="0"/>
        <pt x="560" y="240" on="0"/>
        <pt x="560" y="183" on="1"/>
        <pt x="560" y="128" on="0"/>
        <pt x="496" y="36" on="0"/>
        <pt x="373" y="-18" on="0"/>
        <pt x="289" y="-18" on="1"/>
        <pt x="208" y="-18" on="0"/>
        <pt x="89" y="35" on="0"/>
        <pt x="27" y="126" on="0"/>
        <pt x="27" y="181" on="1"/>
        <pt x="27" y="294" on="0"/>
        <pt x="151" y="347" on="1"/>
        <pt x="53" y="408" on="0"/>
        <pt x="53" y="508" on="1"/>
        <pt x="53" y="561" on="0"/>
        <pt x="114" y="645" on="0"/>
        <pt x="224" y="692" on="0"/>
        <pt x="294" y="692" on="1"/>
        <pt x="401" y="692" on="0"/>
        <pt x="533" y="598" on="0"/>
        <pt x="533" y="517" on="1"/>
        <pt x="533" y="473" on="0"/>
        <pt x="480" y="393" on="0"/>
        <pt x="426" y="363" on="1"/>
      </contour>
      <contour>
        <pt x="258" y="578" on="0"/>
        <pt x="217" y="542" on="0"/>
        <pt x="217" y="506" on="1"/>
        <pt x="217" y="475" on="0"/>
        <pt x="252" y="433" on="0"/>
        <pt x="291" y="416" on="1"/>
        <pt x="314" y="407" on="1"/>
        <pt x="345" y="429" on="0"/>
        <pt x="369" y="477" on="0"/>
        <pt x="369" y="508" on="1"/>
        <pt x="369" y="540" on="0"/>
        <pt x="330" y="578" on="0"/>
        <pt x="294" y="578" on="1"/>
      </contour>
      <contour>
        <pt x="341" y="103" on="0"/>
        <pt x="390" y="149" on="0"/>
        <pt x="390" y="185" on="1"/>
        <pt x="390" y="223" on="0"/>
        <pt x="347" y="267" on="0"/>
        <pt x="293" y="288" on="1"/>
        <pt x="258" y="301" on="1"/>
        <pt x="196" y="264" on="0"/>
        <pt x="196" y="190" on="1"/>
        <pt x="196" y="150" on="0"/>
        <pt x="250" y="103" on="0"/>
        <pt x="295" y="103" on="1"/>
      </contour>
    </TTGlyph>
    <TTGlyph name="eight.numr" xMin="19" yMin="259" xMax="381" yMax="704">
      <component glyphName="eight.dnom" x="0" y="272" flags="0x0"/>
    </TTGlyph>
    <TTGlyph name="eight.osf" xMin="27" yMin="-18" xMax="560" yMax="692">
      <contour>
        <pt x="494" y="330" on="0"/>
        <pt x="560" y="240" on="0"/>
        <pt x="560" y="183" on="1"/>
        <pt x="560" y="128" on="0"/>
        <pt x="496" y="36" on="0"/>
        <pt x="373" y="-18" on="0"/>
        <pt x="289" y="-18" on="1"/>
        <pt x="208" y="-18" on="0"/>
        <pt x="89" y="35" on="0"/>
        <pt x="27" y="126" on="0"/>
        <pt x="27" y="181" on="1"/>
        <pt x="27" y="294" on="0"/>
        <pt x="151" y="347" on="1"/>
        <pt x="53" y="408" on="0"/>
        <pt x="53" y="508" on="1"/>
        <pt x="53" y="561" on="0"/>
        <pt x="114" y="645" on="0"/>
        <pt x="224" y="692" on="0"/>
        <pt x="294" y="692" on="1"/>
        <pt x="401" y="692" on="0"/>
        <pt x="533" y="598" on="0"/>
        <pt x="533" y="517" on="1"/>
        <pt x="533" y="473" on="0"/>
        <pt x="480" y="393" on="0"/>
        <pt x="426" y="363" on="1"/>
      </contour>
      <contour>
        <pt x="258" y="578" on="0"/>
        <pt x="217" y="542" on="0"/>
        <pt x="217" y="506" on="1"/>
        <pt x="217" y="475" on="0"/>
        <pt x="252" y="433" on="0"/>
        <pt x="291" y="416" on="1"/>
        <pt x="314" y="407" on="1"/>
        <pt x="345" y="429" on="0"/>
        <pt x="369" y="477" on="0"/>
        <pt x="369" y="508" on="1"/>
        <pt x="369" y="540" on="0"/>
        <pt x="330" y="578" on="0"/>
        <pt x="294" y="578" on="1"/>
      </contour>
      <contour>
        <pt x="341" y="103" on="0"/>
        <pt x="390" y="149" on="0"/>
        <pt x="390" y="185" on="1"/>
        <pt x="390" y="223" on="0"/>
        <pt x="347" y="267" on="0"/>
        <pt x="293" y="288" on="1"/>
        <pt x="258" y="301" on="1"/>
        <pt x="196" y="264" on="0"/>
        <pt x="196" y="190" on="1"/>
        <pt x="196" y="150" on="0"/>
        <pt x="250" y="103" on="0"/>
        <pt x="295" y="103" on="1"/>
      </contour>
    </TTGlyph>
    <TTGlyph name="eight.tosf" xMin="22" yMin="-18" xMax="540" yMax="692">
      <contour>
        <pt x="477" y="329" on="0"/>
        <pt x="540" y="240" on="0"/>
        <pt x="540" y="183" on="1"/>
        <pt x="540" y="128" on="0"/>
        <pt x="478" y="36" on="0"/>
        <pt x="359" y="-18" on="0"/>
        <pt x="278" y="-18" on="1"/>
        <pt x="199" y="-18" on="0"/>
        <pt x="83" y="35" on="0"/>
        <pt x="22" y="126" on="0"/>
        <pt x="22" y="181" on="1"/>
        <pt x="22" y="239" on="0"/>
        <pt x="86" y="322" on="0"/>
        <pt x="144" y="348" on="1"/>
        <pt x="48" y="409" on="0"/>
        <pt x="48" y="508" on="1"/>
        <pt x="48" y="561" on="0"/>
        <pt x="107" y="645" on="0"/>
        <pt x="214" y="692" on="0"/>
        <pt x="282" y="692" on="1"/>
        <pt x="386" y="692" on="0"/>
        <pt x="515" y="596" on="0"/>
        <pt x="515" y="514" on="1"/>
        <pt x="515" y="471" on="0"/>
        <pt x="463" y="393" on="0"/>
        <pt x="411" y="363" on="1"/>
      </contour>
      <contour>
        <pt x="248" y="578" on="0"/>
        <pt x="209" y="541" on="0"/>
        <pt x="209" y="505" on="1"/>
        <pt x="209" y="472" on="0"/>
        <pt x="245" y="430" on="0"/>
        <pt x="287" y="413" on="1"/>
        <pt x="302" y="407" on="1"/>
        <pt x="331" y="429" on="0"/>
        <pt x="354" y="476" on="0"/>
        <pt x="354" y="507" on="1"/>
        <pt x="354" y="539" on="0"/>
        <pt x="315" y="578" on="0"/>
        <pt x="281" y="578" on="1"/>
      </contour>
      <contour>
        <pt x="327" y="103" on="0"/>
        <pt x="374" y="149" on="0"/>
        <pt x="374" y="185" on="1"/>
        <pt x="374" y="223" on="0"/>
        <pt x="333" y="268" on="0"/>
        <pt x="282" y="287" on="1"/>
        <pt x="247" y="301" on="1"/>
        <pt x="189" y="264" on="0"/>
        <pt x="189" y="190" on="1"/>
        <pt x="189" y="150" on="0"/>
        <pt x="241" y="103" on="0"/>
        <pt x="284" y="103" on="1"/>
      </contour>
    </TTGlyph>
    <TTGlyph name="ellipsis" xMin="268" yMin="-18" xMax="456" yMax="170">
      <component glyphName="period" x="242" y="0" flags="0x0"/>
      <component glyphName="period" x="485" y="0" flags="0x0"/>
      <component glyphName="period" x="0" y="0" flags="0x0"/>
    </TTGlyph>
    <TTGlyph name="emacron" xMin="28" yMin="-18" xMax="531" yMax="770">
      <component glyphName="e" x="0" y="0" flags="0x0"/>
      <component glyphName="uni0304" x="468" y="0" flags="0x0"/>
    </TTGlyph>
    <TTGlyph name="emacron.sc" xMin="58" yMin="0" xMax="447" yMax="800">
      <component glyphName="e.sc" x="0" y="0" flags="0x0"/>
      <component glyphName="uni0304.sc" x="67" y="0" flags="0x0"/>
    </TTGlyph>
    <TTGlyph name="emdash" xMin="19" yMin="248" xMax="778" yMax="378">
      <contour>
        <pt x="19" y="378" on="1"/>
        <pt x="778" y="378" on="1"/>
        <pt x="778" y="248" on="1"/>
        <pt x="19" y="248" on="1"/>
      </contour>
    </TTGlyph>
    <TTGlyph name="emdash.case" xMin="19" yMin="293" xMax="778" yMax="423">
      <component glyphName="emdash" x="0" y="45" flags="0x0"/>
    </TTGlyph>
    <TTGlyph name="emptyset" xMin="84" yMin="-16" xMax="816" yMax="716">
      <contour>
        <pt x="753" y="570" on="0"/>
        <pt x="816" y="429" on="0"/>
        <pt x="816" y="349" on="1"/>
        <pt x="816" y="248" on="0"/>
        <pt x="718" y="81" on="0"/>
        <pt x="551" y="-16" on="0"/>
        <pt x="451" y="-16" on="1"/>
        <pt x="349" y="-16" on="0"/>
        <pt x="265" y="34" on="1"/>
        <pt x="231" y="-12" on="1"/>
        <pt x="116" y="-12" on="1"/>
        <pt x="191" y="90" on="1"/>
        <pt x="140" y="141" on="0"/>
        <pt x="84" y="274" on="0"/>
        <pt x="84" y="349" on="1"/>
        <pt x="84" y="450" on="0"/>
        <pt x="183" y="618" on="0"/>
        <pt x="351" y="716" on="0"/>
        <pt x="451" y="716" on="1"/>
        <pt x="543" y="716" on="0"/>
        <pt x="621" y="674" on="1"/>
        <pt x="649" y="712" on="1"/>
        <pt x="764" y="712" on="1"/>
        <pt x="697" y="621" on="1"/>
      </contour>
      <contour>
        <pt x="185" y="298" on="0"/>
        <pt x="219" y="206" on="0"/>
        <pt x="251" y="171" on="1"/>
        <pt x="563" y="595" on="1"/>
        <pt x="512" y="619" on="0"/>
        <pt x="451" y="619" on="1"/>
        <pt x="378" y="619" on="0"/>
        <pt x="256" y="546" on="0"/>
        <pt x="185" y="422" on="0"/>
        <pt x="185" y="349" on="1"/>
      </contour>
      <contour>
        <pt x="524" y="81" on="0"/>
        <pt x="646" y="153" on="0"/>
        <pt x="716" y="276" on="0"/>
        <pt x="716" y="349" on="1"/>
        <pt x="716" y="405" on="0"/>
        <pt x="675" y="504" on="0"/>
        <pt x="638" y="541" on="1"/>
        <pt x="323" y="113" on="1"/>
        <pt x="381" y="81" on="0"/>
        <pt x="451" y="81" on="1"/>
      </contour>
    </TTGlyph>
</ttFont>
